<?xml version="1.0" encoding="UTF-8"?>
<svg xmlns="http://www.w3.org/2000/svg" xmlns:xlink="http://www.w3.org/1999/xlink" width="600px" height="855px" viewBox="0 0 600 855" version="1.1">
<g id="surface1">
<path style=" stroke:none;fill-rule:evenodd;fill:rgb(89.019608%,54.901961%,79.607843%);fill-opacity:1;" d="M 199.800781 250.441406 C 197.738281 251.53125 192.46875 252.050781 190.164062 251.390625 C 188.484375 250.90625 188.054688 251.054688 186.46875 252.640625 C 185.480469 253.628906 183.957031 254.8125 183.085938 255.273438 C 182.214844 255.730469 180.992188 256.796875 180.375 257.644531 C 179.753906 258.488281 178.984375 259.011719 178.65625 258.8125 C 178.332031 258.609375 177.894531 258.703125 177.683594 259.015625 C 177.105469 259.871094 172.386719 261.601562 170.625 261.601562 C 169.773438 261.601562 166.875 262.253906 164.1875 263.050781 C 161.5 263.847656 156.148438 264.960938 152.292969 265.519531 L 145.285156 266.542969 L 143.292969 269.023438 C 142.195312 270.382812 141.300781 271.65625 141.300781 271.847656 C 141.300781 272.480469 137.519531 276.519531 137.21875 276.214844 C 137.054688 276.054688 136.953125 276.277344 136.992188 276.710938 C 137.078125 277.636719 134.910156 282.207031 134.246094 282.5 C 133.996094 282.613281 133.945312 282.949219 134.132812 283.25 C 134.316406 283.550781 134.183594 283.800781 133.835938 283.800781 C 133.488281 283.800781 133.199219 284.203125 133.199219 284.699219 C 133.199219 285.851562 132.335938 285.851562 131.1875 284.703125 C 130.695312 284.207031 129.863281 283.964844 129.34375 284.164062 C 128.726562 284.402344 128.398438 284.195312 128.398438 283.566406 C 128.398438 283.035156 128.0625 282.667969 127.648438 282.75 C 127.238281 282.832031 126.960938 282.582031 127.035156 282.195312 C 127.128906 281.703125 126.332031 281.566406 124.445312 281.753906 C 122.875 281.90625 120.582031 281.632812 119.039062 281.109375 C 117.5625 280.609375 115.015625 280.199219 113.378906 280.199219 C 111.402344 280.199219 110.398438 279.949219 110.390625 279.449219 C 110.386719 278.984375 110.214844 278.929688 109.941406 279.300781 C 109.699219 279.628906 108.0625 279.949219 106.304688 280.011719 C 102.023438 280.160156 99.992188 281.488281 100.5 283.804688 C 100.878906 285.523438 98.371094 286.921875 94.800781 286.980469 C 94.304688 286.988281 93.066406 287.460938 92.046875 288.03125 C 90.949219 288.648438 89.527344 288.945312 88.5625 288.757812 C 87.265625 288.511719 86.859375 288.703125 86.597656 289.703125 C 86.398438 290.476562 85.136719 291.472656 83.335938 292.285156 C 81.332031 293.191406 80.398438 293.972656 80.398438 294.742188 C 80.398438 295.363281 80.148438 295.714844 79.84375 295.527344 C 79.539062 295.339844 79.113281 295.726562 78.902344 296.390625 C 78.605469 297.332031 78 297.601562 76.160156 297.601562 C 74.863281 297.601562 73.800781 297.890625 73.800781 298.242188 C 73.800781 299.089844 72.238281 300.636719 71.8125 300.210938 C 71.464844 299.867188 69.632812 299.625 62.90625 299.046875 C 59.386719 298.742188 58.871094 298.832031 58.566406 299.800781 C 58.054688 301.410156 56.953125 306.757812 56.914062 307.800781 C 56.894531 308.296875 56.609375 309.78125 56.277344 311.101562 C 55.945312 312.421875 55.558594 314.445312 55.414062 315.601562 C 55.273438 316.753906 54.617188 320.265625 53.960938 323.398438 C 53.300781 326.535156 52.390625 331.316406 51.929688 334.027344 C 51.472656 336.738281 50.949219 339.199219 50.761719 339.5 C 50.578125 339.796875 50.25 341.496094 50.039062 343.273438 C 49.824219 345.046875 49.375 346.675781 49.039062 346.890625 C 48.699219 347.101562 48.59375 347.722656 48.800781 348.261719 C 49.011719 348.804688 48.847656 349.371094 48.441406 349.53125 C 47.992188 349.699219 47.679688 351.0625 47.648438 352.960938 C 47.621094 354.691406 47.3125 356.644531 46.960938 357.304688 C 46.609375 357.960938 46.125 360.121094 45.878906 362.101562 C 45.636719 364.078125 45.1875 366.375 44.875 367.199219 C 44.566406 368.023438 44.167969 370.589844 43.992188 372.898438 C 43.816406 375.210938 43.402344 377.4375 43.066406 377.847656 C 42.730469 378.257812 42.597656 379.320312 42.765625 380.203125 C 42.976562 381.304688 42.59375 382.539062 41.558594 384.101562 C 40.382812 385.882812 40.199219 386.578125 40.734375 387.222656 C 41.28125 387.878906 41.167969 388.121094 40.210938 388.371094 C 39.523438 388.550781 39 389.1875 39 389.851562 C 39 391.082031 37.042969 393.242188 36.457031 392.65625 C 36.265625 392.464844 35.914062 392.9375 35.679688 393.703125 C 35.445312 394.472656 34.40625 395.914062 33.375 396.910156 C 30.375 399.804688 28.941406 401.972656 28.511719 404.238281 C 28.050781 406.707031 25.628906 410.746094 23.503906 412.597656 C 21.628906 414.230469 22.667969 415.621094 26.070312 416.046875 C 33.710938 416.992188 39.28125 419.863281 37.425781 421.902344 C 36.726562 422.671875 35.398438 424.460938 34.480469 425.878906 C 33.429688 427.492188 32.644531 428.195312 32.378906 427.761719 C 32.09375 427.308594 31.820312 427.28125 31.570312 427.683594 C 31.363281 428.023438 31.476562 428.390625 31.820312 428.507812 C 32.566406 428.753906 30.8125 432.601562 29.957031 432.601562 C 29.652344 432.601562 29.464844 432.800781 29.539062 433.050781 C 29.765625 433.761719 25.097656 441 24.414062 441 C 24.078125 441 23.964844 441.164062 24.164062 441.363281 C 24.363281 441.5625 24.257812 442.035156 23.929688 442.414062 C 21.199219 445.539062 14.3125 460.664062 14.519531 463.074219 L 14.699219 465.195312 L 23.878906 467.671875 C 28.925781 469.03125 32.886719 470.3125 32.683594 470.515625 C 32.167969 471.03125 35.832031 471.777344 36.585938 471.308594 C 36.925781 471.101562 37.199219 471.183594 37.199219 471.496094 C 37.199219 471.808594 37.941406 472.195312 38.851562 472.359375 C 43.328125 473.160156 64.214844 479.21875 68.023438 480.820312 C 69.300781 481.359375 71.140625 481.800781 72.109375 481.800781 C 73.175781 481.800781 73.71875 482.046875 73.484375 482.425781 C 73.234375 482.828125 73.644531 482.910156 74.648438 482.660156 C 75.679688 482.398438 76.199219 482.515625 76.199219 483 C 76.199219 483.433594 76.605469 483.574219 77.203125 483.34375 C 77.753906 483.132812 78.359375 483.1875 78.550781 483.472656 C 78.742188 483.75 81.601562 484.734375 84.898438 485.65625 C 88.199219 486.574219 91.324219 487.707031 91.847656 488.164062 C 92.367188 488.625 93.628906 489 94.648438 489 C 96.503906 489 96.503906 489 95.878906 491.25 C 95.21875 493.636719 94.925781 495.816406 94.394531 502.351562 C 94.214844 504.578125 93.824219 506.398438 93.53125 506.398438 C 93.238281 506.398438 93 507.5625 93 508.980469 C 93 510.398438 92.726562 511.832031 92.398438 512.160156 C 92.066406 512.492188 91.707031 513.828125 91.59375 515.132812 C 91.480469 516.433594 91.09375 518.210938 90.738281 519.078125 C 90.378906 519.945312 90.160156 521.160156 90.253906 521.777344 C 90.410156 522.84375 90.246094 523.335938 88.765625 526.246094 C 88.414062 526.933594 88.015625 528.214844 87.875 529.097656 C 87.296875 532.714844 86.5625 534.890625 85.960938 534.769531 C 85.609375 534.699219 85.453125 535.140625 85.613281 535.753906 C 85.9375 536.996094 84.167969 539.398438 82.929688 539.398438 C 82.488281 539.398438 82.273438 539.628906 82.445312 539.910156 C 82.621094 540.195312 82.375 540.9375 81.898438 541.5625 C 80.636719 543.230469 80.785156 545.203125 82.199219 545.574219 C 82.859375 545.746094 83.398438 545.644531 83.398438 545.34375 C 83.398438 544.503906 88.058594 544.695312 88.402344 545.550781 C 88.644531 546.148438 88.714844 546.148438 88.753906 545.550781 C 88.785156 545.042969 89.921875 544.800781 92.28125 544.800781 C 95.855469 544.800781 97.347656 545.519531 96.789062 546.972656 C 96.613281 547.429688 96.761719 547.800781 97.117188 547.800781 C 97.472656 547.800781 97.605469 548.203125 97.417969 548.699219 C 97.226562 549.195312 97.324219 549.601562 97.636719 549.601562 C 98.273438 549.601562 98.339844 549.90625 98.664062 554.101562 C 98.789062 555.75 99.03125 557.503906 99.199219 558 C 100.453125 561.652344 100.824219 563.472656 100.449219 564.082031 C 100.175781 564.523438 100.273438 564.625 100.707031 564.355469 C 101.089844 564.121094 101.398438 564.222656 101.398438 564.582031 C 101.398438 565.390625 106.023438 571.324219 107.164062 571.980469 C 108.183594 572.566406 108.253906 574.308594 107.292969 575.265625 C 106.753906 575.804688 106.824219 576.230469 107.59375 577.085938 C 108.148438 577.695312 108.421875 578.378906 108.199219 578.597656 C 107.980469 578.820312 108.195312 579 108.671875 579 C 109.945312 579 114.019531 581.179688 113.578125 581.625 C 113.230469 581.96875 114.289062 582.238281 115.351562 582.070312 C 115.597656 582.03125 115.800781 582.277344 115.800781 582.613281 C 115.800781 582.949219 116.476562 583.53125 117.300781 583.910156 C 118.125 584.285156 118.800781 584.933594 118.800781 585.355469 C 118.800781 586.488281 122.691406 590.398438 123.820312 590.398438 C 124.359375 590.398438 124.800781 590.644531 124.800781 590.945312 C 124.800781 591.726562 127.925781 596.398438 128.449219 596.398438 C 130.152344 596.398438 136.199219 603.644531 136.199219 605.679688 C 136.199219 606.988281 136.441406 607.722656 136.800781 607.5 C 137.128906 607.296875 137.398438 607.394531 137.398438 607.71875 C 137.398438 609.167969 141.167969 609.167969 142.28125 607.71875 C 143.253906 606.453125 143.707031 606.558594 143.457031 607.996094 C 143.410156 608.265625 143.648438 608.316406 143.988281 608.105469 C 144.328125 607.894531 144.792969 608.207031 145.023438 608.800781 C 146.296875 612.121094 149.398438 614.007812 152.433594 613.304688 C 154.722656 612.777344 155.921875 612.816406 158.140625 613.480469 C 162.628906 614.832031 171.84375 614.089844 176.714844 611.980469 C 179.085938 610.957031 186.355469 608.445312 187.050781 608.40625 C 187.132812 608.402344 187.199219 608.804688 187.199219 609.300781 C 187.199219 610.929688 190.71875 610.4375 191.507812 608.699219 C 192.246094 607.085938 192.890625 606.816406 193.53125 607.851562 C 193.753906 608.210938 194.445312 608.371094 195.066406 608.207031 C 195.691406 608.046875 196.199219 608.101562 196.199219 608.328125 C 196.199219 609.460938 199.777344 608.933594 200.660156 607.671875 C 201.175781 606.9375 201.601562 606.578125 201.601562 606.878906 C 201.601562 607.183594 201.9375 606.992188 202.351562 606.457031 C 202.835938 605.824219 204.363281 605.382812 206.699219 605.191406 C 208.679688 605.03125 211.246094 604.738281 212.398438 604.546875 C 213.554688 604.351562 216.523438 603.980469 219 603.71875 C 221.476562 603.460938 224.351562 602.792969 225.390625 602.238281 C 226.941406 601.410156 227.339844 601.378906 227.597656 602.046875 C 227.902344 602.84375 237.539062 599.554688 239.070312 598.128906 C 239.382812 597.839844 240.023438 597.601562 240.496094 597.601562 C 240.964844 597.601562 242.867188 596.953125 244.726562 596.160156 C 246.582031 595.371094 251.042969 593.554688 254.644531 592.121094 C 269.449219 586.226562 277.226562 579.542969 287.949219 563.496094 L 292.894531 556.09375 L 292.179688 552.996094 C 291.785156 551.292969 290.84375 547.46875 290.082031 544.5 C 289.324219 541.53125 288.382812 536.535156 287.992188 533.398438 C 287.5 529.441406 286.945312 527.332031 286.175781 526.496094 C 285.015625 525.238281 289.648438 512.992188 291.28125 513.003906 C 291.621094 513.003906 294.675781 514.085938 298.070312 515.402344 C 305.328125 518.222656 306.496094 518.3125 308.953125 516.246094 C 311.417969 514.171875 311.496094 514.328125 305.851562 509.992188 C 291.007812 498.585938 286.199219 494.742188 286.199219 494.28125 C 286.199219 494.003906 290.132812 488.484375 294.9375 482.019531 C 304.089844 469.707031 304.171875 469.515625 301.304688 467.476562 L 299.519531 466.203125 L 295.109375 472.179688 C 292.683594 475.46875 290.359375 478.167969 289.945312 478.179688 C 289.367188 478.195312 279.214844 472.824219 277.839844 471.777344 C 277.695312 471.667969 278.488281 469.699219 279.601562 467.398438 C 281.972656 462.492188 282.265625 463.007812 275.9375 460.886719 C 269.703125 458.796875 268.984375 457.28125 273.058594 454.800781 C 284.222656 448.003906 292.753906 425.609375 292.882812 402.757812 C 292.972656 386.691406 290.261719 365.066406 287.105469 356.695312 C 286.234375 354.386719 285.359375 351.980469 285.160156 351.34375 C 284.457031 349.0625 282.796875 347.828125 275.699219 344.308594 L 268.5 340.738281 L 267.300781 342.367188 C 266.640625 343.261719 265.523438 344.683594 264.820312 345.523438 L 263.542969 347.054688 L 256.71875 345.417969 C 252.96875 344.515625 248.953125 343.628906 247.800781 343.441406 C 246.644531 343.253906 245.160156 342.878906 244.5 342.605469 C 243.839844 342.332031 242.828125 341.957031 242.25 341.773438 C 241.503906 341.535156 241.199219 340.804688 241.199219 339.25 C 241.199219 337.300781 241.058594 337.097656 239.902344 337.398438 C 238.359375 337.804688 236.398438 336.882812 236.398438 335.75 C 236.398438 333.816406 232.5625 331.839844 230.839844 332.882812 C 229.457031 333.722656 228.691406 333.757812 225.128906 333.144531 C 222.867188 332.757812 220.089844 332.578125 218.957031 332.742188 C 215.425781 333.257812 215.082031 332.5 216.847656 328.085938 C 217.699219 325.953125 218.398438 324.015625 218.398438 323.78125 C 218.398438 322.878906 222.742188 319.078125 224.71875 318.253906 C 225.863281 317.773438 226.804688 317.183594 226.8125 316.941406 C 226.847656 315.644531 228.621094 303.699219 228.953125 302.550781 C 229.230469 301.578125 229.085938 301.199219 228.445312 301.199219 C 227.273438 301.199219 225.949219 299.625 226.71875 299.152344 C 227.351562 298.757812 230.054688 290.476562 230.949219 286.199219 C 231.921875 281.523438 231.976562 273.605469 231.039062 273.023438 C 230.164062 272.484375 230.320312 268.917969 231.597656 260.101562 C 232.621094 253.027344 232.664062 253.484375 231 253.648438 C 230.175781 253.734375 228.511719 254.234375 227.308594 254.765625 C 224.816406 255.863281 220.289062 254.902344 211.199219 251.347656 C 206.335938 249.449219 202.289062 249.125 199.800781 250.441406 "/>
<path style=" stroke:none;fill-rule:evenodd;fill:rgb(83.137255%,76.470588%,14.117647%);fill-opacity:1;" d="M 299.0625 347.925781 C 296.3125 348.714844 287.578125 352.667969 286.347656 353.679688 C 286.265625 353.746094 286.753906 355.398438 287.429688 357.351562 C 292.085938 370.742188 294.441406 406.058594 291.605469 419.96875 C 288.605469 434.695312 280.21875 450.441406 273.058594 454.800781 C 268.984375 457.28125 269.703125 458.796875 275.9375 460.886719 C 282.265625 463.007812 281.972656 462.492188 279.601562 467.398438 C 278.488281 469.699219 277.695312 471.667969 277.839844 471.777344 C 279.214844 472.824219 289.367188 478.195312 289.945312 478.179688 C 290.359375 478.167969 292.683594 475.46875 295.109375 472.179688 L 299.519531 466.203125 L 301.304688 467.476562 C 304.171875 469.515625 304.089844 469.707031 294.9375 482.019531 C 290.132812 488.484375 286.199219 494.003906 286.199219 494.28125 C 286.199219 494.742188 291.007812 498.585938 305.851562 509.992188 C 311.496094 514.328125 311.417969 514.171875 308.953125 516.246094 C 306.496094 518.3125 305.328125 518.222656 298.070312 515.402344 C 294.675781 514.085938 291.621094 513.003906 291.28125 513.003906 C 289.648438 512.992188 285.015625 525.238281 286.175781 526.496094 C 286.945312 527.332031 287.5 529.441406 287.992188 533.398438 C 288.382812 536.535156 289.324219 541.53125 290.082031 544.5 C 290.84375 547.46875 291.785156 551.292969 292.179688 552.996094 L 292.894531 556.09375 L 287.949219 563.496094 C 277.226562 579.542969 269.449219 586.226562 254.644531 592.121094 C 251.042969 593.554688 246.582031 595.371094 244.726562 596.160156 C 242.867188 596.953125 240.964844 597.601562 240.496094 597.601562 C 240.023438 597.601562 239.382812 597.847656 239.070312 598.148438 C 238.757812 598.449219 236.273438 599.546875 233.550781 600.589844 C 228.609375 602.484375 228.601562 602.492188 228.601562 604.660156 C 228.601562 606.75 232.359375 611.398438 234.050781 611.398438 C 234.351562 611.398438 234.601562 612.164062 234.601562 613.097656 C 234.601562 614.035156 234.800781 615.003906 235.050781 615.25 C 235.296875 615.496094 235.5 615.898438 235.5 616.144531 C 235.5 616.859375 239.03125 620.398438 239.742188 620.398438 C 240.097656 620.398438 241.003906 621.050781 241.753906 621.847656 C 242.5 622.648438 243.761719 623.460938 244.558594 623.660156 C 246.164062 624.0625 246.425781 624.890625 245.179688 625.621094 C 244.117188 626.242188 242.398438 629.617188 242.398438 631.085938 C 242.398438 632.128906 241.007812 634.234375 237.5625 638.398438 C 236.882812 639.226562 235.886719 640.777344 235.351562 641.851562 C 234.816406 642.921875 234.15625 643.800781 233.890625 643.800781 C 233.621094 643.800781 233.398438 644.140625 233.398438 644.554688 C 233.398438 644.972656 232.859375 645.648438 232.199219 646.058594 C 231.539062 646.472656 231 647.210938 231 647.703125 C 231 648.199219 230.730469 648.601562 230.398438 648.601562 C 230.070312 648.601562 229.800781 649.101562 229.800781 649.71875 C 229.800781 650.332031 228.988281 651.851562 228 653.101562 C 227.011719 654.347656 226.199219 655.6875 226.199219 656.082031 C 226.199219 656.476562 225.390625 657.523438 224.398438 658.40625 C 223.410156 659.289062 222.601562 660.441406 222.601562 660.964844 C 222.601562 661.488281 221.773438 662.691406 220.765625 663.632812 C 217.449219 666.730469 217.679688 669.023438 221.496094 670.898438 C 223.257812 671.765625 226.066406 673.1875 227.734375 674.058594 C 231.699219 676.125 235.199219 676.742188 235.199219 675.378906 C 235.199219 674.136719 234.949219 674.089844 239.605469 676.199219 C 244.804688 678.558594 246.847656 678.578125 247.5625 676.273438 L 248.101562 674.542969 L 251.398438 676.242188 C 253.214844 677.179688 255.644531 678.429688 256.800781 679.023438 C 257.953125 679.617188 259.035156 680.269531 259.199219 680.476562 C 261.484375 683.351562 267.601562 682.855469 267.601562 679.796875 C 267.601562 679.265625 268.144531 678.238281 268.8125 677.523438 C 269.480469 676.808594 270 676.152344 269.96875 676.0625 C 269.941406 675.972656 270.203125 675.140625 270.558594 674.210938 C 270.910156 673.28125 271.199219 672.277344 271.199219 671.972656 C 271.199219 671.675781 271.875 670.984375 272.699219 670.445312 C 273.523438 669.90625 274.199219 669.203125 274.199219 668.890625 C 274.199219 668.574219 274.953125 667.1875 275.867188 665.808594 C 277.589844 663.222656 278.089844 662.210938 279.9375 657.601562 C 281.773438 653.023438 285.636719 650.433594 287.101562 652.800781 C 288.265625 654.683594 293.527344 647.546875 294.847656 642.300781 C 295.054688 641.476562 295.503906 640.800781 295.847656 640.800781 C 296.191406 640.800781 296.316406 640.546875 296.125 640.242188 C 295.292969 638.898438 297.269531 639.019531 299.421875 640.441406 C 301.910156 642.089844 303.289062 642.386719 303.898438 641.398438 C 304.105469 641.070312 304.921875 640.800781 305.71875 640.800781 C 306.714844 640.800781 307.453125 640.25 308.078125 639.042969 C 308.816406 637.613281 309.351562 637.296875 310.945312 637.355469 C 312.019531 637.394531 313.371094 637.210938 313.949219 636.949219 C 315.304688 636.332031 315.425781 638.5 314.101562 639.601562 C 313.089844 640.4375 312.875 642.601562 313.800781 642.601562 C 314.734375 642.601562 314.507812 644.164062 313.449219 645.042969 C 312.59375 645.753906 312.628906 645.886719 313.808594 646.320312 C 315.078125 646.789062 315.109375 647.015625 314.707031 652.125 C 314.371094 656.332031 314.476562 657.804688 315.199219 659.203125 C 315.785156 660.339844 316.203125 663.292969 316.371094 667.53125 C 316.605469 673.378906 316.757812 674.125 317.765625 674.316406 C 319.597656 674.660156 320.398438 675.628906 320.398438 677.492188 C 320.398438 678.601562 320.78125 679.382812 321.449219 679.636719 C 323.382812 680.367188 324 681.496094 324 684.304688 L 324 687.097656 L 328.050781 686.699219 C 330.277344 686.480469 333.71875 686.023438 335.699219 685.679688 C 337.679688 685.339844 340.3125 684.925781 341.550781 684.765625 C 343.855469 684.464844 344.648438 683.089844 342.898438 682.417969 C 341.933594 682.046875 341.59375 678 342.53125 678 C 343.511719 678 343.804688 675.351562 342.878906 674.832031 C 342.394531 674.5625 342 673.8125 342 673.171875 C 342 672.527344 341.777344 672 341.503906 672 C 340.757812 672 341.453125 668.164062 342.289062 667.671875 C 343.277344 667.089844 343.304688 663.835938 342.324219 663.019531 C 341.769531 662.558594 341.671875 661.753906 341.996094 660.3125 C 342.253906 659.183594 342.316406 658.117188 342.144531 657.945312 C 341.972656 657.769531 342.09375 657.285156 342.414062 656.863281 C 342.738281 656.445312 343.332031 654.480469 343.734375 652.5 C 345.265625 644.988281 346.265625 642.472656 347.335938 643.4375 C 348.601562 644.578125 353.261719 646.179688 355.351562 646.191406 C 357.644531 646.203125 357.691406 642.386719 355.449219 638.558594 C 354.121094 636.292969 353.957031 635.488281 354.304688 632.957031 C 354.59375 630.851562 354.507812 630 354.003906 630 C 353.5 630 353.394531 629.007812 353.640625 626.582031 C 354.15625 621.523438 354.667969 619.199219 355.265625 619.199219 C 355.558594 619.199219 355.800781 618.390625 355.800781 617.398438 C 355.800781 616.410156 355.53125 615.601562 355.199219 615.601562 C 354.871094 615.601562 354.601562 615.195312 354.601562 614.699219 C 354.601562 614.203125 354.835938 613.800781 355.125 613.800781 C 355.410156 613.800781 355.816406 612.738281 356.023438 611.441406 C 356.230469 610.144531 356.835938 608.652344 357.367188 608.121094 C 357.941406 607.542969 358.21875 606.558594 358.046875 605.675781 C 357.894531 604.863281 358.011719 604.199219 358.3125 604.199219 C 360.15625 604.199219 361.5 601.402344 361.570312 597.429688 C 361.65625 592.378906 361.339844 592.625 367.144531 593.132812 L 372 593.554688 L 372 595.777344 C 372 597.515625 372.316406 598.167969 373.460938 598.777344 C 375.234375 599.726562 376.796875 598.5625 376.800781 596.292969 C 376.804688 595.527344 377.34375 594.015625 378 592.933594 C 378.660156 591.855469 379.199219 590.621094 379.199219 590.191406 C 379.199219 589.765625 380.347656 588.820312 381.75 588.101562 C 386.644531 585.582031 387.585938 584.40625 388.589844 579.558594 C 389.09375 577.117188 389.753906 574.660156 390.054688 574.097656 C 390.355469 573.539062 390.632812 571.914062 390.671875 570.488281 C 390.738281 567.988281 391.566406 563.675781 391.746094 564.898438 C 391.792969 565.230469 392.519531 564.148438 393.363281 562.5 C 395.433594 558.4375 395.238281 558.523438 399.300781 559.859375 C 407.605469 562.585938 409.800781 563.558594 409.847656 564.523438 C 409.875 565.058594 410.015625 565.210938 410.160156 564.855469 C 410.433594 564.199219 414.050781 564.441406 414.601562 565.152344 C 414.941406 565.59375 419.667969 566.75 423.453125 567.324219 C 424.855469 567.535156 425.851562 567.953125 425.667969 568.253906 C 425.480469 568.554688 425.613281 568.800781 425.964844 568.800781 C 426.3125 568.800781 426.601562 568.53125 426.601562 568.199219 C 426.601562 567.871094 427.53125 567.601562 428.664062 567.601562 C 430.667969 567.601562 430.738281 567.519531 430.914062 565.050781 C 431.058594 563.085938 431.410156 562.363281 432.445312 561.910156 C 433.183594 561.585938 433.722656 561.007812 433.644531 560.625 C 433.566406 560.242188 434.257812 559.222656 435.183594 558.363281 C 437.070312 556.609375 438.222656 553.253906 439.234375 546.601562 C 439.609375 544.125 440.28125 541.289062 440.726562 540.300781 C 441.613281 538.335938 442.761719 533.210938 443.113281 529.648438 C 443.234375 528.410156 443.746094 526.65625 444.25 525.75 C 445.613281 523.289062 447 519.589844 447 518.417969 C 447 517.847656 447.539062 516.761719 448.199219 516 C 448.859375 515.238281 449.398438 514.132812 449.398438 513.542969 C 449.398438 512.953125 449.632812 512.328125 449.917969 512.148438 C 450.203125 511.972656 450.59375 510.875 450.78125 509.710938 C 450.972656 508.542969 451.636719 506.847656 452.257812 505.945312 C 452.878906 505.039062 453.859375 503.019531 454.441406 501.457031 C 455.613281 498.296875 456.375 497.535156 457.371094 498.53125 C 460.382812 501.542969 464.261719 496.4375 461.71875 492.808594 C 460.925781 491.675781 460.957031 491.445312 462.019531 490.484375 C 463.335938 489.289062 463.617188 484.628906 462.632812 480.375 C 462.273438 478.828125 462.316406 477.558594 462.761719 476.582031 C 463.265625 475.480469 463.253906 474.820312 462.710938 473.957031 C 462.21875 473.164062 462.15625 472.078125 462.515625 470.484375 C 462.800781 469.210938 462.816406 466.847656 462.554688 465.234375 C 461.871094 461.082031 461.894531 456.738281 462.601562 456.300781 C 462.929688 456.097656 463.199219 455.40625 463.199219 454.765625 C 463.199219 454.125 463.46875 453.601562 463.800781 453.601562 C 464.128906 453.601562 464.398438 453.1875 464.398438 452.679688 C 464.398438 452.175781 464.789062 451.613281 465.265625 451.429688 C 465.738281 451.25 466.292969 450.335938 466.5 449.398438 C 466.707031 448.464844 467.261719 447.550781 467.734375 447.367188 C 468.210938 447.1875 468.601562 446.597656 468.601562 446.0625 C 468.601562 444.957031 470.175781 441.996094 471.75 440.140625 C 472.328125 439.457031 473.152344 438.476562 473.585938 437.960938 C 474.019531 437.445312 474.28125 436.746094 474.167969 436.402344 C 474.054688 436.058594 474.375 435.4375 474.878906 435.015625 C 475.386719 434.597656 475.800781 433.882812 475.800781 433.425781 C 475.800781 432.972656 476.285156 432.601562 476.878906 432.601562 C 477.472656 432.601562 478.214844 432.351562 478.53125 432.050781 C 478.84375 431.746094 479.640625 431.410156 480.300781 431.300781 C 480.960938 431.191406 481.90625 430.636719 482.398438 430.070312 C 483.601562 428.695312 490.398438 425.398438 492.03125 425.398438 C 493.109375 425.398438 493.425781 422.53125 492.402344 422.054688 C 492.34375 422.03125 491.324219 421.421875 490.128906 420.703125 C 488.933594 419.988281 487.492188 419.398438 486.917969 419.398438 C 486.347656 419.398438 485.03125 419.03125 483.988281 418.578125 C 482.160156 417.78125 476.984375 416.859375 468.300781 415.78125 C 463.085938 415.132812 460.878906 414.609375 460.453125 413.929688 C 460.277344 413.636719 458.269531 413.398438 456 413.398438 C 453.730469 413.398438 451.703125 413.128906 451.5 412.800781 C 451.296875 412.46875 449.59375 412.199219 447.714844 412.195312 C 436.324219 412.183594 435.351562 411.628906 437.769531 406.558594 C 438.226562 405.601562 438.601562 404.445312 438.601562 403.988281 C 438.601562 402.125 441.226562 395.550781 442.855469 393.335938 C 443.816406 392.03125 444.601562 390.601562 444.601562 390.160156 C 444.601562 389.71875 444.980469 388.757812 445.441406 388.027344 C 446.570312 386.25 447.308594 381.601562 446.464844 381.601562 C 446.113281 381.601562 445.359375 382.34375 444.78125 383.25 C 444.207031 384.15625 441.953125 387.089844 439.769531 389.769531 C 437.585938 392.445312 433.660156 397.808594 431.050781 401.683594 L 426.300781 408.730469 L 425.890625 403.714844 C 425.667969 400.957031 425.160156 395.730469 424.765625 392.101562 C 424.007812 385.085938 424.660156 380.890625 428.4375 368.488281 C 429.078125 366.390625 429.601562 364.417969 429.601562 364.105469 C 429.601562 362.9375 424.488281 361.226562 420.960938 361.214844 C 417.617188 361.199219 417.269531 361.054688 414.613281 358.570312 C 411.445312 355.605469 411.023438 355.507812 398.699219 354.878906 C 391.117188 354.488281 359.972656 351.59375 331.199219 348.605469 C 311.621094 346.570312 304.335938 346.417969 299.0625 347.925781 "/>
<path style=" stroke:none;fill-rule:evenodd;fill:rgb(7.843137%,26.666667%,26.666667%);fill-opacity:1;" d="M 250.078125 79.9375 C 247.152344 83.082031 245.746094 83.558594 242.339844 82.570312 C 240.53125 82.042969 239.277344 84.117188 239.464844 87.320312 C 239.578125 89.261719 237.582031 94.683594 235.847656 97.152344 C 235.246094 98.003906 234.5625 99.324219 234.328125 100.082031 C 233.144531 103.890625 227.4375 108.601562 224.003906 108.601562 C 220.652344 108.601562 217.222656 109.691406 215.660156 111.253906 C 215.164062 111.75 213.757812 112.320312 212.53125 112.523438 C 211.304688 112.726562 209.894531 113.050781 209.398438 113.238281 C 208.90625 113.429688 207.285156 113.683594 205.800781 113.800781 C 202.289062 114.085938 201.628906 115.070312 201.472656 120.265625 C 201.402344 122.59375 201.308594 125.632812 201.265625 127.019531 C 201.214844 128.761719 200.679688 130.207031 199.539062 131.703125 C 198.109375 133.574219 197.929688 134.257812 198.214844 136.6875 C 198.71875 141.011719 198.785156 143.613281 198.40625 144.601562 C 197.632812 146.636719 196.863281 150.214844 197.113281 150.621094 C 197.261719 150.859375 196.75 151.695312 195.980469 152.476562 C 195.207031 153.257812 194.257812 154.507812 193.867188 155.25 C 193.410156 156.117188 192.605469 156.601562 191.613281 156.601562 C 190.375 156.601562 190.160156 156.804688 190.523438 157.648438 C 190.769531 158.226562 190.992188 159.152344 191.015625 159.707031 C 191.039062 160.257812 191.269531 160.582031 191.527344 160.421875 C 192.722656 159.683594 191.820312 162.957031 190.289062 164.914062 C 187.324219 168.703125 184.199219 173.363281 184.199219 173.992188 C 184.199219 174.328125 183.964844 174.601562 183.671875 174.601562 C 182.617188 174.601562 180.800781 181.007812 179.425781 189.601562 C 179.132812 191.414062 178.46875 194.082031 177.949219 195.523438 C 176.445312 199.691406 178.425781 203.308594 183.21875 205.148438 C 185.96875 206.203125 187.328125 213.386719 186.636719 223.230469 L 186.007812 232.15625 L 188.207031 236.726562 C 190.15625 240.777344 190.332031 241.507812 189.75 243.195312 C 188.539062 246.714844 188.25 250.035156 189.109375 250.578125 C 190.367188 251.371094 197.511719 250.941406 199.945312 249.925781 C 202.660156 248.792969 208.238281 249.421875 212.398438 251.335938 C 213.886719 252.015625 215.597656 252.578125 216.207031 252.585938 C 216.816406 252.59375 219.183594 253.167969 221.46875 253.863281 C 225.25 255.011719 225.746094 255.042969 227.023438 254.203125 C 227.792969 253.699219 229.449219 253.09375 230.703125 252.859375 L 232.980469 252.433594 L 232.570312 255.066406 C 230.25 269.953125 230.140625 271.453125 231.273438 272.589844 C 232.777344 274.089844 231.527344 287.523438 229.234375 294.476562 C 227.054688 301.105469 227.117188 300.386719 228.679688 300.796875 C 229.679688 301.054688 229.875 301.429688 229.574219 302.515625 C 229.21875 303.800781 228.371094 309.457031 227.640625 315.4375 C 227.351562 317.792969 227.15625 318.023438 224.90625 318.699219 C 223.570312 319.097656 222.078125 320.039062 221.585938 320.789062 C 221.09375 321.539062 220.175781 322.316406 219.546875 322.515625 C 218.878906 322.726562 218.398438 323.429688 218.398438 324.191406 C 218.398438 324.910156 217.859375 326.917969 217.203125 328.648438 C 216.542969 330.382812 216.070312 331.839844 216.152344 331.890625 C 216.234375 331.9375 218.0625 332.03125 220.214844 332.097656 C 222.367188 332.164062 225.160156 332.558594 226.425781 332.976562 C 228.503906 333.660156 228.886719 333.613281 230.4375 332.46875 C 231.378906 331.769531 232.289062 331.199219 232.453125 331.199219 C 233.203125 331.199219 237 335.011719 237 335.761719 C 237 336.652344 237.515625 336.792969 240.148438 336.617188 C 241.683594 336.515625 241.800781 336.671875 241.800781 338.824219 C 241.800781 341.378906 241.886719 341.425781 250.199219 343.246094 C 252.015625 343.648438 255.640625 344.609375 258.253906 345.386719 C 260.871094 346.164062 263.101562 346.800781 263.210938 346.800781 C 263.324219 346.800781 264.363281 345.316406 265.527344 343.5 C 267.6875 340.117188 269.1875 339.398438 270.574219 341.070312 C 270.972656 341.546875 272.289062 342.257812 273.496094 342.648438 C 278.382812 344.21875 285.601562 349.242188 285.601562 351.070312 C 285.601562 352.816406 286.398438 352.8125 290.136719 351.035156 C 299.410156 346.621094 305.675781 345.734375 318.300781 347.042969 C 338.445312 349.132812 387.5 353.503906 399.199219 354.246094 L 411.699219 355.042969 L 414.5 357.75 C 417.171875 360.332031 417.496094 360.46875 421.605469 360.789062 C 429.113281 361.371094 430.609375 362.761719 428.953125 367.609375 C 425.6875 377.179688 424.679688 384.703125 425.367188 394.371094 C 425.726562 399.390625 426.085938 404.445312 426.160156 405.601562 C 426.296875 407.640625 426.441406 407.488281 431.277344 400.324219 C 434.015625 396.265625 437.550781 391.523438 439.128906 389.78125 C 440.707031 388.039062 442.863281 385.351562 443.925781 383.804688 C 445.75 381.15625 447 380.257812 447 381.601562 C 447 381.929688 447.203125 382.15625 447.449219 382.101562 C 448.386719 381.898438 451.550781 383.023438 452.84375 384.023438 C 453.582031 384.59375 455.46875 385.253906 457.035156 385.488281 C 458.601562 385.722656 460.636719 386.304688 461.550781 386.777344 C 462.542969 387.289062 464.730469 387.609375 466.960938 387.5625 C 469.136719 387.515625 471.578125 387.859375 472.800781 388.382812 C 474.171875 388.976562 475.886719 389.175781 477.75 388.964844 C 480.246094 388.683594 480.601562 388.785156 480.625 389.773438 C 480.640625 390.554688 480.996094 390.257812 481.785156 388.800781 C 482.410156 387.644531 482.800781 386.160156 482.652344 385.5 C 482.207031 383.476562 483.277344 382.425781 484.910156 383.28125 C 488.308594 385.058594 495.867188 385.355469 496.941406 383.757812 C 497.242188 383.304688 497.386719 383.335938 497.390625 383.851562 C 497.410156 385.53125 504.527344 384.792969 504.964844 383.0625 C 505.519531 380.851562 504.0625 374.695312 502.617188 373.144531 C 501.046875 371.457031 498.601562 364.757812 498.601562 362.148438 C 498.601562 359.269531 497.941406 356.398438 497.28125 356.398438 C 496.566406 356.398438 495.515625 355.351562 494.179688 353.308594 C 493.058594 351.59375 493.070312 350.949219 494.507812 334.71875 C 495.097656 328.078125 495.058594 326.757812 494.191406 324.105469 C 492.886719 320.109375 492.9375 319.28125 494.550781 318.59375 C 495.292969 318.277344 496.890625 317.410156 498.101562 316.660156 C 499.316406 315.910156 502.285156 314.132812 504.703125 312.703125 C 508.285156 310.585938 509.539062 309.421875 511.484375 306.402344 C 512.792969 304.367188 514.414062 302.117188 515.082031 301.40625 C 517.121094 299.238281 517.667969 298.429688 517.894531 297.246094 C 518.015625 296.621094 518.855469 295.753906 519.757812 295.320312 C 520.695312 294.871094 521.398438 294.046875 521.398438 293.390625 C 521.398438 292.058594 525.757812 287.398438 527.003906 287.398438 C 528.105469 287.398438 533.304688 281.085938 533.789062 279.15625 C 534.070312 278.03125 533.796875 277.363281 532.648438 276.386719 C 530.476562 274.539062 530.300781 272.832031 531.929688 269.449219 C 532.714844 267.828125 533.902344 264.925781 534.570312 263 C 535.273438 260.972656 536.546875 258.808594 537.59375 257.859375 C 538.667969 256.882812 539.398438 255.617188 539.398438 254.742188 C 539.398438 252.699219 540.4375 252.265625 541.675781 253.792969 C 542.566406 254.898438 542.953125 254.988281 544.410156 254.433594 C 545.339844 254.082031 546.34375 253.941406 546.636719 254.125 C 547.175781 254.457031 550.460938 253.472656 554.398438 251.796875 C 556.054688 251.09375 556.871094 250.125 558.246094 247.214844 C 559.234375 245.132812 561 242.667969 562.296875 241.554688 C 564.675781 239.519531 565.242188 237.808594 563.734375 237.230469 C 563.257812 237.046875 562.300781 235.808594 561.609375 234.480469 C 560.914062 233.148438 559.9375 231.652344 559.433594 231.148438 C 558.402344 230.113281 558.652344 229.769531 561.601562 228.210938 C 567.652344 225.015625 569.691406 222.289062 567.601562 220.199219 C 566.941406 219.539062 566.398438 218.78125 566.398438 218.515625 C 566.398438 218.246094 565.648438 217.234375 564.730469 216.265625 C 563.8125 215.292969 562.734375 213.824219 562.335938 213 C 561.472656 211.222656 560.242188 209.21875 559.746094 208.800781 C 559.296875 208.414062 556.914062 204.21875 554.230469 199.082031 C 552.316406 195.425781 552.21875 194.996094 553.117188 194.277344 C 555.394531 192.453125 562.820312 189.460938 565.050781 189.46875 C 565.792969 189.472656 566.398438 189.230469 566.398438 188.9375 C 566.398438 188.640625 566.828125 188.398438 567.351562 188.398438 C 567.875 188.398438 568.589844 187.640625 568.941406 186.710938 C 569.292969 185.785156 570.484375 184.433594 571.589844 183.707031 C 574.292969 181.933594 574.171875 181.398438 570.019531 176.867188 C 568.050781 174.71875 566.5 172.855469 566.570312 172.730469 C 566.640625 172.601562 566.59375 172.558594 566.464844 172.632812 C 565.582031 173.140625 562.648438 170.335938 561.757812 168.132812 C 560.742188 165.617188 560.617188 165.527344 558.601562 165.839844 C 556.726562 166.128906 556.382812 165.964844 555.433594 164.300781 L 554.363281 162.441406 L 556.480469 159.722656 C 557.648438 158.226562 558.601562 156.785156 558.601562 156.515625 C 558.601562 156.25 559.410156 155.613281 560.398438 155.101562 C 562.34375 154.09375 562.890625 151.53125 561.464844 150.105469 C 560.882812 149.523438 560.882812 149.121094 561.464844 148.191406 C 561.871094 147.546875 562.199219 146.335938 562.199219 145.507812 C 562.199219 144.402344 562.519531 144 563.398438 144 C 564.058594 144 564.601562 143.78125 564.601562 143.515625 C 564.601562 143.246094 566.765625 142.113281 569.417969 140.992188 C 572.070312 139.871094 574.800781 138.429688 575.492188 137.785156 C 576.601562 136.753906 576.992188 136.699219 578.773438 137.34375 C 580.910156 138.117188 582 137.84375 582 136.535156 C 582 136.097656 582.945312 135.019531 584.101562 134.140625 C 586.019531 132.675781 586.199219 132.273438 586.199219 129.460938 C 586.199219 124.363281 583.96875 120.300781 582.816406 123.300781 C 581.617188 126.429688 570.65625 120.414062 567.855469 115.085938 C 566.898438 113.265625 565.597656 106.007812 565.539062 102.148438 C 565.519531 100.746094 565.320312 99.601562 565.101562 99.601562 C 564.882812 99.601562 564.523438 98.519531 564.300781 97.199219 C 564.078125 95.878906 563.671875 94.800781 563.398438 94.800781 C 563.121094 94.800781 562.945312 93.273438 563 91.40625 L 563.101562 88.011719 L 560.292969 87.824219 C 558.253906 87.6875 557.113281 87.9375 556.117188 88.746094 C 555.089844 89.578125 554.5 89.699219 553.753906 89.230469 C 552.539062 88.472656 547.246094 90.058594 544.53125 91.992188 C 543.542969 92.695312 542.460938 93.332031 542.121094 93.410156 C 541.777344 93.488281 540.421875 93.828125 539.101562 94.164062 C 535.410156 95.097656 532.621094 94.921875 528.945312 93.515625 C 525.746094 92.289062 525.53125 92.277344 524.429688 93.273438 C 523.796875 93.84375 522.519531 94.40625 521.589844 94.519531 C 520.660156 94.632812 519.152344 94.910156 518.242188 95.132812 C 516.808594 95.488281 516.632812 95.390625 516.949219 94.421875 C 517.210938 93.609375 517.15625 93.519531 516.742188 94.09375 C 516.277344 94.746094 515.757812 94.714844 513.847656 93.917969 C 512.449219 93.332031 511.4375 93.183594 511.320312 93.542969 C 511.015625 94.449219 508.371094 93.046875 507.292969 91.40625 C 505.484375 88.640625 502.160156 91.925781 500.539062 98.085938 C 500.109375 99.726562 499.226562 101.632812 498.578125 102.324219 C 497.929688 103.011719 497.390625 103.964844 497.378906 104.4375 C 497.355469 105.570312 495.886719 107.488281 495.410156 107.011719 C 493.398438 105 492 106.367188 492 110.34375 C 492 115.152344 490.527344 120.558594 488.90625 121.691406 C 488.074219 122.277344 487.917969 122.71875 488.355469 123.25 C 488.757812 123.730469 488.765625 124.191406 488.382812 124.578125 C 488.058594 124.902344 487.675781 127.039062 487.53125 129.332031 C 487.113281 136.019531 486.59375 136.984375 479.570312 144.230469 C 472.308594 151.714844 470.347656 155.003906 469.746094 160.699219 C 469.527344 162.785156 469.101562 164.738281 468.800781 165.039062 C 468.058594 165.78125 459.851562 164.289062 457.199219 162.933594 C 453.835938 161.210938 447.929688 157.617188 447.550781 157.0625 C 447.355469 156.78125 445.46875 156.613281 443.347656 156.6875 C 441.234375 156.761719 438.910156 156.5 438.1875 156.109375 C 436.261719 155.066406 434.785156 155.242188 433.925781 156.621094 C 433.507812 157.292969 432.46875 158.109375 431.617188 158.429688 C 430.414062 158.886719 430.148438 159.316406 430.40625 160.359375 C 430.679688 161.480469 430.226562 161.996094 427.644531 163.5 C 419.613281 168.175781 415.476562 174.742188 417.730469 179.25 C 418.300781 180.394531 418.179688 180.851562 416.953125 182.183594 C 415.957031 183.265625 415.734375 183.847656 416.25 184.03125 C 417.523438 184.488281 417.109375 186.867188 415.648438 187.507812 C 414.53125 188 414.335938 188.488281 414.5 190.378906 C 414.609375 191.632812 414.386719 193.03125 414.007812 193.492188 C 413.480469 194.125 413.515625 195.105469 414.140625 197.566406 C 414.703125 199.777344 414.777344 201.101562 414.367188 201.75 C 413.621094 202.9375 414.847656 204.601562 416.472656 204.601562 C 417.9375 204.601562 417.996094 207.125 416.566406 208.792969 C 415.191406 210.398438 414.828125 210.320312 414.113281 208.265625 C 413.78125 207.3125 412.675781 206.039062 411.65625 205.4375 C 410.320312 204.648438 409.710938 203.757812 409.460938 202.222656 C 409.269531 201.054688 408.839844 199.535156 408.507812 198.847656 C 408.175781 198.160156 407.960938 197.214844 408.03125 196.746094 C 408.554688 193.34375 405.265625 190 402.742188 191.363281 C 401.394531 192.09375 398.320312 192.832031 397.324219 192.664062 C 393.429688 192.011719 379.546875 196.363281 380 198.097656 C 380.148438 198.671875 379.96875 199.242188 379.597656 199.367188 C 378.738281 199.65625 375.601562 198.484375 375.601562 197.875 C 375.601562 197.621094 374.535156 197.242188 373.230469 197.035156 C 370.542969 196.605469 367.632812 193.84375 367.292969 191.398438 C 367.175781 190.574219 366.753906 189.089844 366.347656 188.101562 C 365.9375 187.082031 365.804688 185.648438 366.050781 184.800781 C 366.335938 183.804688 366.5 183.660156 366.539062 184.371094 C 366.628906 185.914062 368.074219 186.242188 369.8125 185.101562 C 371.171875 184.210938 371.816406 181.800781 370.691406 181.800781 C 369.996094 181.800781 370.839844 179.855469 372.1875 178.355469 C 373.21875 177.210938 373.292969 176.78125 372.691406 175.460938 C 372.304688 174.609375 372.125 173.683594 372.296875 173.40625 C 372.46875 173.128906 372.269531 172.757812 371.851562 172.585938 C 371.3125 172.359375 371.394531 172.082031 372.148438 171.605469 C 372.726562 171.238281 373.199219 170.597656 373.199219 170.183594 C 373.199219 169.074219 376.488281 166.828125 378.742188 166.402344 C 383.390625 165.523438 383.996094 163.039062 379.734375 162.359375 C 377.691406 162.03125 377.445312 161.832031 377.941406 160.90625 C 378.890625 159.136719 371.613281 154.210938 368.03125 154.203125 C 367.332031 154.203125 366.117188 153.699219 365.332031 153.082031 C 364.542969 152.46875 362.765625 151.390625 361.382812 150.6875 C 359.996094 149.984375 358.613281 148.960938 358.304688 148.410156 C 357.488281 146.949219 341.011719 141.472656 329.851562 138.949219 C 328.378906 138.617188 328.199219 138.308594 328.199219 136.128906 L 328.199219 133.679688 L 325.433594 133.898438 L 322.664062 134.121094 L 317.933594 129.121094 C 313.453125 124.390625 312.378906 122.378906 313.84375 121.472656 C 314.820312 120.867188 313.886719 116.257812 312.554688 115.105469 C 311.738281 114.402344 311.398438 113.328125 311.398438 111.453125 C 311.398438 109.316406 311.136719 108.664062 310.046875 108.078125 C 308.832031 107.425781 306.597656 104.335938 306.671875 103.40625 C 306.6875 103.203125 306.464844 102.867188 306.171875 102.667969 C 305.878906 102.464844 304.910156 100.738281 304.019531 98.832031 C 302.347656 95.25 301.023438 94.136719 299.839844 95.320312 C 299.464844 95.695312 298.945312 96 298.679688 96 C 297.851562 96 298.15625 94.664062 299.148438 93.9375 C 300.097656 93.246094 298.785156 88.894531 297.449219 88.300781 C 297.203125 88.191406 297 87.71875 297 87.25 C 297 86.082031 294.820312 84 293.597656 84 C 293.050781 84 292.757812 84.15625 292.949219 84.351562 C 293.144531 84.542969 292.921875 85.152344 292.460938 85.699219 C 292 86.25 291.253906 87.210938 290.804688 87.835938 C 290.023438 88.921875 289.882812 88.875 287.644531 86.746094 C 285.53125 84.738281 285.066406 84.550781 282.96875 84.878906 C 281.367188 85.125 280.335938 84.972656 279.667969 84.382812 C 279.136719 83.910156 278.171875 83.425781 277.527344 83.308594 C 276.878906 83.191406 276.207031 82.503906 276.027344 81.785156 C 275.109375 78.113281 270.761719 76.125 268.53125 78.355469 C 266.851562 80.03125 256.476562 79.859375 255.265625 78.136719 C 253.953125 76.257812 253.28125 76.492188 250.078125 79.9375 "/>
<path style=" stroke:none;fill-rule:evenodd;fill:rgb(39.215686%,48.627451%,29.803922%);fill-opacity:1;" d="M 307.351562 346.628906 C 308.257812 346.765625 309.742188 346.765625 310.648438 346.628906 C 311.558594 346.492188 310.816406 346.378906 309 346.378906 C 307.183594 346.378906 306.441406 346.492188 307.351562 346.628906 M 290.25 351.039062 C 289.011719 351.695312 288 352.363281 288 352.527344 C 288 352.691406 289.078125 352.273438 290.398438 351.601562 C 291.71875 350.925781 292.800781 350.246094 292.800781 350.089844 C 292.800781 349.695312 292.796875 349.695312 290.25 351.039062 M 351.757812 350.832031 C 352.671875 350.96875 354.019531 350.964844 354.757812 350.824219 C 355.496094 350.679688 354.75 350.566406 353.101562 350.570312 C 351.449219 350.574219 350.84375 350.691406 351.757812 350.832031 M 358.359375 351.429688 C 359.269531 351.570312 360.621094 351.566406 361.359375 351.421875 C 362.09375 351.28125 361.351562 351.167969 359.699219 351.171875 C 358.050781 351.175781 357.445312 351.292969 358.359375 351.429688 M 364.351562 352.03125 C 365.257812 352.167969 366.742188 352.167969 367.648438 352.03125 C 368.558594 351.890625 367.816406 351.78125 366 351.78125 C 364.183594 351.78125 363.441406 351.890625 364.351562 352.03125 M 370.957031 352.628906 C 371.871094 352.769531 373.222656 352.765625 373.957031 352.621094 C 374.695312 352.480469 373.949219 352.367188 372.300781 352.371094 C 370.648438 352.375 370.046875 352.492188 370.957031 352.628906 M 377.558594 353.230469 C 378.472656 353.367188 379.820312 353.367188 380.558594 353.222656 C 381.296875 353.082031 380.550781 352.964844 378.898438 352.972656 C 377.25 352.976562 376.644531 353.09375 377.558594 353.230469 M 383.851562 353.824219 C 384.59375 353.96875 385.808594 353.96875 386.550781 353.824219 C 387.292969 353.679688 386.683594 353.5625 385.199219 353.5625 C 383.714844 353.5625 383.109375 353.679688 383.851562 353.824219 M 390.460938 354.433594 C 391.539062 354.570312 393.160156 354.566406 394.058594 354.429688 C 394.960938 354.292969 394.078125 354.183594 392.101562 354.1875 C 390.121094 354.1875 389.382812 354.300781 390.460938 354.433594 M 399.757812 355.03125 C 400.671875 355.167969 402.019531 355.164062 402.757812 355.023438 C 403.496094 354.878906 402.75 354.765625 401.101562 354.769531 C 399.449219 354.777344 398.84375 354.890625 399.757812 355.03125 M 419.550781 361.015625 C 420.128906 361.164062 421.074219 361.164062 421.648438 361.015625 C 422.226562 360.863281 421.753906 360.738281 420.601562 360.738281 C 419.445312 360.738281 418.972656 360.863281 419.550781 361.015625 M 424.386719 386.699219 C 424.390625 388.679688 424.5 389.417969 424.636719 388.339844 C 424.769531 387.261719 424.765625 385.640625 424.628906 384.738281 C 424.492188 383.839844 424.382812 384.71875 424.386719 386.699219 M 424.941406 393 C 424.941406 394.15625 425.0625 394.628906 425.214844 394.050781 C 425.363281 393.472656 425.363281 392.527344 425.214844 391.949219 C 425.0625 391.371094 424.941406 391.84375 424.941406 393 M 434.398438 396 C 433.695312 396.988281 433.253906 397.800781 433.417969 397.800781 C 433.585938 397.800781 434.296875 396.988281 435 396 C 435.703125 395.011719 436.144531 394.199219 435.980469 394.199219 C 435.816406 394.199219 435.105469 395.011719 434.398438 396 "/>
<path style=" stroke:none;fill-rule:evenodd;fill:rgb(48.627451%,39.215686%,54.901961%);fill-opacity:1;" d="M 195.75 251.214844 C 196.328125 251.363281 197.273438 251.363281 197.851562 251.214844 C 198.425781 251.0625 197.953125 250.941406 196.800781 250.941406 C 195.644531 250.941406 195.171875 251.0625 195.75 251.214844 M 181.417969 255.128906 C 181.015625 255.78125 182.507812 255.703125 183.59375 255.019531 C 184.289062 254.578125 184.179688 254.476562 183.097656 254.558594 C 182.335938 254.613281 181.578125 254.871094 181.417969 255.128906 M 177.171875 258.214844 C 177.242188 258.589844 176.960938 258.832031 176.550781 258.75 C 176.136719 258.667969 175.800781 258.871094 175.800781 259.199219 C 175.800781 259.53125 176.203125 259.800781 176.699219 259.800781 C 177.195312 259.800781 177.601562 259.519531 177.601562 259.171875 C 177.601562 258.828125 178.042969 258.628906 178.589844 258.722656 C 179.132812 258.820312 179.671875 258.628906 179.785156 258.300781 C 179.902344 257.96875 179.335938 257.660156 178.519531 257.613281 C 177.699219 257.566406 177.101562 257.835938 177.171875 258.214844 M 155.070312 263.949219 C 155.253906 264.25 155.070312 264.632812 154.652344 264.800781 C 154.199219 264.984375 154.316406 265.125 154.949219 265.152344 C 155.527344 265.179688 156 264.796875 156 264.300781 C 156 263.804688 155.714844 263.398438 155.363281 263.398438 C 155.015625 263.398438 154.882812 263.648438 155.070312 263.949219 M 110.398438 279.71875 C 110.398438 279.984375 111.683594 280.203125 113.25 280.207031 C 114.816406 280.210938 116.773438 280.386719 117.601562 280.597656 C 118.425781 280.804688 118.910156 280.769531 118.675781 280.511719 C 118.082031 279.867188 110.398438 279.128906 110.398438 279.71875 M 78.601562 295.699219 C 78.601562 296.085938 77.992188 296.40625 77.25 296.410156 C 76.507812 296.414062 75.496094 296.679688 75 297 C 74.328125 297.433594 74.652344 297.582031 76.285156 297.589844 C 78.304688 297.601562 79.855469 296.253906 78.914062 295.3125 C 78.742188 295.140625 78.601562 295.316406 78.601562 295.699219 M 58.601562 298.601562 C 58.378906 298.820312 58.203125 299.292969 58.210938 299.652344 C 58.214844 300.070312 58.375 300.054688 58.664062 299.597656 C 58.910156 299.210938 60.050781 298.785156 61.203125 298.644531 L 63.300781 298.390625 L 61.152344 298.296875 C 59.96875 298.242188 58.820312 298.378906 58.601562 298.601562 M 228.140625 307.199219 C 228.140625 308.355469 228.261719 308.828125 228.414062 308.25 C 228.5625 307.671875 228.5625 306.726562 228.414062 306.148438 C 228.261719 305.574219 228.140625 306.046875 228.140625 307.199219 M 227.550781 311.699219 C 227.558594 313.019531 227.679688 313.488281 227.824219 312.742188 C 227.96875 311.996094 227.960938 310.917969 227.8125 310.34375 C 227.664062 309.769531 227.542969 310.378906 227.550781 311.699219 M 52.285156 326.945312 C 51.683594 327.320312 51.652344 327.5625 52.175781 327.886719 C 53 328.394531 53.617188 327.945312 53.3125 327.058594 C 53.1875 326.695312 52.765625 326.648438 52.285156 326.945312 M 240.402344 337.007812 C 240.789062 337.285156 241.226562 338.453125 241.378906 339.605469 C 241.640625 341.613281 241.648438 341.601562 241.578125 339.347656 C 241.527344 337.808594 241.1875 336.910156 240.601562 336.75 C 239.988281 336.585938 239.921875 336.667969 240.402344 337.007812 M 46.800781 350.949219 C 46.800781 351.253906 46.636719 351.929688 46.433594 352.457031 C 46.164062 353.15625 46.324219 353.316406 47.03125 353.042969 C 48.078125 352.640625 48.386719 350.398438 47.398438 350.398438 C 47.070312 350.398438 46.800781 350.648438 46.800781 350.949219 M 85.648438 534.921875 C 84.476562 536.488281 84.292969 537.601562 85.199219 537.601562 C 85.53125 537.601562 85.800781 537.113281 85.800781 536.519531 C 85.800781 535.925781 86.121094 535.121094 86.507812 534.730469 C 86.902344 534.339844 87.101562 533.90625 86.960938 533.769531 C 86.816406 533.632812 86.226562 534.148438 85.648438 534.921875 M 83.398438 545.398438 C 83.398438 545.730469 84.480469 546 85.800781 546 C 87.121094 546 88.199219 545.730469 88.199219 545.398438 C 88.199219 545.070312 87.121094 544.800781 85.800781 544.800781 C 84.480469 544.800781 83.398438 545.070312 83.398438 545.398438 M 88.800781 545.398438 C 88.800781 545.730469 90.261719 546 92.050781 546 C 93.839844 546 95.796875 546.1875 96.402344 546.414062 C 97.367188 546.777344 97.402344 546.703125 96.675781 545.8125 C 95.753906 544.679688 88.800781 544.316406 88.800781 545.398438 M 98.550781 554.699219 C 98.558594 556.019531 98.679688 556.488281 98.824219 555.742188 C 98.96875 554.996094 98.960938 553.917969 98.8125 553.34375 C 98.664062 552.769531 98.542969 553.378906 98.550781 554.699219 M 115.210938 583.050781 C 115.203125 584.054688 115.546875 584.398438 116.550781 584.390625 C 117.542969 584.382812 117.683594 584.242188 117.078125 583.863281 C 116.628906 583.574219 116.023438 582.972656 115.738281 582.519531 C 115.355469 581.914062 115.214844 582.054688 115.210938 583.050781 M 216.757812 604.015625 C 217.339844 604.167969 217.660156 604.539062 217.472656 604.84375 C 216.929688 605.71875 217.792969 605.492188 218.785156 604.5 C 219.585938 603.699219 219.464844 603.609375 217.695312 603.667969 C 216.597656 603.707031 216.175781 603.863281 216.757812 604.015625 M 142.800781 606.832031 C 142.800781 607.0625 143.339844 607.828125 144 608.539062 C 144.660156 609.246094 145.199219 609.546875 145.199219 609.207031 C 145.199219 608.863281 144.660156 608.097656 144 607.5 C 143.339844 606.902344 142.800781 606.601562 142.800781 606.832031 M 191.765625 608.148438 C 191.269531 609.441406 191.300781 609.601562 192.035156 609.601562 C 192.386719 609.601562 192.503906 609.328125 192.300781 609 C 192.097656 608.671875 192.367188 608.398438 192.898438 608.398438 C 193.433594 608.398438 193.703125 608.128906 193.5 607.800781 C 192.953125 606.914062 192.179688 607.070312 191.765625 608.148438 M 186.601562 609.601562 C 186.976562 610.300781 187.796875 610.765625 188.570312 610.71875 L 189.898438 610.636719 L 188.550781 610.378906 C 187.808594 610.234375 187.199219 609.730469 187.199219 609.257812 C 187.199219 608.785156 186.921875 608.398438 186.578125 608.398438 C 186.15625 608.398438 186.164062 608.785156 186.601562 609.601562 "/>
<path style=" stroke:none;fill-rule:evenodd;fill:rgb(23.529412%,36.078431%,29.803922%);fill-opacity:1;" d="M 396.75 354.414062 C 397.328125 354.5625 398.273438 354.5625 398.851562 354.414062 C 399.425781 354.261719 398.953125 354.140625 397.800781 354.140625 C 396.644531 354.140625 396.171875 354.261719 396.75 354.414062 M 405.757812 355.03125 C 406.671875 355.167969 408.019531 355.164062 408.757812 355.023438 C 409.496094 354.878906 408.75 354.765625 407.101562 354.769531 C 405.449219 354.777344 404.84375 354.890625 405.757812 355.03125 M 411.050781 355.351562 C 411.1875 355.433594 412.109375 356.175781 413.101562 357 L 414.898438 358.5 L 413.445312 356.851562 C 412.644531 355.941406 411.722656 355.199219 411.394531 355.199219 C 411.066406 355.199219 410.914062 355.265625 411.050781 355.351562 "/>
</g>
</svg>
