<?xml version="1.0" encoding="UTF-8"?>
<svg xmlns="http://www.w3.org/2000/svg" xmlns:xlink="http://www.w3.org/1999/xlink" width="500px" height="713px" viewBox="0 0 500 712" version="1.1">
<g id="surface1">
<path style=" stroke:none;fill-rule:evenodd;fill:rgb(89.019608%,54.901961%,79.607843%);fill-opacity:1;" d="M 166.5 208.554688 C 164.78125 209.464844 160.390625 209.894531 158.472656 209.34375 C 157.070312 208.941406 156.710938 209.066406 155.390625 210.386719 C 154.566406 211.207031 153.296875 212.195312 152.574219 212.578125 C 151.84375 212.960938 150.828125 213.847656 150.3125 214.550781 C 149.796875 215.253906 149.152344 215.691406 148.882812 215.523438 C 148.609375 215.359375 148.246094 215.433594 148.070312 215.695312 C 147.585938 216.40625 143.65625 217.847656 142.1875 217.847656 C 141.476562 217.847656 139.0625 218.390625 136.824219 219.054688 C 134.582031 219.71875 130.121094 220.644531 126.910156 221.113281 L 121.070312 221.960938 L 119.410156 224.027344 C 118.496094 225.160156 117.75 226.222656 117.75 226.382812 C 117.75 226.90625 114.601562 230.273438 114.347656 230.019531 C 114.210938 229.882812 114.128906 230.070312 114.160156 230.429688 C 114.230469 231.199219 112.425781 235.007812 111.871094 235.253906 C 111.664062 235.34375 111.621094 235.625 111.777344 235.875 C 111.929688 236.128906 111.820312 236.335938 111.53125 236.335938 C 111.238281 236.335938 111 236.671875 111 237.082031 C 111 238.042969 110.28125 238.042969 109.324219 237.085938 C 108.910156 236.671875 108.21875 236.472656 107.789062 236.640625 C 107.273438 236.835938 107 236.664062 107 236.136719 C 107 235.695312 106.71875 235.390625 106.375 235.460938 C 106.03125 235.527344 105.800781 235.320312 105.863281 234.996094 C 105.941406 234.589844 105.277344 234.476562 103.703125 234.628906 C 102.394531 234.757812 100.484375 234.53125 99.199219 234.09375 C 97.96875 233.675781 95.847656 233.335938 94.484375 233.335938 C 92.832031 233.335938 91.996094 233.125 91.992188 232.710938 C 91.988281 232.324219 91.84375 232.277344 91.617188 232.585938 C 91.414062 232.863281 90.050781 233.128906 88.585938 233.179688 C 85.019531 233.300781 83.328125 234.40625 83.75 236.339844 C 84.066406 237.769531 81.976562 238.933594 79 238.980469 C 78.585938 238.988281 77.554688 239.382812 76.707031 239.859375 C 75.792969 240.371094 74.605469 240.617188 73.800781 240.464844 C 72.71875 240.257812 72.382812 240.417969 72.167969 241.25 C 71.996094 241.894531 70.949219 242.722656 69.445312 243.402344 C 67.777344 244.15625 67 244.804688 67 245.445312 C 67 245.964844 66.792969 246.257812 66.535156 246.101562 C 66.28125 245.941406 65.929688 246.265625 65.753906 246.820312 C 65.503906 247.605469 65 247.824219 63.464844 247.824219 C 62.386719 247.824219 61.5 248.066406 61.5 248.363281 C 61.5 249.066406 60.199219 250.355469 59.84375 250 C 59.554688 249.714844 58.027344 249.511719 52.421875 249.03125 C 49.488281 248.777344 49.058594 248.851562 48.804688 249.660156 C 48.378906 251 47.460938 255.449219 47.425781 256.320312 C 47.414062 256.730469 47.171875 257.96875 46.894531 259.066406 C 46.621094 260.167969 46.296875 261.855469 46.179688 262.816406 C 46.0625 263.777344 45.515625 266.699219 44.96875 269.3125 C 44.417969 271.921875 43.65625 275.902344 43.277344 278.160156 C 42.894531 280.417969 42.457031 282.46875 42.300781 282.71875 C 42.148438 282.964844 41.875 284.378906 41.699219 285.859375 C 41.519531 287.339844 41.144531 288.695312 40.863281 288.871094 C 40.582031 289.050781 40.496094 289.5625 40.667969 290.015625 C 40.84375 290.46875 40.707031 290.9375 40.367188 291.070312 C 39.996094 291.214844 39.734375 292.347656 39.707031 293.925781 C 39.683594 295.367188 39.425781 296.996094 39.132812 297.542969 C 38.839844 298.09375 38.4375 299.890625 38.234375 301.539062 C 38.03125 303.1875 37.65625 305.097656 37.394531 305.785156 C 37.136719 306.472656 36.804688 308.609375 36.660156 310.53125 C 36.515625 312.457031 36.167969 314.308594 35.890625 314.652344 C 35.609375 314.992188 35.496094 315.875 35.640625 316.613281 C 35.816406 317.53125 35.496094 318.558594 34.632812 319.863281 C 33.652344 321.34375 33.5 321.921875 33.945312 322.457031 C 34.398438 323.003906 34.308594 323.207031 33.511719 323.414062 C 32.933594 323.566406 32.5 324.097656 32.5 324.648438 C 32.5 325.671875 30.867188 327.472656 30.378906 326.984375 C 30.222656 326.824219 29.929688 327.21875 29.734375 327.855469 C 29.539062 328.496094 28.671875 329.695312 27.8125 330.527344 C 25.3125 332.9375 24.117188 334.742188 23.761719 336.628906 C 23.375 338.6875 21.359375 342.050781 19.585938 343.589844 C 18.023438 344.949219 18.890625 346.109375 21.726562 346.460938 C 28.09375 347.25 32.734375 349.640625 31.1875 351.339844 C 30.605469 351.976562 29.5 353.46875 28.734375 354.648438 C 27.859375 355.996094 27.203125 356.578125 26.980469 356.21875 C 26.746094 355.839844 26.515625 355.816406 26.308594 356.152344 C 26.136719 356.433594 26.230469 356.742188 26.515625 356.839844 C 27.136719 357.046875 25.675781 360.246094 24.964844 360.246094 C 24.707031 360.246094 24.550781 360.414062 24.617188 360.621094 C 24.804688 361.214844 20.914062 367.242188 20.34375 367.242188 C 20.0625 367.242188 19.96875 367.378906 20.136719 367.546875 C 20.304688 367.710938 20.214844 368.105469 19.941406 368.421875 C 17.667969 371.023438 11.925781 383.617188 12.097656 385.625 L 12.25 387.390625 L 19.898438 389.453125 C 24.105469 390.585938 27.40625 391.652344 27.234375 391.824219 C 26.808594 392.25 29.859375 392.871094 30.488281 392.480469 C 30.769531 392.308594 31 392.378906 31 392.636719 C 31 392.898438 31.617188 393.222656 32.375 393.355469 C 36.105469 394.023438 53.511719 399.066406 56.6875 400.402344 C 57.75 400.851562 59.28125 401.21875 60.089844 401.21875 C 60.980469 401.21875 61.433594 401.421875 61.238281 401.738281 C 61.027344 402.074219 61.371094 402.144531 62.207031 401.933594 C 63.066406 401.71875 63.5 401.8125 63.5 402.214844 C 63.5 402.578125 63.835938 402.695312 64.335938 402.503906 C 64.792969 402.328125 65.300781 402.375 65.460938 402.609375 C 65.621094 402.84375 68 403.664062 70.75 404.429688 C 73.5 405.195312 76.105469 406.136719 76.539062 406.519531 C 76.972656 406.902344 78.023438 407.214844 78.875 407.214844 C 80.417969 407.214844 80.417969 407.214844 79.898438 409.085938 C 79.351562 411.074219 79.105469 412.890625 78.664062 418.332031 C 78.511719 420.1875 78.1875 421.703125 77.945312 421.703125 C 77.699219 421.703125 77.5 422.671875 77.5 423.851562 C 77.5 425.035156 77.273438 426.226562 77 426.5 C 76.722656 426.777344 76.421875 427.890625 76.328125 428.976562 C 76.234375 430.058594 75.914062 431.539062 75.613281 432.261719 C 75.316406 432.984375 75.132812 433.996094 75.210938 434.511719 C 75.339844 435.398438 75.203125 435.808594 73.972656 438.230469 C 73.679688 438.804688 73.347656 439.871094 73.230469 440.605469 C 72.746094 443.617188 72.136719 445.429688 71.632812 445.328125 C 71.339844 445.269531 71.210938 445.636719 71.34375 446.148438 C 71.613281 447.183594 70.140625 449.183594 69.109375 449.183594 C 68.742188 449.183594 68.558594 449.375 68.703125 449.609375 C 68.851562 449.84375 68.644531 450.464844 68.25 450.984375 C 67.195312 452.375 67.320312 454.015625 68.5 454.324219 C 69.050781 454.46875 69.5 454.382812 69.5 454.136719 C 69.5 453.433594 73.382812 453.59375 73.667969 454.304688 C 73.871094 454.804688 73.929688 454.804688 73.960938 454.304688 C 73.988281 453.882812 74.933594 453.679688 76.898438 453.679688 C 79.878906 453.679688 81.121094 454.28125 80.65625 455.492188 C 80.511719 455.871094 80.636719 456.179688 80.929688 456.179688 C 81.226562 456.179688 81.339844 456.515625 81.179688 456.929688 C 81.023438 457.339844 81.105469 457.679688 81.363281 457.679688 C 81.894531 457.679688 81.953125 457.933594 82.21875 461.425781 C 82.324219 462.800781 82.527344 464.261719 82.667969 464.671875 C 83.710938 467.714844 84.019531 469.230469 83.707031 469.738281 C 83.480469 470.105469 83.5625 470.191406 83.921875 469.96875 C 84.238281 469.769531 84.5 469.855469 84.5 470.15625 C 84.5 470.828125 88.355469 475.769531 89.304688 476.316406 C 90.152344 476.804688 90.210938 478.253906 89.410156 479.050781 C 88.960938 479.503906 89.019531 479.855469 89.664062 480.566406 C 90.125 481.074219 90.351562 481.644531 90.167969 481.828125 C 89.984375 482.011719 90.160156 482.160156 90.5625 482.160156 C 91.621094 482.160156 95.015625 483.976562 94.648438 484.347656 C 94.359375 484.632812 95.242188 484.859375 96.125 484.71875 C 96.332031 484.6875 96.5 484.890625 96.5 485.171875 C 96.5 485.449219 97.0625 485.9375 97.75 486.25 C 98.4375 486.5625 99 487.105469 99 487.453125 C 99 488.398438 102.242188 491.65625 103.183594 491.65625 C 103.632812 491.65625 104 491.859375 104 492.109375 C 104 492.761719 106.605469 496.652344 107.042969 496.652344 C 108.457031 496.652344 113.5 502.683594 113.5 504.378906 C 113.5 505.46875 113.703125 506.078125 114 505.894531 C 114.273438 505.726562 114.5 505.804688 114.5 506.074219 C 114.5 507.28125 117.640625 507.285156 118.570312 506.078125 C 119.378906 505.023438 119.753906 505.113281 119.546875 506.308594 C 119.507812 506.53125 119.707031 506.574219 119.992188 506.398438 C 120.273438 506.222656 120.660156 506.484375 120.851562 506.976562 C 121.914062 509.742188 124.496094 511.3125 127.027344 510.730469 C 128.933594 510.289062 129.933594 510.320312 131.785156 510.875 C 135.523438 512 143.203125 511.382812 147.265625 509.628906 C 149.238281 508.773438 155.296875 506.679688 155.875 506.652344 C 155.945312 506.648438 156 506.980469 156 507.394531 C 156 508.75 158.929688 508.339844 159.589844 506.894531 C 160.203125 505.546875 160.742188 505.324219 161.277344 506.1875 C 161.460938 506.488281 162.039062 506.621094 162.554688 506.484375 C 163.074219 506.347656 163.5 506.394531 163.5 506.585938 C 163.5 507.527344 166.480469 507.089844 167.21875 506.039062 C 167.648438 505.425781 168 505.128906 168 505.378906 C 168 505.628906 168.28125 505.472656 168.625 505.027344 C 169.03125 504.5 170.304688 504.132812 172.25 503.972656 C 173.898438 503.835938 176.039062 503.59375 177 503.433594 C 177.960938 503.273438 180.4375 502.964844 182.5 502.746094 C 184.5625 502.53125 186.957031 501.972656 187.828125 501.511719 C 189.117188 500.824219 189.449219 500.796875 189.664062 501.355469 C 189.917969 502.015625 197.949219 499.277344 199.226562 498.089844 C 199.484375 497.847656 200.019531 497.652344 200.414062 497.652344 C 200.804688 497.652344 202.390625 497.113281 203.9375 496.453125 C 205.484375 495.792969 209.203125 494.28125 212.203125 493.085938 C 224.542969 488.179688 231.023438 482.613281 239.957031 469.25 L 244.078125 463.085938 L 243.484375 460.507812 C 243.15625 459.089844 242.367188 455.90625 241.734375 453.429688 C 241.105469 450.957031 240.320312 446.796875 239.992188 444.1875 C 239.582031 440.894531 239.121094 439.136719 238.480469 438.441406 C 237.511719 437.390625 241.371094 427.195312 242.734375 427.203125 C 243.015625 427.203125 245.5625 428.101562 248.390625 429.199219 C 254.441406 431.546875 255.414062 431.625 257.460938 429.902344 C 259.515625 428.175781 259.578125 428.308594 254.875 424.695312 C 242.507812 415.195312 238.5 411.996094 238.5 411.613281 C 238.5 411.378906 241.777344 406.785156 245.78125 401.402344 C 253.410156 391.148438 253.476562 390.988281 251.089844 389.289062 L 249.597656 388.230469 L 245.925781 393.207031 C 243.902344 395.945312 241.96875 398.191406 241.621094 398.203125 C 241.140625 398.214844 232.679688 393.746094 231.53125 392.871094 C 231.414062 392.78125 232.074219 391.140625 233 389.226562 C 234.980469 385.136719 235.222656 385.570312 229.949219 383.804688 C 224.75 382.0625 224.152344 380.800781 227.546875 378.734375 C 236.851562 373.074219 243.960938 354.425781 244.070312 335.394531 C 244.144531 322.019531 241.882812 304.007812 239.253906 297.039062 C 238.527344 295.117188 237.800781 293.109375 237.636719 292.578125 C 237.046875 290.679688 235.664062 289.652344 229.75 286.722656 L 223.75 283.75 L 222.75 285.105469 C 222.199219 285.847656 221.269531 287.035156 220.683594 287.734375 L 219.617188 289.007812 L 213.933594 287.648438 C 210.808594 286.894531 207.460938 286.15625 206.5 286 C 205.539062 285.84375 204.300781 285.53125 203.75 285.304688 C 203.199219 285.078125 202.355469 284.765625 201.875 284.613281 C 201.253906 284.414062 201 283.804688 201 282.507812 C 201 280.886719 200.882812 280.71875 199.917969 280.96875 C 198.632812 281.304688 197 280.539062 197 279.59375 C 197 277.984375 193.800781 276.339844 192.363281 277.210938 C 191.214844 277.90625 190.574219 277.9375 187.609375 277.425781 C 185.722656 277.105469 183.40625 276.953125 182.464844 277.089844 C 179.519531 277.519531 179.234375 276.890625 180.707031 273.214844 C 181.417969 271.4375 182 269.824219 182 269.628906 C 182 268.878906 185.617188 265.714844 187.265625 265.023438 C 188.21875 264.625 189.003906 264.136719 189.011719 263.933594 C 189.039062 262.851562 190.519531 252.90625 190.792969 251.949219 C 191.027344 251.140625 190.90625 250.824219 190.371094 250.824219 C 189.394531 250.824219 188.292969 249.511719 188.933594 249.117188 C 189.460938 248.792969 191.714844 241.894531 192.457031 238.332031 C 193.269531 234.4375 193.316406 227.84375 192.53125 227.359375 C 191.804688 226.910156 191.933594 223.941406 192.996094 216.597656 C 193.851562 210.710938 193.886719 211.089844 192.5 211.226562 C 191.8125 211.296875 190.425781 211.710938 189.421875 212.15625 C 187.347656 213.070312 183.574219 212.269531 176 209.308594 C 171.945312 207.726562 168.574219 207.460938 166.5 208.554688 "/>
<path style=" stroke:none;fill-rule:evenodd;fill:rgb(83.137255%,76.470588%,14.117647%);fill-opacity:1;" d="M 249.21875 289.734375 C 246.925781 290.390625 239.648438 293.683594 238.625 294.527344 C 238.554688 294.582031 238.960938 295.957031 239.523438 297.582031 C 243.40625 308.734375 245.367188 338.144531 243.003906 349.726562 C 240.503906 361.992188 233.515625 375.105469 227.546875 378.734375 C 224.152344 380.800781 224.75 382.0625 229.949219 383.804688 C 235.222656 385.570312 234.980469 385.136719 233 389.226562 C 232.074219 391.140625 231.414062 392.78125 231.53125 392.871094 C 232.679688 393.746094 241.140625 398.214844 241.621094 398.203125 C 241.96875 398.191406 243.902344 395.945312 245.925781 393.207031 L 249.597656 388.230469 L 251.089844 389.289062 C 253.476562 390.988281 253.410156 391.148438 245.78125 401.402344 C 241.777344 406.785156 238.5 411.378906 238.5 411.613281 C 238.5 411.996094 242.507812 415.195312 254.875 424.695312 C 259.578125 428.308594 259.515625 428.175781 257.460938 429.902344 C 255.414062 431.625 254.441406 431.546875 248.390625 429.199219 C 245.5625 428.101562 243.015625 427.203125 242.734375 427.203125 C 241.371094 427.195312 237.511719 437.390625 238.480469 438.441406 C 239.121094 439.136719 239.582031 440.894531 239.992188 444.1875 C 240.320312 446.796875 241.105469 450.957031 241.734375 453.429688 C 242.367188 455.90625 243.15625 459.089844 243.484375 460.507812 L 244.078125 463.085938 L 239.957031 469.25 C 231.023438 482.613281 224.542969 488.179688 212.203125 493.085938 C 209.203125 494.28125 205.484375 495.792969 203.9375 496.453125 C 202.390625 497.113281 200.804688 497.652344 200.414062 497.652344 C 200.019531 497.652344 199.484375 497.855469 199.226562 498.105469 C 198.964844 498.359375 196.894531 499.273438 194.625 500.140625 C 190.507812 501.714844 190.5 501.722656 190.5 503.527344 C 190.5 505.269531 193.632812 509.140625 195.042969 509.140625 C 195.292969 509.140625 195.5 509.78125 195.5 510.558594 C 195.5 511.335938 195.667969 512.144531 195.875 512.347656 C 196.082031 512.554688 196.25 512.890625 196.25 513.09375 C 196.25 513.6875 199.195312 516.636719 199.785156 516.636719 C 200.082031 516.636719 200.835938 517.179688 201.460938 517.84375 C 202.082031 518.507812 203.136719 519.1875 203.796875 519.351562 C 205.136719 519.6875 205.355469 520.378906 204.316406 520.984375 C 203.429688 521.503906 202 524.3125 202 525.539062 C 202 526.402344 200.839844 528.15625 197.96875 531.625 C 197.402344 532.3125 196.574219 533.605469 196.125 534.5 C 195.679688 535.394531 195.132812 536.125 194.90625 536.125 C 194.683594 536.125 194.5 536.40625 194.5 536.753906 C 194.5 537.097656 194.050781 537.664062 193.5 538.007812 C 192.949219 538.347656 192.5 538.964844 192.5 539.375 C 192.5 539.785156 192.273438 540.121094 192 540.121094 C 191.726562 540.121094 191.5 540.539062 191.5 541.050781 C 191.5 541.5625 190.824219 542.828125 190 543.867188 C 189.175781 544.90625 188.5 546.023438 188.5 546.351562 C 188.5 546.679688 187.824219 547.550781 187 548.285156 C 186.175781 549.019531 185.5 549.980469 185.5 550.417969 C 185.5 550.855469 184.8125 551.855469 183.972656 552.636719 C 181.207031 555.21875 181.398438 557.128906 184.578125 558.691406 C 186.046875 559.414062 188.386719 560.597656 189.777344 561.320312 C 193.082031 563.039062 196 563.558594 196 562.421875 C 196 561.386719 195.789062 561.347656 199.671875 563.105469 C 204.003906 565.066406 205.707031 565.085938 206.300781 563.164062 L 206.75 561.722656 L 209.5 563.140625 C 211.011719 563.921875 213.039062 564.960938 214 565.453125 C 214.960938 565.949219 215.863281 566.492188 216 566.664062 C 217.90625 569.058594 223 568.648438 223 566.101562 C 223 565.65625 223.453125 564.804688 224.011719 564.207031 C 224.566406 563.613281 225 563.0625 224.976562 562.988281 C 224.949219 562.914062 225.171875 562.222656 225.464844 561.449219 C 225.757812 560.675781 226 559.835938 226 559.585938 C 226 559.335938 226.5625 558.761719 227.25 558.3125 C 227.9375 557.863281 228.5 557.277344 228.5 557.015625 C 228.5 556.753906 229.125 555.601562 229.890625 554.449219 C 231.324219 552.296875 231.742188 551.457031 233.28125 547.617188 C 234.8125 543.804688 238.03125 541.648438 239.25 543.617188 C 240.21875 545.1875 244.609375 539.246094 245.703125 534.875 C 245.878906 534.1875 246.253906 533.625 246.539062 533.625 C 246.824219 533.625 246.929688 533.414062 246.769531 533.160156 C 246.078125 532.042969 247.722656 532.140625 249.519531 533.328125 C 251.59375 534.699219 252.742188 534.945312 253.25 534.125 C 253.421875 533.851562 254.101562 533.625 254.765625 533.625 C 255.597656 533.625 256.210938 533.167969 256.730469 532.160156 C 257.347656 530.972656 257.792969 530.707031 259.121094 530.757812 C 260.015625 530.789062 261.144531 530.636719 261.625 530.417969 C 262.753906 529.90625 262.855469 531.710938 261.75 532.625 C 260.910156 533.324219 260.730469 535.125 261.5 535.125 C 262.277344 535.125 262.089844 536.425781 261.207031 537.160156 C 260.492188 537.75 260.523438 537.859375 261.507812 538.222656 C 262.5625 538.613281 262.59375 538.800781 262.253906 543.054688 C 261.976562 546.558594 262.0625 547.785156 262.664062 548.949219 C 263.15625 549.898438 263.503906 552.355469 263.644531 555.886719 C 263.835938 560.757812 263.964844 561.375 264.804688 561.535156 C 266.332031 561.824219 267 562.628906 267 564.179688 C 267 565.105469 267.320312 565.753906 267.875 565.964844 C 269.484375 566.574219 270 567.515625 270 569.855469 L 270 572.179688 L 273.375 571.847656 C 275.230469 571.667969 278.101562 571.285156 279.75 571 C 281.398438 570.714844 283.59375 570.371094 284.625 570.238281 C 286.546875 569.988281 287.207031 568.839844 285.75 568.28125 C 284.945312 567.972656 284.660156 564.601562 285.441406 564.601562 C 286.261719 564.601562 286.503906 562.398438 285.734375 561.964844 C 285.328125 561.742188 285 561.117188 285 560.582031 C 285 560.046875 284.8125 559.605469 284.585938 559.605469 C 283.964844 559.605469 284.542969 556.414062 285.242188 556.003906 C 286.066406 555.515625 286.085938 552.808594 285.269531 552.128906 C 284.808594 551.746094 284.726562 551.074219 284.996094 549.875 C 285.210938 548.933594 285.265625 548.046875 285.121094 547.902344 C 284.976562 547.757812 285.078125 547.351562 285.347656 547.003906 C 285.613281 546.652344 286.109375 545.015625 286.445312 543.367188 C 287.722656 537.113281 288.554688 535.019531 289.449219 535.824219 C 290.5 536.773438 294.386719 538.105469 296.125 538.113281 C 298.035156 538.125 298.078125 534.949219 296.207031 531.761719 C 295.101562 529.871094 294.964844 529.203125 295.253906 527.09375 C 295.496094 525.339844 295.421875 524.632812 295.003906 524.632812 C 294.582031 524.632812 294.496094 523.804688 294.703125 521.785156 C 295.132812 517.570312 295.558594 515.636719 296.054688 515.636719 C 296.300781 515.636719 296.5 514.964844 296.5 514.140625 C 296.5 513.316406 296.273438 512.640625 296 512.640625 C 295.726562 512.640625 295.5 512.304688 295.5 511.890625 C 295.5 511.476562 295.695312 511.140625 295.9375 511.140625 C 296.175781 511.140625 296.515625 510.257812 296.6875 509.175781 C 296.859375 508.097656 297.363281 506.851562 297.804688 506.410156 C 298.285156 505.929688 298.515625 505.113281 298.375 504.378906 C 298.246094 503.699219 298.34375 503.148438 298.59375 503.148438 C 300.128906 503.148438 301.25 500.816406 301.308594 497.507812 C 301.378906 493.304688 301.117188 493.507812 305.953125 493.929688 L 310 494.28125 L 310 496.132812 C 310 497.582031 310.265625 498.121094 311.21875 498.632812 C 312.695312 499.421875 314 498.453125 314 496.5625 C 314.003906 495.925781 314.453125 494.667969 315 493.765625 C 315.550781 492.867188 316 491.839844 316 491.480469 C 316 491.125 316.957031 490.339844 318.125 489.738281 C 322.203125 487.640625 322.988281 486.664062 323.824219 482.628906 C 324.246094 480.59375 324.796875 478.546875 325.046875 478.082031 C 325.296875 477.613281 325.527344 476.261719 325.558594 475.074219 C 325.617188 472.992188 326.304688 469.398438 326.453125 470.417969 C 326.492188 470.695312 327.101562 469.796875 327.800781 468.421875 C 329.527344 465.039062 329.367188 465.109375 332.75 466.222656 C 339.671875 468.492188 341.5 469.304688 341.539062 470.105469 C 341.5625 470.554688 341.679688 470.679688 341.800781 470.382812 C 342.027344 469.835938 345.042969 470.039062 345.5 470.628906 C 345.785156 470.996094 349.722656 471.960938 352.878906 472.4375 C 354.046875 472.613281 354.878906 472.960938 354.722656 473.210938 C 354.566406 473.460938 354.679688 473.667969 354.96875 473.667969 C 355.261719 473.667969 355.5 473.441406 355.5 473.167969 C 355.5 472.894531 356.273438 472.667969 357.222656 472.667969 C 358.890625 472.667969 358.949219 472.601562 359.097656 470.542969 C 359.214844 468.910156 359.507812 468.308594 360.371094 467.929688 C 360.984375 467.660156 361.4375 467.179688 361.371094 466.859375 C 361.304688 466.539062 361.882812 465.691406 362.652344 464.976562 C 364.222656 463.515625 365.1875 460.71875 366.027344 455.179688 C 366.339844 453.121094 366.898438 450.757812 367.273438 449.933594 C 368.011719 448.300781 368.96875 444.03125 369.261719 441.0625 C 369.363281 440.03125 369.789062 438.570312 370.207031 437.816406 C 371.34375 435.769531 372.5 432.6875 372.5 431.710938 C 372.5 431.238281 372.949219 430.332031 373.5 429.699219 C 374.050781 429.066406 374.5 428.144531 374.5 427.652344 C 374.5 427.160156 374.695312 426.640625 374.933594 426.492188 C 375.171875 426.34375 375.492188 425.429688 375.652344 424.460938 C 375.808594 423.488281 376.363281 422.078125 376.878906 421.324219 C 377.398438 420.570312 378.214844 418.890625 378.699219 417.585938 C 379.675781 414.957031 380.3125 414.320312 381.144531 415.152344 C 383.652344 417.660156 386.882812 413.410156 384.765625 410.386719 C 384.105469 409.445312 384.128906 409.25 385.015625 408.449219 C 386.113281 407.457031 386.347656 403.574219 385.527344 400.03125 C 385.226562 398.746094 385.265625 397.6875 385.636719 396.871094 C 386.054688 395.953125 386.042969 395.40625 385.59375 394.6875 C 385.183594 394.027344 385.128906 393.121094 385.429688 391.796875 C 385.667969 390.734375 385.679688 388.765625 385.460938 387.421875 C 384.890625 383.964844 384.914062 380.347656 385.5 379.984375 C 385.773438 379.8125 386 379.238281 386 378.703125 C 386 378.171875 386.226562 377.734375 386.5 377.734375 C 386.773438 377.734375 387 377.390625 387 376.96875 C 387 376.550781 387.324219 376.082031 387.71875 375.929688 C 388.113281 375.777344 388.578125 375.015625 388.75 374.238281 C 388.921875 373.460938 389.386719 372.695312 389.78125 372.546875 C 390.175781 372.394531 390.5 371.902344 390.5 371.457031 C 390.5 370.539062 391.8125 368.074219 393.125 366.523438 C 393.605469 365.957031 394.296875 365.140625 394.65625 364.710938 C 395.015625 364.28125 395.234375 363.699219 395.140625 363.414062 C 395.046875 363.128906 395.3125 362.609375 395.734375 362.257812 C 396.15625 361.910156 396.5 361.3125 396.5 360.933594 C 396.5 360.558594 396.90625 360.246094 397.398438 360.246094 C 397.894531 360.246094 398.515625 360.039062 398.773438 359.789062 C 399.035156 359.539062 399.699219 359.257812 400.25 359.164062 C 400.800781 359.074219 401.585938 358.613281 402 358.140625 C 403 356.996094 408.664062 354.25 410.027344 354.25 C 410.921875 354.25 411.1875 351.863281 410.332031 351.464844 C 410.289062 351.445312 409.4375 350.9375 408.441406 350.339844 C 407.445312 349.742188 406.242188 349.253906 405.765625 349.253906 C 405.289062 349.253906 404.191406 348.945312 403.324219 348.570312 C 401.796875 347.90625 397.484375 347.140625 390.25 346.242188 C 385.90625 345.699219 384.066406 345.265625 383.710938 344.699219 C 383.5625 344.457031 381.890625 344.257812 380 344.257812 C 378.109375 344.257812 376.421875 344.035156 376.25 343.757812 C 376.078125 343.484375 374.660156 343.257812 373.09375 343.253906 C 363.605469 343.242188 362.792969 342.785156 364.808594 338.5625 C 365.1875 337.761719 365.5 336.800781 365.5 336.421875 C 365.5 334.871094 367.6875 329.394531 369.046875 327.550781 C 369.847656 326.464844 370.5 325.273438 370.5 324.90625 C 370.5 324.539062 370.816406 323.738281 371.203125 323.128906 C 372.140625 321.648438 372.757812 317.777344 372.054688 317.777344 C 371.761719 317.777344 371.132812 318.394531 370.652344 319.152344 C 370.171875 319.90625 368.292969 322.351562 366.472656 324.578125 C 364.652344 326.808594 361.386719 331.273438 359.207031 334.503906 L 355.25 340.371094 L 354.910156 336.195312 C 354.722656 333.898438 354.300781 329.542969 353.972656 326.519531 C 353.339844 320.679688 353.882812 317.183594 357.03125 306.855469 C 357.5625 305.109375 358 303.46875 358 303.210938 C 358 302.238281 353.742188 300.8125 350.800781 300.800781 C 348.015625 300.789062 347.726562 300.667969 345.511719 298.597656 C 342.871094 296.128906 342.519531 296.050781 332.25 295.523438 C 325.933594 295.199219 299.976562 292.789062 276 290.300781 C 259.683594 288.605469 253.613281 288.480469 249.21875 289.734375 "/>
<path style=" stroke:none;fill-rule:evenodd;fill:rgb(7.843137%,26.666667%,26.666667%);fill-opacity:1;" d="M 208.398438 66.566406 C 205.960938 69.1875 204.789062 69.582031 201.949219 68.757812 C 200.445312 68.320312 199.398438 70.050781 199.554688 72.714844 C 199.648438 74.332031 197.984375 78.847656 196.539062 80.902344 C 196.039062 81.613281 195.46875 82.710938 195.273438 83.34375 C 194.289062 86.515625 189.53125 90.4375 186.671875 90.4375 C 183.875 90.4375 181.019531 91.34375 179.714844 92.648438 C 179.304688 93.058594 178.132812 93.535156 177.109375 93.703125 C 176.085938 93.871094 174.914062 94.140625 174.5 94.300781 C 174.085938 94.457031 172.738281 94.667969 171.5 94.769531 C 168.574219 95.003906 168.023438 95.824219 167.890625 100.148438 C 167.832031 102.089844 167.757812 104.621094 167.722656 105.777344 C 167.675781 107.226562 167.234375 108.429688 166.28125 109.675781 C 165.09375 111.234375 164.941406 111.800781 165.179688 113.824219 C 165.601562 117.429688 165.652344 119.59375 165.339844 120.414062 C 164.695312 122.113281 164.050781 125.09375 164.261719 125.429688 C 164.382812 125.628906 163.957031 126.324219 163.316406 126.976562 C 162.671875 127.625 161.882812 128.664062 161.554688 129.285156 C 161.175781 130.003906 160.503906 130.410156 159.679688 130.410156 C 158.644531 130.410156 158.464844 130.578125 158.769531 131.28125 C 158.976562 131.765625 159.160156 132.535156 159.179688 132.996094 C 159.199219 133.453125 159.390625 133.722656 159.609375 133.589844 C 160.601562 132.976562 159.851562 135.703125 158.574219 137.332031 C 156.105469 140.488281 153.5 144.367188 153.5 144.894531 C 153.5 145.171875 153.300781 145.398438 153.0625 145.398438 C 152.179688 145.398438 150.667969 150.734375 149.519531 157.890625 C 149.277344 159.402344 148.722656 161.621094 148.289062 162.824219 C 147.035156 166.292969 148.6875 169.304688 152.683594 170.835938 C 154.976562 171.714844 156.105469 177.699219 155.53125 185.894531 L 155.007812 193.328125 L 156.839844 197.132812 C 158.464844 200.503906 158.609375 201.117188 158.125 202.523438 C 157.117188 205.453125 156.875 208.21875 157.589844 208.667969 C 158.640625 209.328125 164.59375 208.972656 166.621094 208.125 C 168.882812 207.179688 173.53125 207.707031 177 209.296875 C 178.238281 209.863281 179.664062 210.335938 180.171875 210.339844 C 180.679688 210.347656 182.652344 210.824219 184.554688 211.402344 C 187.707031 212.359375 188.121094 212.386719 189.1875 211.6875 C 189.828125 211.269531 191.207031 210.765625 192.253906 210.570312 L 194.148438 210.210938 L 193.808594 212.40625 C 191.875 224.804688 191.78125 226.050781 192.730469 227 C 193.980469 228.25 192.9375 239.433594 191.03125 245.226562 C 189.210938 250.746094 189.265625 250.144531 190.566406 250.488281 C 191.402344 250.703125 191.5625 251.015625 191.3125 251.917969 C 191.015625 252.988281 190.308594 257.699219 189.699219 262.679688 C 189.460938 264.640625 189.296875 264.835938 187.421875 265.394531 C 186.308594 265.730469 185.066406 266.511719 184.65625 267.136719 C 184.246094 267.761719 183.480469 268.410156 182.953125 268.574219 C 182.398438 268.75 182 269.335938 182 269.96875 C 182 270.570312 181.550781 272.238281 181 273.683594 C 180.453125 275.125 180.058594 276.339844 180.128906 276.382812 C 180.195312 276.421875 181.71875 276.5 183.511719 276.554688 C 185.304688 276.609375 187.636719 276.9375 188.6875 277.285156 C 190.421875 277.855469 190.738281 277.816406 192.03125 276.863281 C 192.816406 276.28125 193.574219 275.804688 193.710938 275.804688 C 194.335938 275.804688 197.5 278.980469 197.5 279.605469 C 197.5 280.347656 197.929688 280.464844 200.125 280.316406 C 201.402344 280.234375 201.5 280.363281 201.5 282.15625 C 201.5 284.28125 201.570312 284.320312 208.5 285.839844 C 210.011719 286.171875 213.035156 286.972656 215.210938 287.621094 C 217.390625 288.265625 219.25 288.796875 219.34375 288.796875 C 219.4375 288.796875 220.304688 287.5625 221.269531 286.050781 C 223.074219 283.234375 224.324219 282.632812 225.480469 284.027344 C 225.808594 284.421875 226.90625 285.015625 227.914062 285.339844 C 231.984375 286.648438 238 290.832031 238 292.351562 C 238 293.808594 238.667969 293.804688 241.78125 292.324219 C 249.507812 288.648438 254.730469 287.910156 265.25 289 C 282.039062 290.742188 322.917969 294.378906 332.667969 295 L 343.082031 295.664062 L 345.417969 297.914062 C 347.644531 300.066406 347.914062 300.179688 351.335938 300.445312 C 357.59375 300.929688 358.84375 302.085938 357.460938 306.125 C 354.738281 314.09375 353.898438 320.363281 354.472656 328.410156 C 354.773438 332.59375 355.070312 336.800781 355.132812 337.761719 C 355.246094 339.460938 355.367188 339.335938 359.398438 333.371094 C 361.679688 329.992188 364.625 326.039062 365.941406 324.589844 C 367.253906 323.136719 369.054688 320.898438 369.9375 319.613281 C 371.457031 317.40625 372.5 316.660156 372.5 317.777344 C 372.5 318.050781 372.667969 318.238281 372.875 318.195312 C 373.65625 318.023438 376.292969 318.960938 377.367188 319.792969 C 377.984375 320.269531 379.554688 320.820312 380.863281 321.015625 C 382.167969 321.210938 383.863281 321.695312 384.625 322.089844 C 385.453125 322.515625 387.273438 322.78125 389.132812 322.742188 C 390.945312 322.703125 392.980469 322.988281 394 323.425781 C 395.140625 323.917969 396.574219 324.085938 398.125 323.910156 C 400.207031 323.675781 400.503906 323.757812 400.519531 324.582031 C 400.535156 325.234375 400.832031 324.984375 401.488281 323.773438 C 402.007812 322.8125 402.332031 321.574219 402.210938 321.023438 C 401.839844 319.339844 402.730469 318.464844 404.09375 319.175781 C 406.921875 320.65625 413.222656 320.90625 414.117188 319.574219 C 414.371094 319.195312 414.488281 319.222656 414.492188 319.652344 C 414.511719 321.050781 420.441406 320.4375 420.800781 318.996094 C 421.265625 317.152344 420.050781 312.027344 418.847656 310.734375 C 417.539062 309.332031 415.5 303.75 415.5 301.578125 C 415.5 299.183594 414.953125 296.792969 414.402344 296.792969 C 413.804688 296.792969 412.929688 295.917969 411.816406 294.21875 C 410.882812 292.789062 410.890625 292.253906 412.089844 278.734375 C 412.582031 273.207031 412.546875 272.105469 411.828125 269.898438 C 410.738281 266.570312 410.78125 265.878906 412.125 265.308594 C 412.742188 265.046875 414.078125 264.320312 415.085938 263.699219 C 416.097656 263.074219 418.570312 261.59375 420.585938 260.402344 C 423.570312 258.640625 424.617188 257.667969 426.234375 255.15625 C 427.328125 253.460938 428.679688 251.589844 429.234375 250.996094 C 430.933594 249.191406 431.390625 248.519531 431.578125 247.53125 C 431.679688 247.011719 432.378906 246.289062 433.132812 245.929688 C 433.914062 245.554688 434.5 244.867188 434.5 244.320312 C 434.5 243.210938 438.128906 239.332031 439.167969 239.332031 C 440.089844 239.332031 444.421875 234.074219 444.824219 232.46875 C 445.058594 231.53125 444.832031 230.972656 443.875 230.160156 C 442.0625 228.625 441.917969 227.199219 443.277344 224.382812 C 443.929688 223.035156 444.917969 220.617188 445.476562 219.015625 C 446.0625 217.324219 447.121094 215.523438 447.992188 214.730469 C 448.890625 213.917969 449.5 212.867188 449.5 212.136719 C 449.5 210.433594 450.363281 210.074219 451.394531 211.347656 C 452.140625 212.265625 452.460938 212.339844 453.671875 211.878906 C 454.449219 211.585938 455.285156 211.46875 455.53125 211.621094 C 455.980469 211.898438 458.71875 211.078125 462 209.683594 C 463.378906 209.097656 464.058594 208.292969 465.207031 205.867188 C 466.027344 204.136719 467.5 202.082031 468.582031 201.15625 C 470.5625 199.460938 471.035156 198.035156 469.777344 197.550781 C 469.382812 197.398438 468.582031 196.371094 468.007812 195.261719 C 467.429688 194.15625 466.613281 192.90625 466.195312 192.488281 C 465.332031 191.625 465.546875 191.339844 468.003906 190.042969 C 473.042969 187.382812 474.742188 185.113281 473 183.371094 C 472.449219 182.820312 472 182.191406 472 181.96875 C 472 181.746094 471.375 180.902344 470.609375 180.09375 C 469.84375 179.285156 468.945312 178.0625 468.613281 177.375 C 467.894531 175.894531 466.867188 174.226562 466.457031 173.878906 C 466.082031 173.558594 464.09375 170.0625 461.859375 165.785156 C 460.265625 162.738281 460.183594 162.382812 460.929688 161.785156 C 462.828125 160.265625 469.015625 157.773438 470.875 157.777344 C 471.492188 157.78125 472 157.582031 472 157.335938 C 472 157.089844 472.359375 156.890625 472.792969 156.890625 C 473.230469 156.890625 473.828125 156.257812 474.117188 155.484375 C 474.410156 154.710938 475.402344 153.585938 476.324219 152.980469 C 478.578125 151.503906 478.476562 151.058594 475.015625 147.285156 C 473.375 145.496094 472.082031 143.945312 472.140625 143.839844 C 472.203125 143.734375 472.164062 143.699219 472.054688 143.761719 C 471.316406 144.183594 468.875 141.847656 468.132812 140.011719 C 467.285156 137.917969 467.179688 137.84375 465.5 138.101562 C 463.941406 138.34375 463.652344 138.207031 462.859375 136.824219 L 461.96875 135.269531 L 463.734375 133.007812 C 464.707031 131.761719 465.5 130.5625 465.5 130.339844 C 465.5 130.117188 466.175781 129.585938 467 129.160156 C 468.621094 128.324219 469.078125 126.1875 467.886719 125 C 467.402344 124.515625 467.402344 124.179688 467.886719 123.40625 C 468.226562 122.867188 468.5 121.863281 468.5 121.171875 C 468.5 120.25 468.765625 119.914062 469.5 119.914062 C 470.050781 119.914062 470.5 119.734375 470.5 119.511719 C 470.5 119.289062 472.304688 118.34375 474.515625 117.410156 C 476.722656 116.476562 479 115.277344 479.578125 114.738281 C 480.5 113.882812 480.828125 113.835938 482.308594 114.375 C 484.089844 115.015625 485 114.789062 485 113.699219 C 485 113.335938 485.789062 112.4375 486.75 111.707031 C 488.347656 110.484375 488.5 110.148438 488.5 107.808594 C 488.5 103.566406 486.640625 100.179688 485.679688 102.679688 C 484.679688 105.285156 475.546875 100.273438 473.210938 95.835938 C 472.414062 94.324219 471.332031 88.277344 471.28125 85.066406 C 471.265625 83.898438 471.101562 82.941406 470.917969 82.941406 C 470.734375 82.941406 470.4375 82.042969 470.25 80.941406 C 470.0625 79.84375 469.726562 78.945312 469.496094 78.945312 C 469.269531 78.945312 469.121094 77.671875 469.167969 76.117188 L 469.25 73.292969 L 466.910156 73.136719 C 465.210938 73.019531 464.261719 73.230469 463.433594 73.902344 C 462.578125 74.59375 462.082031 74.695312 461.460938 74.308594 C 460.449219 73.675781 456.039062 74.996094 453.777344 76.605469 C 452.953125 77.191406 452.050781 77.722656 451.765625 77.789062 C 451.484375 77.851562 450.351562 78.132812 449.25 78.414062 C 446.175781 79.191406 443.851562 79.042969 440.789062 77.875 C 438.121094 76.855469 437.941406 76.84375 437.027344 77.671875 C 436.5 78.148438 435.433594 78.617188 434.660156 78.710938 C 433.882812 78.804688 432.628906 79.035156 431.867188 79.222656 C 430.671875 79.515625 430.527344 79.4375 430.789062 78.628906 C 431.011719 77.953125 430.964844 77.878906 430.621094 78.359375 C 430.230469 78.902344 429.796875 78.875 428.203125 78.207031 C 427.042969 77.722656 426.199219 77.597656 426.101562 77.898438 C 425.847656 78.652344 423.640625 77.484375 422.746094 76.117188 C 421.234375 73.816406 418.46875 76.550781 417.117188 81.679688 C 416.757812 83.046875 416.019531 84.636719 415.480469 85.210938 C 414.941406 85.785156 414.492188 86.578125 414.484375 86.972656 C 414.464844 87.910156 413.238281 89.507812 412.84375 89.113281 C 411.164062 87.4375 410 88.578125 410 91.890625 C 410 95.894531 408.773438 100.394531 407.421875 101.339844 C 406.730469 101.824219 406.597656 102.195312 406.964844 102.636719 C 407.296875 103.039062 407.304688 103.421875 406.984375 103.742188 C 406.714844 104.011719 406.398438 105.792969 406.277344 107.699219 C 405.925781 113.269531 405.496094 114.074219 399.640625 120.105469 C 393.589844 126.339844 391.957031 129.078125 391.453125 133.820312 C 391.269531 135.558594 390.917969 137.1875 390.667969 137.4375 C 390.050781 138.054688 383.207031 136.8125 381 135.683594 C 378.195312 134.246094 373.277344 131.257812 372.957031 130.792969 C 372.796875 130.558594 371.222656 130.417969 369.457031 130.480469 C 367.695312 130.542969 365.757812 130.324219 365.15625 130 C 363.550781 129.128906 362.324219 129.277344 361.605469 130.425781 C 361.253906 130.988281 360.390625 131.664062 359.683594 131.933594 C 358.679688 132.3125 358.457031 132.667969 358.671875 133.539062 C 358.902344 134.472656 358.523438 134.902344 356.371094 136.15625 C 349.675781 140.050781 346.230469 145.519531 348.109375 149.269531 C 348.582031 150.222656 348.484375 150.601562 347.460938 151.714844 C 346.632812 152.617188 346.445312 153.101562 346.875 153.253906 C 347.933594 153.632812 347.59375 155.613281 346.375 156.148438 C 345.441406 156.554688 345.277344 156.960938 345.417969 158.539062 C 345.507812 159.582031 345.324219 160.746094 345.007812 161.128906 C 344.566406 161.65625 344.59375 162.472656 345.117188 164.523438 C 345.585938 166.367188 345.644531 167.46875 345.304688 168.007812 C 344.683594 168.996094 345.707031 170.378906 347.0625 170.378906 C 348.28125 170.378906 348.328125 172.484375 347.140625 173.871094 C 345.992188 175.210938 345.691406 175.144531 345.09375 173.433594 C 344.816406 172.640625 343.894531 171.578125 343.046875 171.078125 C 341.933594 170.421875 341.425781 169.679688 341.214844 168.402344 C 341.058594 167.429688 340.703125 166.164062 340.421875 165.589844 C 340.144531 165.015625 339.96875 164.230469 340.027344 163.839844 C 340.460938 161.007812 337.722656 158.222656 335.617188 159.359375 C 334.496094 159.964844 331.933594 160.582031 331.105469 160.441406 C 327.859375 159.898438 316.289062 163.523438 316.667969 164.964844 C 316.792969 165.445312 316.640625 165.917969 316.332031 166.023438 C 315.613281 166.261719 313 165.289062 313 164.78125 C 313 164.570312 312.109375 164.253906 311.027344 164.082031 C 308.785156 163.722656 306.359375 161.421875 306.078125 159.386719 C 305.980469 158.699219 305.628906 157.464844 305.292969 156.640625 C 304.949219 155.792969 304.835938 154.597656 305.042969 153.890625 C 305.277344 153.0625 305.417969 152.941406 305.449219 153.535156 C 305.523438 154.820312 306.730469 155.09375 308.175781 154.144531 C 309.308594 153.402344 309.847656 151.394531 308.910156 151.394531 C 308.328125 151.394531 309.03125 149.773438 310.15625 148.527344 C 311.015625 147.570312 311.078125 147.214844 310.578125 146.113281 C 310.253906 145.402344 310.105469 144.632812 310.246094 144.402344 C 310.390625 144.171875 310.222656 143.863281 309.878906 143.71875 C 309.425781 143.53125 309.496094 143.300781 310.125 142.902344 C 310.605469 142.601562 311 142.066406 311 141.71875 C 311 140.792969 313.738281 138.925781 315.621094 138.570312 C 319.492188 137.839844 319.996094 135.773438 316.445312 135.203125 C 314.742188 134.933594 314.539062 134.765625 314.953125 133.996094 C 315.742188 132.519531 309.679688 128.417969 306.691406 128.414062 C 306.109375 128.410156 305.097656 127.992188 304.441406 127.480469 C 303.785156 126.96875 302.304688 126.070312 301.152344 125.484375 C 299.996094 124.898438 298.84375 124.046875 298.585938 123.585938 C 297.90625 122.371094 284.175781 117.8125 274.875 115.710938 C 273.648438 115.433594 273.5 115.175781 273.5 113.359375 L 273.5 111.320312 L 271.195312 111.503906 L 268.886719 111.6875 L 264.945312 107.523438 C 261.210938 103.585938 260.316406 101.910156 261.535156 101.15625 C 262.351562 100.652344 261.574219 96.8125 260.460938 95.851562 C 259.78125 95.265625 259.5 94.371094 259.5 92.8125 C 259.5 91.035156 259.28125 90.488281 258.375 90.003906 C 257.359375 89.460938 255.496094 86.882812 255.558594 86.109375 C 255.574219 85.941406 255.386719 85.664062 255.140625 85.496094 C 254.898438 85.328125 254.09375 83.890625 253.347656 82.300781 C 251.953125 79.320312 250.851562 78.394531 249.867188 79.378906 C 249.554688 79.6875 249.121094 79.945312 248.898438 79.945312 C 248.210938 79.945312 248.464844 78.832031 249.289062 78.226562 C 250.078125 77.652344 248.988281 74.027344 247.875 73.53125 C 247.667969 73.441406 247.5 73.046875 247.5 72.65625 C 247.5 71.6875 245.683594 69.949219 244.667969 69.949219 C 244.207031 69.949219 243.964844 70.082031 244.125 70.242188 C 244.285156 70.402344 244.101562 70.910156 243.71875 71.367188 C 243.332031 71.824219 242.710938 72.625 242.335938 73.144531 C 241.6875 74.050781 241.566406 74.007812 239.703125 72.238281 C 237.945312 70.5625 237.554688 70.410156 235.808594 70.679688 C 234.472656 70.890625 233.613281 70.761719 233.058594 70.269531 C 232.613281 69.875 231.808594 69.472656 231.273438 69.375 C 230.734375 69.277344 230.171875 68.707031 230.023438 68.105469 C 229.257812 65.050781 225.636719 63.390625 223.773438 65.25 C 222.378906 66.648438 213.730469 66.503906 212.722656 65.066406 C 211.628906 63.503906 211.070312 63.699219 208.398438 66.566406 "/>
<path style=" stroke:none;fill-rule:evenodd;fill:rgb(39.215686%,48.627451%,29.803922%);fill-opacity:1;" d="M 256.125 288.65625 C 256.882812 288.769531 258.117188 288.769531 258.875 288.65625 C 259.632812 288.542969 259.011719 288.449219 257.5 288.449219 C 255.988281 288.449219 255.367188 288.542969 256.125 288.65625 M 241.875 292.328125 C 240.84375 292.875 240 293.429688 240 293.566406 C 240 293.703125 240.898438 293.355469 242 292.792969 C 243.101562 292.234375 244 291.667969 244 291.535156 C 244 291.207031 243.996094 291.210938 241.875 292.328125 M 293.132812 292.152344 C 293.890625 292.269531 295.015625 292.265625 295.632812 292.148438 C 296.246094 292.027344 295.625 291.933594 294.25 291.9375 C 292.875 291.941406 292.371094 292.039062 293.132812 292.152344 M 298.632812 292.652344 C 299.390625 292.769531 300.515625 292.765625 301.132812 292.648438 C 301.746094 292.527344 301.125 292.433594 299.75 292.4375 C 298.375 292.441406 297.871094 292.539062 298.632812 292.652344 M 303.625 293.152344 C 304.382812 293.265625 305.617188 293.265625 306.375 293.152344 C 307.132812 293.039062 306.511719 292.945312 305 292.945312 C 303.488281 292.945312 302.867188 293.039062 303.625 293.152344 M 309.132812 293.652344 C 309.890625 293.765625 311.015625 293.765625 311.632812 293.644531 C 312.246094 293.527344 311.625 293.433594 310.25 293.4375 C 308.875 293.441406 308.371094 293.539062 309.132812 293.652344 M 314.632812 294.152344 C 315.390625 294.265625 316.515625 294.265625 317.132812 294.144531 C 317.746094 294.027344 317.125 293.933594 315.75 293.9375 C 314.375 293.941406 313.871094 294.039062 314.632812 294.152344 M 319.875 294.644531 C 320.492188 294.765625 321.507812 294.765625 322.125 294.644531 C 322.742188 294.527344 322.238281 294.429688 321 294.429688 C 319.761719 294.429688 319.257812 294.527344 319.875 294.644531 M 325.382812 295.15625 C 326.28125 295.265625 327.632812 295.265625 328.382812 295.148438 C 329.136719 295.035156 328.398438 294.945312 326.75 294.949219 C 325.101562 294.949219 324.484375 295.042969 325.382812 295.15625 M 333.132812 295.652344 C 333.890625 295.765625 335.015625 295.761719 335.632812 295.644531 C 336.246094 295.527344 335.625 295.429688 334.25 295.433594 C 332.875 295.4375 332.371094 295.535156 333.132812 295.652344 M 349.625 300.632812 C 350.105469 300.757812 350.894531 300.757812 351.375 300.632812 C 351.855469 300.507812 351.460938 300.40625 350.5 300.40625 C 349.539062 300.40625 349.144531 300.507812 349.625 300.632812 M 353.65625 322.023438 C 353.65625 323.671875 353.75 324.289062 353.863281 323.390625 C 353.972656 322.492188 353.972656 321.140625 353.859375 320.390625 C 353.742188 319.640625 353.652344 320.375 353.65625 322.023438 M 354.117188 327.269531 C 354.117188 328.230469 354.21875 328.625 354.34375 328.144531 C 354.46875 327.664062 354.46875 326.875 354.34375 326.394531 C 354.21875 325.914062 354.117188 326.308594 354.117188 327.269531 M 362 329.769531 C 361.414062 330.59375 361.046875 331.265625 361.183594 331.265625 C 361.320312 331.265625 361.914062 330.59375 362.5 329.769531 C 363.085938 328.945312 363.453125 328.269531 363.316406 328.269531 C 363.179688 328.269531 362.585938 328.945312 362 329.769531 "/>
<path style=" stroke:none;fill-rule:evenodd;fill:rgb(48.627451%,39.215686%,54.901961%);fill-opacity:1;" d="M 163.125 209.199219 C 163.605469 209.324219 164.394531 209.324219 164.875 209.199219 C 165.355469 209.070312 164.960938 208.96875 164 208.96875 C 163.039062 208.96875 162.644531 209.070312 163.125 209.199219 M 151.183594 212.460938 C 150.847656 213 152.089844 212.9375 152.992188 212.367188 C 153.574219 212 153.484375 211.914062 152.582031 211.980469 C 151.945312 212.03125 151.316406 212.246094 151.183594 212.460938 M 147.640625 215.027344 C 147.703125 215.339844 147.46875 215.542969 147.125 215.472656 C 146.78125 215.40625 146.5 215.574219 146.5 215.847656 C 146.5 216.125 146.835938 216.347656 147.25 216.347656 C 147.664062 216.347656 148 216.113281 148 215.824219 C 148 215.539062 148.371094 215.371094 148.824219 215.453125 C 149.277344 215.53125 149.726562 215.375 149.824219 215.097656 C 149.921875 214.824219 149.445312 214.566406 148.765625 214.527344 C 148.082031 214.488281 147.582031 214.710938 147.640625 215.027344 M 129.222656 219.804688 C 129.378906 220.054688 129.222656 220.375 128.878906 220.511719 C 128.5 220.664062 128.597656 220.78125 129.125 220.804688 C 129.605469 220.828125 130 220.507812 130 220.09375 C 130 219.683594 129.761719 219.347656 129.46875 219.347656 C 129.179688 219.347656 129.070312 219.550781 129.222656 219.804688 M 92 232.933594 C 92 233.15625 93.070312 233.339844 94.375 233.34375 C 95.679688 233.347656 97.3125 233.492188 98 233.667969 C 98.6875 233.839844 99.089844 233.808594 98.894531 233.597656 C 98.402344 233.058594 92 232.445312 92 232.933594 M 65.5 246.242188 C 65.5 246.5625 64.992188 246.832031 64.375 246.835938 C 63.757812 246.839844 62.914062 247.058594 62.5 247.328125 C 61.941406 247.6875 62.210938 247.8125 63.570312 247.820312 C 65.253906 247.824219 66.546875 246.707031 65.761719 245.921875 C 65.617188 245.777344 65.5 245.921875 65.5 246.242188 M 48.832031 248.660156 C 48.648438 248.839844 48.503906 249.234375 48.507812 249.535156 C 48.511719 249.882812 48.644531 249.871094 48.886719 249.492188 C 49.089844 249.167969 50.042969 248.8125 51.003906 248.695312 L 52.75 248.484375 L 50.957031 248.40625 C 49.972656 248.363281 49.015625 248.476562 48.832031 248.660156 M 190.117188 255.820312 C 190.117188 256.78125 190.21875 257.175781 190.34375 256.695312 C 190.46875 256.214844 190.46875 255.425781 190.34375 254.945312 C 190.21875 254.464844 190.117188 254.859375 190.117188 255.820312 M 189.625 259.566406 C 189.632812 260.667969 189.734375 261.058594 189.855469 260.4375 C 189.972656 259.816406 189.96875 258.914062 189.84375 258.4375 C 189.71875 257.960938 189.621094 258.46875 189.625 259.566406 M 43.570312 272.261719 C 43.070312 272.574219 43.046875 272.777344 43.480469 273.046875 C 44.167969 273.46875 44.679688 273.09375 44.425781 272.355469 C 44.324219 272.054688 43.96875 272.015625 43.570312 272.261719 M 200.332031 280.644531 C 200.65625 280.875 201.019531 281.847656 201.148438 282.804688 C 201.367188 284.476562 201.375 284.46875 201.3125 282.589844 C 201.273438 281.3125 200.988281 280.558594 200.5 280.429688 C 199.988281 280.289062 199.9375 280.359375 200.332031 280.644531 M 39 292.253906 C 39 292.503906 38.863281 293.070312 38.695312 293.507812 C 38.46875 294.089844 38.605469 294.222656 39.195312 293.996094 C 40.0625 293.664062 40.324219 291.796875 39.5 291.796875 C 39.226562 291.796875 39 292 39 292.253906 M 71.375 445.453125 C 70.398438 446.761719 70.242188 447.6875 71 447.6875 C 71.273438 447.6875 71.5 447.28125 71.5 446.785156 C 71.5 446.292969 71.765625 445.621094 72.089844 445.296875 C 72.417969 444.96875 72.585938 444.609375 72.464844 444.496094 C 72.347656 444.378906 71.855469 444.8125 71.375 445.453125 M 69.5 454.179688 C 69.5 454.457031 70.398438 454.679688 71.5 454.679688 C 72.601562 454.679688 73.5 454.457031 73.5 454.179688 C 73.5 453.90625 72.601562 453.679688 71.5 453.679688 C 70.398438 453.679688 69.5 453.90625 69.5 454.179688 M 74 454.179688 C 74 454.457031 75.21875 454.679688 76.707031 454.679688 C 78.199219 454.679688 79.828125 454.835938 80.332031 455.023438 C 81.140625 455.328125 81.167969 455.265625 80.5625 454.523438 C 79.796875 453.582031 74 453.277344 74 454.179688 M 82.125 461.925781 C 82.132812 463.023438 82.234375 463.414062 82.355469 462.792969 C 82.472656 462.171875 82.46875 461.273438 82.34375 460.796875 C 82.21875 460.316406 82.121094 460.828125 82.125 461.925781 M 96.007812 485.535156 C 96.003906 486.371094 96.289062 486.65625 97.125 486.652344 C 97.953125 486.644531 98.070312 486.527344 97.566406 486.210938 C 97.191406 485.972656 96.6875 485.46875 96.449219 485.09375 C 96.128906 484.589844 96.015625 484.707031 96.007812 485.535156 M 180.632812 502.992188 C 181.117188 503.121094 181.382812 503.429688 181.226562 503.683594 C 180.777344 504.410156 181.492188 504.222656 182.320312 503.398438 C 182.988281 502.730469 182.886719 502.652344 181.410156 502.703125 C 180.496094 502.738281 180.144531 502.867188 180.632812 502.992188 M 119 505.339844 C 119 505.53125 119.449219 506.167969 120 506.757812 C 120.550781 507.347656 121 507.601562 121 507.316406 C 121 507.03125 120.550781 506.390625 120 505.894531 C 119.449219 505.398438 119 505.148438 119 505.339844 M 159.804688 506.4375 C 159.390625 507.511719 159.417969 507.644531 160.03125 507.644531 C 160.320312 507.644531 160.421875 507.417969 160.25 507.144531 C 160.078125 506.867188 160.304688 506.644531 160.75 506.644531 C 161.195312 506.644531 161.421875 506.417969 161.25 506.144531 C 160.792969 505.40625 160.148438 505.535156 159.804688 506.4375 M 155.5 507.644531 C 155.8125 508.226562 156.496094 508.613281 157.140625 508.574219 L 158.25 508.507812 L 157.125 508.289062 C 156.507812 508.171875 156 507.753906 156 507.359375 C 156 506.964844 155.765625 506.644531 155.484375 506.644531 C 155.132812 506.644531 155.136719 506.964844 155.5 507.644531 "/>
<path style=" stroke:none;fill-rule:evenodd;fill:rgb(23.529412%,36.078431%,29.803922%);fill-opacity:1;" d="M 330.625 295.136719 C 331.105469 295.261719 331.894531 295.261719 332.375 295.136719 C 332.855469 295.011719 332.460938 294.910156 331.5 294.910156 C 330.539062 294.910156 330.144531 295.011719 330.625 295.136719 M 338.132812 295.652344 C 338.890625 295.765625 340.015625 295.761719 340.632812 295.644531 C 341.246094 295.527344 340.625 295.429688 339.25 295.433594 C 337.875 295.4375 337.371094 295.535156 338.132812 295.652344 M 342.542969 295.917969 C 342.65625 295.984375 343.425781 296.605469 344.25 297.292969 L 345.75 298.539062 L 344.539062 297.167969 C 343.871094 296.410156 343.101562 295.792969 342.828125 295.792969 C 342.554688 295.792969 342.425781 295.847656 342.542969 295.917969 "/>
</g>
</svg>
