<svg id="svg" version="1.1" xmlns="http://www.w3.org/2000/svg" xmlns:xlink="http://www.w3.org/1999/xlink" width="400" height="569.5057833859096" viewBox="0, 0, 400,569.5057833859096"><g id="svgg"><path id="path0" d="M133.200 166.961 C 131.826 167.688,128.312 168.034,126.777 167.593 C 125.657 167.272,125.369 167.370,124.312 168.427 C 123.654 169.085,122.639 169.874,122.058 170.181 C 121.476 170.488,120.662 171.199,120.250 171.762 C 119.837 172.325,119.322 172.675,119.105 172.541 C 118.888 172.407,118.596 172.468,118.455 172.676 C 118.070 173.248,114.925 174.400,113.750 174.400 C 113.181 174.400,111.250 174.835,109.458 175.367 C 107.666 175.898,104.098 176.640,101.529 177.014 L 96.857 177.695 95.529 179.348 C 94.798 180.256,94.200 181.105,94.200 181.233 C 94.200 181.653,91.680 184.347,91.478 184.144 C 91.369 184.036,91.302 184.184,91.328 184.473 C 91.385 185.090,89.940 188.138,89.498 188.334 C 89.331 188.408,89.297 188.633,89.421 188.834 C 89.545 189.035,89.457 189.200,89.224 189.200 C 88.991 189.200,88.800 189.470,88.800 189.800 C 88.800 190.567,88.224 190.567,87.458 189.801 C 87.129 189.472,86.576 189.311,86.230 189.444 C 85.818 189.602,85.600 189.463,85.600 189.043 C 85.600 188.689,85.375 188.445,85.100 188.500 C 84.825 188.555,84.641 188.388,84.690 188.129 C 84.753 187.803,84.221 187.712,82.964 187.836 C 81.916 187.938,80.389 187.756,79.359 187.407 C 78.376 187.073,76.678 186.800,75.586 186.800 C 74.267 186.800,73.598 186.632,73.594 186.300 C 73.590 185.990,73.476 185.952,73.294 186.200 C 73.132 186.420,72.041 186.633,70.869 186.674 C 68.015 186.773,66.661 187.658,67.001 189.204 C 67.253 190.350,65.582 191.280,63.200 191.320 C 62.870 191.326,62.044 191.641,61.365 192.022 C 60.633 192.432,59.685 192.629,59.041 192.506 C 58.176 192.340,57.907 192.470,57.733 193.136 C 57.598 193.651,56.759 194.315,55.557 194.858 C 54.221 195.462,53.600 195.982,53.600 196.495 C 53.600 196.909,53.433 197.144,53.229 197.018 C 53.025 196.892,52.743 197.151,52.602 197.594 C 52.403 198.222,51.999 198.400,50.773 198.400 C 49.908 198.400,49.200 198.593,49.200 198.829 C 49.200 199.392,48.158 200.424,47.874 200.141 C 47.644 199.911,46.421 199.751,41.937 199.365 C 39.591 199.162,39.247 199.222,39.043 199.868 C 38.704 200.941,37.968 204.504,37.942 205.200 C 37.930 205.530,37.739 206.520,37.517 207.400 C 37.296 208.280,37.038 209.630,36.943 210.400 C 36.849 211.170,36.412 213.510,35.974 215.600 C 35.535 217.690,34.926 220.878,34.621 222.685 C 34.315 224.492,33.965 226.134,33.841 226.333 C 33.718 226.532,33.501 227.664,33.359 228.848 C 33.216 230.032,32.916 231.117,32.692 231.260 C 32.467 231.402,32.397 231.814,32.535 232.175 C 32.674 232.537,32.566 232.915,32.293 233.020 C 31.996 233.134,31.787 234.041,31.766 235.307 C 31.748 236.461,31.541 237.764,31.307 238.202 C 31.073 238.641,30.749 240.080,30.587 241.400 C 30.425 242.720,30.124 244.250,29.917 244.800 C 29.710 245.350,29.445 247.060,29.329 248.600 C 29.212 250.140,28.935 251.624,28.711 251.898 C 28.488 252.171,28.398 252.879,28.511 253.469 C 28.652 254.204,28.397 255.026,27.707 256.069 C 26.922 257.254,26.800 257.718,27.157 258.148 C 27.520 258.585,27.446 258.747,26.808 258.914 C 26.348 259.034,26.000 259.459,26.000 259.901 C 26.000 260.722,24.695 262.162,24.304 261.771 C 24.177 261.644,23.944 261.958,23.787 262.470 C 23.630 262.981,22.938 263.943,22.251 264.607 C 20.251 266.536,19.293 267.981,19.009 269.491 C 18.700 271.139,17.086 273.832,15.668 275.065 C 14.418 276.153,15.111 277.082,17.380 277.364 C 22.475 277.995,26.187 279.910,24.951 281.268 C 24.484 281.780,23.600 282.973,22.986 283.918 C 22.286 284.996,21.763 285.464,21.585 285.175 C 21.397 284.872,21.214 284.854,21.048 285.123 C 20.909 285.348,20.984 285.595,21.214 285.671 C 21.710 285.837,20.542 288.400,19.971 288.400 C 19.767 288.400,19.642 288.535,19.694 288.700 C 19.843 289.175,16.731 294.000,16.276 294.000 C 16.051 294.000,15.976 294.109,16.109 294.243 C 16.243 294.376,16.172 294.691,15.953 294.943 C 14.133 297.027,9.541 307.109,9.679 308.717 L 9.800 310.129 15.918 311.780 C 19.283 312.688,21.925 313.542,21.789 313.678 C 21.446 314.021,23.887 314.517,24.390 314.206 C 24.616 314.067,24.800 314.123,24.800 314.331 C 24.800 314.539,25.295 314.798,25.900 314.906 C 28.885 315.439,42.809 319.478,45.349 320.548 C 46.201 320.906,47.426 321.200,48.072 321.200 C 48.784 321.200,49.146 321.364,48.990 321.616 C 48.823 321.886,49.096 321.941,49.766 321.773 C 50.453 321.600,50.800 321.676,50.800 321.999 C 50.800 322.289,51.070 322.382,51.468 322.229 C 51.835 322.088,52.240 322.126,52.368 322.314 C 52.496 322.501,54.400 323.157,56.600 323.771 C 58.800 324.384,60.884 325.137,61.231 325.443 C 61.579 325.750,62.419 326.000,63.099 326.000 C 64.335 326.000,64.335 326.001,63.920 327.500 C 63.480 329.091,63.285 330.545,62.930 334.900 C 62.809 336.385,62.550 337.600,62.355 337.600 C 62.160 337.600,62.000 338.374,62.000 339.320 C 62.000 340.266,61.819 341.221,61.599 341.441 C 61.378 341.662,61.137 342.553,61.062 343.421 C 60.987 344.290,60.730 345.473,60.491 346.052 C 60.252 346.630,60.107 347.440,60.168 347.852 C 60.273 348.563,60.164 348.891,59.177 350.831 C 58.944 351.289,58.677 352.144,58.583 352.731 C 58.198 355.143,57.708 356.595,57.307 356.514 C 57.073 356.466,56.969 356.761,57.076 357.168 C 57.292 357.997,56.113 359.600,55.287 359.600 C 54.993 359.600,54.848 359.753,54.964 359.941 C 55.080 360.129,54.916 360.624,54.600 361.041 C 53.757 362.154,53.856 363.469,54.800 363.716 C 55.240 363.831,55.600 363.762,55.600 363.563 C 55.600 363.003,58.705 363.131,58.935 363.700 C 59.096 364.100,59.143 364.100,59.168 363.700 C 59.190 363.361,59.948 363.200,61.520 363.200 C 63.903 363.200,64.898 363.680,64.526 364.649 C 64.410 364.952,64.508 365.200,64.745 365.200 C 64.981 365.200,65.071 365.470,64.945 365.800 C 64.818 366.130,64.884 366.400,65.091 366.400 C 65.515 366.400,65.561 366.604,65.775 369.400 C 65.860 370.500,66.021 371.670,66.134 372.000 C 66.968 374.436,67.217 375.649,66.967 376.054 C 66.785 376.348,66.849 376.417,67.138 376.238 C 67.392 376.081,67.600 376.149,67.600 376.388 C 67.600 376.926,70.683 380.882,71.444 381.320 C 72.123 381.711,72.168 382.872,71.529 383.511 C 71.169 383.871,71.216 384.154,71.730 384.723 C 72.100 385.131,72.281 385.585,72.134 385.732 C 71.987 385.880,72.129 386.000,72.449 386.000 C 73.297 386.000,76.013 387.453,75.718 387.749 C 75.486 387.980,76.194 388.159,76.900 388.047 C 77.065 388.021,77.200 388.184,77.200 388.409 C 77.200 388.633,77.650 389.022,78.200 389.273 C 78.750 389.523,79.200 389.957,79.200 390.236 C 79.200 390.992,81.795 393.600,82.547 393.600 C 82.906 393.600,83.200 393.764,83.200 393.964 C 83.200 394.485,85.285 397.600,85.633 397.600 C 86.767 397.600,90.800 402.429,90.800 403.787 C 90.800 404.659,90.961 405.148,91.200 405.000 C 91.420 404.864,91.600 404.929,91.600 405.145 C 91.600 406.111,94.112 406.112,94.855 405.146 C 95.503 404.303,95.804 404.373,95.637 405.330 C 95.606 405.511,95.766 405.545,95.993 405.404 C 96.220 405.264,96.529 405.472,96.681 405.866 C 97.531 408.081,99.598 409.338,101.622 408.871 C 103.148 408.518,103.948 408.543,105.427 408.988 C 108.419 409.888,114.562 409.392,117.811 407.988 C 119.391 407.305,124.237 405.629,124.700 405.605 C 124.755 405.602,124.800 405.870,124.800 406.200 C 124.800 407.286,127.145 406.959,127.673 405.800 C 128.163 404.723,128.594 404.543,129.022 405.235 C 129.169 405.474,129.630 405.581,130.045 405.472 C 130.460 405.364,130.800 405.400,130.800 405.552 C 130.800 406.307,133.185 405.957,133.774 405.115 C 134.118 404.624,134.400 404.386,134.400 404.587 C 134.400 404.788,134.625 404.661,134.900 404.305 C 135.224 403.884,136.243 403.588,137.800 403.461 C 139.120 403.353,140.830 403.159,141.600 403.030 C 142.370 402.900,144.350 402.653,146.000 402.479 C 147.650 402.306,149.567 401.861,150.261 401.492 C 151.294 400.941,151.560 400.918,151.731 401.365 C 151.935 401.896,158.359 399.703,159.380 398.753 C 159.589 398.559,160.016 398.400,160.330 398.400 C 160.643 398.400,161.912 397.969,163.150 397.441 C 164.387 396.914,167.363 395.702,169.763 394.747 C 179.634 390.818,184.819 386.362,191.966 375.665 L 195.263 370.730 194.786 368.665 C 194.524 367.529,193.895 364.980,193.389 363.000 C 192.883 361.020,192.256 357.690,191.995 355.600 C 191.667 352.962,191.296 351.555,190.784 350.998 C 190.010 350.158,193.098 341.996,194.188 342.002 C 194.414 342.003,196.451 342.723,198.714 343.602 C 203.552 345.481,204.332 345.542,205.969 344.164 C 207.612 342.782,207.664 342.886,203.900 339.994 C 194.006 332.391,190.800 329.829,190.800 329.522 C 190.800 329.335,193.421 325.656,196.625 321.346 C 202.727 313.137,202.782 313.011,200.871 311.651 L 199.679 310.802 196.740 314.787 C 195.123 316.979,193.574 318.778,193.297 318.786 C 192.912 318.797,186.143 315.217,185.226 314.518 C 185.131 314.445,185.659 313.132,186.400 311.600 C 187.983 308.327,188.177 308.673,183.959 307.258 C 179.801 305.865,179.323 304.853,182.039 303.200 C 189.482 298.670,195.170 283.739,195.256 268.504 C 195.316 257.795,193.507 243.377,191.403 237.798 C 190.822 236.259,190.240 234.653,190.108 234.228 C 189.637 232.708,188.531 231.885,183.800 229.539 L 179.000 227.158 178.200 228.244 C 177.760 228.840,177.016 229.788,176.547 230.350 L 175.695 231.370 171.147 230.279 C 168.646 229.678,165.970 229.085,165.200 228.961 C 164.430 228.837,163.440 228.586,163.000 228.404 C 162.560 228.222,161.885 227.972,161.500 227.849 C 161.002 227.690,160.800 227.204,160.800 226.166 C 160.800 224.867,160.705 224.732,159.935 224.933 C 158.905 225.202,157.600 224.588,157.600 223.833 C 157.600 222.544,155.041 221.226,153.892 221.923 C 152.972 222.481,152.460 222.505,150.086 222.097 C 148.577 221.839,146.726 221.718,145.972 221.828 C 143.617 222.173,143.388 221.667,144.565 218.724 C 145.134 217.301,145.600 216.010,145.600 215.855 C 145.600 215.253,148.495 212.720,149.812 212.169 C 150.575 211.850,151.204 211.457,151.208 211.295 C 151.231 210.429,152.415 202.467,152.635 201.700 C 152.821 201.053,152.725 200.800,152.296 200.800 C 151.516 200.800,150.633 199.751,151.146 199.434 C 151.568 199.173,153.371 193.651,153.965 190.800 C 154.615 187.682,154.652 182.403,154.026 182.016 C 153.444 181.657,153.547 179.279,154.398 173.400 C 155.081 168.686,155.109 168.989,154.000 169.100 C 153.450 169.155,152.342 169.489,151.538 169.843 C 149.877 170.575,146.859 169.935,140.800 167.566 C 137.557 166.299,134.859 166.084,133.200 166.961 " stroke="none" fill="#e38ccb" fill-rule="evenodd"></path><path id="path1" d="M199.375 231.951 C 197.542 232.476,191.718 235.111,190.899 235.786 C 190.843 235.831,191.168 236.933,191.620 238.234 C 194.724 247.162,196.294 270.705,194.404 279.979 C 192.404 289.797,186.813 300.294,182.039 303.200 C 179.323 304.853,179.801 305.865,183.959 307.258 C 188.177 308.673,187.983 308.327,186.400 311.600 C 185.659 313.132,185.131 314.445,185.226 314.518 C 186.143 315.217,192.912 318.797,193.297 318.786 C 193.574 318.778,195.123 316.979,196.740 314.787 L 199.679 310.802 200.871 311.651 C 202.782 313.011,202.727 313.137,196.625 321.346 C 193.421 325.656,190.800 329.335,190.800 329.522 C 190.800 329.829,194.006 332.391,203.900 339.994 C 207.664 342.886,207.612 342.782,205.969 344.164 C 204.332 345.542,203.552 345.481,198.714 343.602 C 196.451 342.723,194.414 342.003,194.188 342.002 C 193.098 341.996,190.010 350.158,190.784 350.998 C 191.296 351.555,191.667 352.962,191.995 355.600 C 192.256 357.690,192.883 361.020,193.389 363.000 C 193.895 364.980,194.524 367.529,194.786 368.665 L 195.263 370.730 191.966 375.665 C 184.819 386.362,179.634 390.818,169.763 394.747 C 167.363 395.702,164.387 396.914,163.150 397.441 C 161.912 397.969,160.643 398.400,160.330 398.400 C 160.016 398.400,159.589 398.564,159.380 398.765 C 159.171 398.966,157.515 399.699,155.700 400.394 C 152.407 401.655,152.400 401.661,152.400 403.106 C 152.400 404.501,154.905 407.600,156.034 407.600 C 156.235 407.600,156.400 408.110,156.400 408.733 C 156.400 409.357,156.535 410.002,156.700 410.167 C 156.865 410.332,157.000 410.600,157.000 410.763 C 157.000 411.239,159.355 413.600,159.829 413.600 C 160.066 413.600,160.669 414.035,161.168 414.566 C 161.667 415.098,162.509 415.641,163.038 415.774 C 164.109 416.042,164.284 416.594,163.454 417.080 C 162.744 417.496,161.600 419.746,161.600 420.725 C 161.600 421.419,160.672 422.823,158.376 425.600 C 157.922 426.150,157.258 427.185,156.901 427.900 C 156.544 428.615,156.105 429.200,155.926 429.200 C 155.747 429.200,155.600 429.427,155.600 429.704 C 155.600 429.981,155.240 430.432,154.800 430.707 C 154.360 430.982,154.000 431.475,154.000 431.803 C 154.000 432.132,153.820 432.400,153.600 432.400 C 153.380 432.400,153.200 432.735,153.200 433.145 C 153.200 433.555,152.660 434.569,152.000 435.400 C 151.340 436.231,150.800 437.125,150.800 437.389 C 150.800 437.652,150.260 438.349,149.600 438.937 C 148.940 439.525,148.400 440.293,148.400 440.643 C 148.400 440.993,147.850 441.793,147.178 442.421 C 144.967 444.486,145.120 446.015,147.663 447.266 C 148.838 447.845,150.710 448.792,151.822 449.372 C 154.467 450.749,156.800 451.162,156.800 450.252 C 156.800 449.424,156.632 449.393,159.736 450.800 C 163.204 452.372,164.565 452.385,165.042 450.848 L 165.400 449.695 167.600 450.829 C 168.810 451.453,170.430 452.286,171.200 452.681 C 171.970 453.077,172.690 453.513,172.800 453.651 C 174.324 455.567,178.400 455.237,178.400 453.199 C 178.400 452.843,178.764 452.160,179.208 451.683 C 179.653 451.206,180.000 450.767,179.980 450.708 C 179.960 450.648,180.136 450.093,180.372 449.474 C 180.607 448.855,180.800 448.184,180.800 447.983 C 180.800 447.783,181.250 447.324,181.800 446.963 C 182.350 446.603,182.800 446.136,182.800 445.926 C 182.800 445.716,183.301 444.792,183.912 443.872 C 185.059 442.148,185.393 441.474,186.626 438.400 C 187.849 435.350,190.425 433.623,191.400 435.200 C 192.176 436.456,195.686 431.699,196.564 428.201 C 196.702 427.650,197.002 427.200,197.231 427.200 C 197.460 427.200,197.544 427.032,197.417 426.828 C 196.863 425.932,198.179 426.012,199.615 426.962 C 201.274 428.061,202.194 428.257,202.600 427.600 C 202.736 427.380,203.282 427.200,203.813 427.200 C 204.477 427.200,204.969 426.833,205.385 426.028 C 205.878 425.075,206.235 424.865,207.296 424.904 C 208.013 424.930,208.915 424.808,209.300 424.633 C 210.203 424.222,210.285 425.666,209.400 426.400 C 208.727 426.959,208.583 428.400,209.200 428.400 C 209.822 428.400,209.671 429.443,208.965 430.029 C 208.395 430.502,208.420 430.590,209.207 430.881 C 210.051 431.193,210.074 431.343,209.804 434.749 C 209.582 437.554,209.650 438.537,210.132 439.468 C 210.524 440.227,210.802 442.196,210.915 445.022 C 211.070 448.920,211.172 449.416,211.845 449.543 C 213.065 449.774,213.600 450.420,213.600 451.662 C 213.600 452.402,213.855 452.921,214.300 453.090 C 215.589 453.578,216.000 454.330,216.000 456.203 L 216.000 458.064 218.700 457.799 C 220.185 457.654,222.480 457.349,223.800 457.121 C 225.120 456.893,226.875 456.618,227.700 456.511 C 229.238 456.311,229.766 455.392,228.600 454.945 C 227.955 454.697,227.729 452.000,228.353 452.000 C 229.009 452.000,229.204 450.234,228.587 449.888 C 228.264 449.708,228.000 449.209,228.000 448.780 C 228.000 448.351,227.851 448.000,227.669 448.000 C 227.171 448.000,227.635 445.443,228.193 445.114 C 228.852 444.726,228.870 442.556,228.217 442.014 C 227.846 441.706,227.781 441.170,227.998 440.208 C 228.168 439.456,228.212 438.745,228.096 438.630 C 227.981 438.514,228.062 438.190,228.277 437.910 C 228.492 437.629,228.888 436.320,229.157 435.000 C 230.178 429.992,230.844 428.316,231.558 428.959 C 232.401 429.719,235.509 430.787,236.900 430.794 C 238.429 430.802,238.462 428.259,236.966 425.707 C 236.081 424.196,235.972 423.660,236.204 421.971 C 236.397 420.568,236.339 420.000,236.002 420.000 C 235.666 420.000,235.596 419.339,235.761 417.721 C 236.105 414.348,236.446 412.800,236.845 412.800 C 237.040 412.800,237.200 412.260,237.200 411.600 C 237.200 410.940,237.020 410.400,236.800 410.400 C 236.580 410.400,236.400 410.130,236.400 409.800 C 236.400 409.470,236.557 409.200,236.749 409.200 C 236.941 409.200,237.211 408.493,237.349 407.628 C 237.487 406.764,237.890 405.767,238.244 405.413 C 238.628 405.029,238.812 404.373,238.699 403.785 C 238.596 403.243,238.674 402.800,238.874 402.800 C 240.103 402.800,241.001 400.935,241.046 398.287 C 241.104 394.920,240.893 395.083,244.764 395.421 L 248.000 395.703 248.000 397.184 C 248.000 398.344,248.211 398.778,248.975 399.186 C 250.155 399.818,251.199 399.041,251.201 397.529 C 251.202 397.018,251.562 396.011,252.001 395.290 C 252.441 394.570,252.800 393.747,252.800 393.461 C 252.800 393.176,253.565 392.548,254.500 392.067 C 257.763 390.387,258.390 389.604,259.059 386.373 C 259.396 384.745,259.836 383.107,260.036 382.733 C 260.236 382.359,260.421 381.276,260.447 380.326 C 260.493 378.660,261.045 375.784,261.163 376.600 C 261.195 376.820,261.680 376.100,262.241 375.000 C 263.622 372.292,263.493 372.350,266.200 373.239 C 271.736 375.058,273.200 375.706,273.232 376.349 C 273.249 376.707,273.343 376.807,273.441 376.571 C 273.623 376.134,276.033 376.295,276.400 376.768 C 276.628 377.062,279.778 377.834,282.302 378.215 C 283.238 378.356,283.902 378.635,283.778 378.835 C 283.654 379.036,283.743 379.200,283.976 379.200 C 284.209 379.200,284.400 379.020,284.400 378.800 C 284.400 378.580,285.020 378.400,285.777 378.400 C 287.111 378.400,287.158 378.347,287.277 376.700 C 287.372 375.390,287.606 374.910,288.296 374.607 C 288.789 374.391,289.149 374.005,289.096 373.750 C 289.043 373.494,289.505 372.816,290.122 372.242 C 291.379 371.072,292.149 368.835,292.822 364.400 C 293.072 362.750,293.520 360.860,293.818 360.200 C 294.408 358.891,295.174 355.473,295.408 353.099 C 295.490 352.273,295.830 351.103,296.166 350.499 C 297.075 348.860,298.000 346.394,298.000 345.612 C 298.000 345.233,298.360 344.507,298.800 344.000 C 299.240 343.493,299.600 342.756,299.600 342.362 C 299.600 341.969,299.756 341.551,299.946 341.433 C 300.136 341.316,300.395 340.583,300.522 339.806 C 300.648 339.028,301.090 337.899,301.504 337.296 C 301.918 336.693,302.573 335.347,302.960 334.304 C 303.741 332.198,304.250 331.690,304.915 332.355 C 306.922 334.362,309.507 330.959,307.813 328.540 C 307.284 327.785,307.304 327.630,308.013 326.989 C 308.891 326.194,309.079 323.086,308.421 320.251 C 308.182 319.220,308.212 318.373,308.509 317.721 C 308.843 316.986,308.835 316.548,308.475 315.972 C 308.146 315.444,308.104 314.719,308.343 313.657 C 308.534 312.807,308.545 311.231,308.369 310.156 C 307.914 307.388,307.930 304.491,308.400 304.200 C 308.620 304.064,308.800 303.603,308.800 303.176 C 308.800 302.749,308.980 302.400,309.200 302.400 C 309.420 302.400,309.600 302.124,309.600 301.787 C 309.600 301.451,309.859 301.076,310.176 300.954 C 310.492 300.833,310.863 300.223,311.000 299.600 C 311.137 298.977,311.508 298.367,311.824 298.246 C 312.141 298.124,312.400 297.732,312.400 297.374 C 312.400 296.639,313.450 294.665,314.500 293.426 C 314.885 292.972,315.436 292.319,315.725 291.975 C 316.014 291.631,316.188 291.163,316.112 290.935 C 316.036 290.707,316.249 290.291,316.587 290.011 C 316.924 289.731,317.200 289.254,317.200 288.951 C 317.200 288.648,317.524 288.400,317.920 288.400 C 318.316 288.400,318.811 288.235,319.020 288.033 C 319.229 287.832,319.760 287.607,320.200 287.533 C 320.640 287.460,321.270 287.091,321.600 286.713 C 322.400 285.796,326.931 283.600,328.021 283.600 C 328.739 283.600,328.950 281.688,328.267 281.370 C 328.230 281.353,327.549 280.948,326.753 280.469 C 325.957 279.991,324.994 279.600,324.613 279.600 C 324.232 279.600,323.354 279.353,322.660 279.052 C 321.439 278.521,317.989 277.906,312.200 277.187 C 308.724 276.755,307.252 276.407,306.970 275.952 C 306.851 275.759,305.514 275.600,304.000 275.600 C 302.486 275.600,301.136 275.420,301.000 275.200 C 300.864 274.980,299.728 274.799,298.476 274.797 C 290.884 274.788,290.235 274.420,291.846 271.039 C 292.151 270.400,292.400 269.629,292.400 269.326 C 292.400 268.084,294.151 263.700,295.237 262.224 C 295.877 261.354,296.400 260.402,296.400 260.107 C 296.400 259.813,296.653 259.173,296.962 258.686 C 297.713 257.501,298.207 254.400,297.644 254.400 C 297.410 254.400,296.905 254.895,296.522 255.500 C 296.139 256.105,294.635 258.061,293.179 259.846 C 291.723 261.631,289.108 265.206,287.366 267.790 L 284.200 272.488 283.928 269.144 C 283.778 267.305,283.440 263.820,283.178 261.400 C 282.671 256.725,283.106 253.926,285.625 245.658 C 286.051 244.260,286.400 242.946,286.400 242.738 C 286.400 241.959,282.993 240.818,280.641 240.809 C 278.412 240.800,278.180 240.704,276.409 239.047 C 274.297 237.071,274.015 237.006,265.800 236.585 C 260.746 236.326,239.981 234.397,220.800 232.404 C 207.747 231.047,202.890 230.945,199.375 231.951 " stroke="none" fill="#d4c324" fill-rule="evenodd"></path><path id="path2" d="M166.719 53.291 C 164.768 55.388,163.832 55.706,161.560 55.046 C 160.355 54.695,159.518 56.079,159.644 58.214 C 159.720 59.507,158.389 63.123,157.232 64.767 C 156.832 65.335,156.376 66.215,156.219 66.722 C 155.430 69.260,151.624 72.400,149.336 72.400 C 147.101 72.400,144.816 73.127,143.773 74.170 C 143.444 74.499,142.505 74.880,141.687 75.015 C 140.869 75.151,139.930 75.366,139.600 75.493 C 139.270 75.620,138.190 75.789,137.200 75.868 C 134.859 76.056,134.419 76.713,134.314 80.176 C 134.267 81.729,134.206 83.756,134.177 84.680 C 134.142 85.841,133.786 86.805,133.025 87.803 C 132.074 89.050,131.953 89.504,132.143 91.124 C 132.480 94.009,132.523 95.741,132.272 96.400 C 131.755 97.758,131.242 100.144,131.409 100.414 C 131.507 100.573,131.167 101.130,130.653 101.652 C 130.139 102.173,129.505 103.005,129.245 103.500 C 128.941 104.077,128.403 104.400,127.743 104.400 C 126.916 104.400,126.773 104.537,127.015 105.100 C 127.180 105.485,127.328 106.102,127.344 106.471 C 127.359 106.839,127.513 107.054,127.686 106.947 C 128.482 106.455,127.880 108.638,126.860 109.942 C 124.884 112.469,122.800 115.576,122.800 115.996 C 122.800 116.218,122.642 116.400,122.449 116.400 C 121.745 116.400,120.535 120.672,119.616 126.400 C 119.422 127.610,118.979 129.388,118.632 130.350 C 117.629 133.128,118.950 135.539,122.146 136.765 C 123.980 137.469,124.885 142.259,124.425 148.820 L 124.006 154.771 125.472 157.817 C 126.772 160.517,126.889 161.006,126.501 162.131 C 125.693 164.477,125.500 166.691,126.072 167.051 C 126.912 167.581,131.675 167.295,133.296 166.618 C 135.106 165.861,138.826 166.282,141.600 167.556 C 142.590 168.010,143.732 168.386,144.138 168.391 C 144.544 168.396,146.122 168.779,147.645 169.241 C 150.167 170.007,150.498 170.028,151.349 169.470 C 151.863 169.134,152.966 168.730,153.802 168.573 L 155.320 168.288 155.047 170.044 C 153.499 179.970,153.426 180.968,154.183 181.726 C 155.184 182.727,154.351 191.682,152.824 196.318 C 151.369 200.738,151.412 200.257,152.453 200.530 C 153.121 200.704,153.250 200.953,153.050 201.676 C 152.812 202.534,152.247 206.304,151.760 210.291 C 151.568 211.861,151.438 212.016,149.937 212.466 C 149.047 212.733,148.052 213.360,147.724 213.860 C 147.396 214.360,146.785 214.878,146.364 215.011 C 145.920 215.152,145.600 215.619,145.600 216.127 C 145.600 216.607,145.240 217.945,144.801 219.100 C 144.362 220.255,144.048 221.227,144.102 221.260 C 144.156 221.292,145.374 221.355,146.809 221.399 C 148.244 221.442,150.108 221.706,150.951 221.984 C 152.336 222.441,152.592 222.408,153.625 221.645 C 154.253 221.180,154.859 220.800,154.970 220.800 C 155.469 220.800,158.000 223.341,158.000 223.841 C 158.000 224.435,158.343 224.528,160.100 224.412 C 161.122 224.345,161.200 224.449,161.200 225.883 C 161.200 227.586,161.257 227.616,166.800 228.832 C 168.010 229.098,170.427 229.739,172.170 230.258 C 173.914 230.776,175.401 231.200,175.475 231.200 C 175.549 231.200,176.243 230.210,177.017 229.000 C 178.459 226.746,179.458 226.265,180.383 227.380 C 180.648 227.698,181.525 228.172,182.332 228.432 C 185.588 229.480,190.400 232.828,190.400 234.046 C 190.400 235.212,190.933 235.208,193.424 234.023 C 199.606 231.081,203.783 230.489,212.200 231.362 C 225.630 232.756,258.334 235.668,266.134 236.165 L 274.467 236.696 276.334 238.500 C 278.115 240.221,278.331 240.313,281.070 240.526 C 286.076 240.914,287.074 241.840,285.970 245.073 C 283.791 251.452,283.119 256.470,283.579 262.913 C 283.818 266.261,284.056 269.630,284.107 270.400 C 284.197 271.760,284.295 271.659,287.519 266.883 C 289.345 264.178,291.700 261.015,292.752 259.853 C 293.804 258.692,295.243 256.900,295.951 255.871 C 297.167 254.104,298.000 253.506,298.000 254.400 C 298.000 254.620,298.135 254.770,298.300 254.734 C 298.925 254.598,301.035 255.349,301.895 256.015 C 302.388 256.396,303.645 256.836,304.690 256.993 C 305.735 257.149,307.090 257.536,307.701 257.852 C 308.363 258.194,309.820 258.405,311.306 258.374 C 312.757 258.343,314.385 258.573,315.200 258.923 C 316.114 259.317,317.259 259.451,318.500 259.311 C 320.165 259.122,320.402 259.189,320.417 259.848 C 320.428 260.370,320.665 260.171,321.190 259.200 C 321.606 258.430,321.867 257.440,321.769 257.000 C 321.471 255.652,322.184 254.951,323.274 255.521 C 325.538 256.705,330.579 256.904,331.294 255.838 C 331.496 255.537,331.590 255.556,331.594 255.900 C 331.608 257.022,336.352 256.529,336.642 255.376 C 337.012 253.901,336.042 249.796,335.079 248.762 C 334.032 247.639,332.400 243.172,332.400 241.432 C 332.400 239.514,331.961 237.600,331.521 237.600 C 331.045 237.600,330.344 236.901,329.453 235.539 C 328.705 234.395,328.713 233.966,329.673 223.145 C 330.066 218.718,330.039 217.838,329.461 216.070 C 328.590 213.407,328.626 212.854,329.700 212.397 C 330.195 212.186,331.261 211.606,332.069 211.107 C 332.877 210.608,334.857 209.421,336.469 208.469 C 338.857 207.058,339.694 206.280,340.989 204.269 C 341.863 202.911,342.943 201.412,343.389 200.938 C 344.747 199.493,345.112 198.954,345.264 198.164 C 345.344 197.747,345.903 197.170,346.505 196.881 C 347.131 196.581,347.600 196.030,347.600 195.594 C 347.600 194.705,350.504 191.600,351.335 191.600 C 352.071 191.600,355.537 187.390,355.860 186.105 C 356.048 185.354,355.865 184.909,355.099 184.258 C 353.651 183.027,353.534 181.887,354.621 179.632 C 355.143 178.552,355.934 176.618,356.380 175.334 C 356.849 173.982,357.697 172.540,358.395 171.906 C 359.111 171.256,359.600 170.412,359.600 169.829 C 359.600 168.465,360.291 168.176,361.116 169.196 C 361.712 169.932,361.969 169.992,362.939 169.623 C 363.559 169.387,364.228 169.294,364.425 169.416 C 364.784 169.638,366.975 168.981,369.600 167.865 C 370.704 167.396,371.247 166.750,372.165 164.810 C 372.823 163.423,373.999 161.778,374.865 161.037 C 376.450 159.680,376.829 158.540,375.823 158.153 C 375.505 158.031,374.867 157.206,374.405 156.320 C 373.943 155.433,373.291 154.434,372.957 154.099 C 372.267 153.409,372.436 153.180,374.402 152.141 C 378.435 150.010,379.794 148.194,378.400 146.800 C 377.960 146.360,377.600 145.854,377.600 145.676 C 377.600 145.498,377.099 144.823,376.487 144.176 C 375.875 143.529,375.156 142.550,374.890 142.000 C 374.316 140.815,373.494 139.480,373.165 139.200 C 372.865 138.944,371.276 136.145,369.487 132.722 C 368.212 130.283,368.146 129.998,368.744 129.519 C 370.264 128.301,375.213 126.306,376.700 126.312 C 377.195 126.314,377.600 126.154,377.600 125.958 C 377.600 125.761,377.886 125.600,378.235 125.600 C 378.584 125.600,379.061 125.094,379.294 124.475 C 379.528 123.856,380.322 122.955,381.059 122.471 C 382.863 121.289,382.781 120.932,380.013 117.911 C 378.701 116.479,377.666 115.238,377.713 115.153 C 377.761 115.069,377.730 115.040,377.644 115.089 C 377.054 115.427,375.099 113.558,374.505 112.088 C 373.828 110.411,373.744 110.351,372.400 110.559 C 371.152 110.753,370.923 110.642,370.288 109.535 L 369.576 108.293 370.988 106.481 C 371.765 105.484,372.400 104.523,372.400 104.345 C 372.400 104.166,372.940 103.741,373.600 103.400 C 374.896 102.730,375.261 101.021,374.310 100.070 C 373.923 99.683,373.923 99.415,374.310 98.795 C 374.580 98.364,374.800 97.558,374.800 97.005 C 374.800 96.267,375.012 96.000,375.600 96.000 C 376.040 96.000,376.400 95.854,376.400 95.676 C 376.400 95.498,377.845 94.742,379.612 93.995 C 381.379 93.248,383.201 92.286,383.662 91.856 C 384.400 91.169,384.661 91.134,385.848 91.563 C 387.273 92.078,388.000 91.896,388.000 91.024 C 388.000 90.733,388.630 90.014,389.400 89.427 C 390.679 88.451,390.800 88.182,390.800 86.308 C 390.800 82.910,389.312 80.200,388.545 82.200 C 387.744 84.286,380.437 80.275,378.570 76.724 C 377.932 75.511,377.066 70.673,377.026 68.100 C 377.012 67.165,376.881 66.400,376.735 66.400 C 376.589 66.400,376.349 65.680,376.200 64.800 C 376.051 63.920,375.780 63.200,375.598 63.200 C 375.415 63.200,375.296 62.182,375.333 60.937 L 375.400 58.674 373.529 58.549 C 372.168 58.458,371.410 58.626,370.746 59.163 C 370.061 59.718,369.667 59.799,369.169 59.488 C 368.360 58.983,364.832 60.038,363.021 61.328 C 362.363 61.796,361.640 62.221,361.413 62.274 C 361.186 62.326,360.280 62.551,359.400 62.775 C 356.941 63.399,355.081 63.280,352.631 62.343 C 350.498 61.526,350.353 61.519,349.621 62.181 C 349.199 62.563,348.346 62.938,347.727 63.013 C 347.107 63.089,346.102 63.273,345.494 63.423 C 344.539 63.658,344.422 63.594,344.632 62.948 C 344.808 62.407,344.771 62.346,344.496 62.730 C 344.184 63.165,343.839 63.143,342.564 62.611 C 341.633 62.222,340.959 62.122,340.880 62.361 C 340.678 62.967,338.913 62.032,338.196 60.938 C 336.989 59.095,334.774 61.285,333.694 65.390 C 333.406 66.485,332.817 67.756,332.385 68.216 C 331.953 68.675,331.594 69.310,331.587 69.626 C 331.571 70.379,330.591 71.658,330.274 71.340 C 328.932 69.999,328.000 70.911,328.000 73.563 C 328.000 76.769,327.018 80.372,325.938 81.128 C 325.383 81.517,325.278 81.813,325.571 82.166 C 325.839 82.488,325.845 82.795,325.589 83.051 C 325.373 83.267,325.118 84.693,325.022 86.221 C 324.741 90.679,324.397 91.323,319.713 96.153 C 314.872 101.144,313.565 103.336,313.164 107.132 C 313.017 108.524,312.734 109.826,312.534 110.026 C 312.040 110.520,306.567 109.526,304.800 108.622 C 302.557 107.473,298.621 105.079,298.366 104.708 C 298.238 104.521,296.978 104.408,295.566 104.458 C 294.155 104.507,292.607 104.334,292.126 104.074 C 290.841 103.377,289.858 103.494,289.284 104.415 C 289.004 104.863,288.312 105.405,287.746 105.621 C 286.944 105.925,286.765 106.210,286.937 106.906 C 287.121 107.653,286.818 107.998,285.096 109.000 C 279.741 112.118,276.985 116.496,278.486 119.501 C 278.866 120.262,278.786 120.567,277.968 121.456 C 277.305 122.178,277.157 122.566,277.500 122.688 C 278.348 122.991,278.074 124.578,277.100 125.005 C 276.353 125.333,276.223 125.658,276.333 126.919 C 276.407 127.754,276.259 128.688,276.005 128.994 C 275.654 129.416,275.676 130.070,276.093 131.710 C 276.469 133.186,276.517 134.069,276.245 134.501 C 275.747 135.291,276.566 136.400,277.649 136.400 C 278.626 136.400,278.664 138.083,277.711 139.195 C 276.795 140.266,276.553 140.214,276.075 138.844 C 275.854 138.208,275.117 137.360,274.438 136.959 C 273.546 136.432,273.140 135.839,272.973 134.815 C 272.846 134.037,272.561 133.024,272.339 132.565 C 272.117 132.106,271.974 131.476,272.022 131.165 C 272.370 128.897,270.177 126.666,268.495 127.576 C 267.597 128.062,265.546 128.555,264.884 128.444 C 262.287 128.009,253.031 130.910,253.333 132.065 C 253.433 132.448,253.313 132.829,253.066 132.911 C 252.491 133.103,250.400 132.323,250.400 131.917 C 250.400 131.748,249.689 131.496,248.821 131.357 C 247.029 131.070,245.088 129.229,244.861 127.600 C 244.784 127.050,244.502 126.060,244.233 125.400 C 243.958 124.722,243.870 123.765,244.033 123.200 C 244.223 122.537,244.334 122.440,244.360 122.913 C 244.418 123.944,245.383 124.161,246.541 123.402 C 247.448 122.807,247.877 121.200,247.127 121.200 C 246.663 121.200,247.226 119.903,248.126 118.904 C 248.813 118.140,248.862 117.855,248.461 116.974 C 248.202 116.405,248.083 115.789,248.197 115.604 C 248.312 115.419,248.179 115.173,247.902 115.057 C 247.541 114.905,247.596 114.722,248.100 114.403 C 248.485 114.160,248.800 113.733,248.800 113.455 C 248.800 112.715,250.992 111.219,252.496 110.934 C 255.593 110.348,255.997 108.694,253.155 108.239 C 251.795 108.022,251.631 107.889,251.961 107.272 C 252.594 106.090,247.743 102.807,245.354 102.802 C 244.889 102.801,244.079 102.465,243.554 102.055 C 243.029 101.645,241.845 100.926,240.921 100.458 C 239.998 99.989,239.075 99.306,238.870 98.939 C 238.326 97.967,227.341 94.316,219.900 92.633 C 218.920 92.412,218.800 92.206,218.800 90.752 L 218.800 89.119 216.955 89.266 L 215.110 89.413 211.955 86.080 C 208.969 82.926,208.252 81.586,209.228 80.983 C 209.881 80.579,209.259 77.505,208.369 76.736 C 207.826 76.267,207.600 75.551,207.600 74.303 C 207.600 72.878,207.425 72.442,206.699 72.053 C 205.887 71.618,204.398 69.556,204.448 68.937 C 204.459 68.801,204.309 68.579,204.114 68.445 C 203.919 68.310,203.274 67.159,202.679 65.887 C 201.564 63.501,200.681 62.759,199.893 63.547 C 199.644 63.796,199.296 64.000,199.120 64.000 C 198.569 64.000,198.771 63.109,199.432 62.626 C 200.064 62.164,199.190 59.262,198.300 58.867 C 198.135 58.793,198.000 58.478,198.000 58.167 C 198.000 57.389,196.547 56.000,195.733 56.000 C 195.367 56.000,195.172 56.105,195.300 56.234 C 195.429 56.362,195.282 56.767,194.975 57.134 C 194.667 57.500,194.170 58.141,193.870 58.558 C 193.350 59.282,193.254 59.249,191.763 57.830 C 190.355 56.491,190.045 56.367,188.646 56.585 C 187.578 56.751,186.891 56.648,186.446 56.255 C 186.091 55.940,185.448 55.618,185.018 55.539 C 184.587 55.460,184.137 55.003,184.018 54.524 C 183.407 52.076,180.508 50.749,179.020 52.237 C 177.902 53.355,170.984 53.240,170.178 52.090 C 169.302 50.839,168.855 50.995,166.719 53.291 " stroke="none" fill="#144444" fill-rule="evenodd"></path><path id="path3" d="" stroke="none" fill="#6c647c" fill-rule="evenodd"></path><path id="path4" d="" stroke="none" fill="#4f5d5d" fill-rule="evenodd"></path><path id="path5" d="M204.900 231.087 C 205.505 231.178,206.495 231.178,207.100 231.087 C 207.705 230.995,207.210 230.920,206.000 230.920 C 204.790 230.920,204.295 230.995,204.900 231.087 M193.500 234.027 C 192.675 234.463,192.000 234.908,192.000 235.018 C 192.000 235.127,192.720 234.849,193.600 234.400 C 194.480 233.951,195.200 233.497,195.200 233.392 C 195.200 233.130,195.197 233.131,193.500 234.027 M234.505 233.887 C 235.114 233.979,236.014 233.977,236.505 233.882 C 236.997 233.787,236.500 233.711,235.400 233.714 C 234.300 233.717,233.897 233.795,234.505 233.887 M238.905 234.287 C 239.514 234.379,240.414 234.377,240.905 234.282 C 241.397 234.187,240.900 234.111,239.800 234.114 C 238.700 234.117,238.297 234.195,238.905 234.287 M242.900 234.687 C 243.505 234.778,244.495 234.778,245.100 234.687 C 245.705 234.595,245.210 234.520,244.000 234.520 C 242.790 234.520,242.295 234.595,242.900 234.687 M247.305 235.087 C 247.914 235.179,248.814 235.177,249.305 235.082 C 249.797 234.987,249.300 234.911,248.200 234.914 C 247.100 234.917,246.697 234.995,247.305 235.087 M251.705 235.487 C 252.314 235.579,253.214 235.577,253.705 235.482 C 254.197 235.387,253.700 235.311,252.600 235.314 C 251.500 235.317,251.097 235.395,251.705 235.487 M255.900 235.882 C 256.395 235.978,257.205 235.978,257.700 235.882 C 258.195 235.787,257.790 235.709,256.800 235.709 C 255.810 235.709,255.405 235.787,255.900 235.882 M260.307 236.290 C 261.026 236.379,262.106 236.377,262.707 236.286 C 263.308 236.195,262.720 236.122,261.400 236.124 C 260.080 236.126,259.588 236.201,260.307 236.290 M266.505 236.687 C 267.114 236.779,268.014 236.777,268.505 236.682 C 268.997 236.587,268.500 236.511,267.400 236.514 C 266.300 236.517,265.897 236.595,266.505 236.687 M279.700 240.676 C 280.085 240.776,280.715 240.776,281.100 240.676 C 281.485 240.575,281.170 240.493,280.400 240.493 C 279.630 240.493,279.315 240.575,279.700 240.676 M282.924 257.800 C 282.926 259.120,283.001 259.612,283.090 258.893 C 283.179 258.174,283.177 257.094,283.086 256.493 C 282.995 255.892,282.922 256.480,282.924 257.800 M283.293 262.000 C 283.293 262.770,283.375 263.085,283.476 262.700 C 283.576 262.315,283.576 261.685,283.476 261.300 C 283.375 260.915,283.293 261.230,283.293 262.000 M289.600 264.000 C 289.130 264.660,288.836 265.200,288.946 265.200 C 289.056 265.200,289.530 264.660,290.000 264.000 C 290.470 263.340,290.764 262.800,290.654 262.800 C 290.544 262.800,290.070 263.340,289.600 264.000 " stroke="none" fill="#647c4c" fill-rule="evenodd"></path><path id="path6" d="M130.500 167.476 C 130.885 167.576,131.515 167.576,131.900 167.476 C 132.285 167.375,131.970 167.293,131.200 167.293 C 130.430 167.293,130.115 167.375,130.500 167.476 M120.946 170.087 C 120.678 170.521,121.672 170.469,122.395 170.012 C 122.859 169.718,122.786 169.651,122.065 169.705 C 121.556 169.743,121.052 169.915,120.946 170.087 M118.114 172.143 C 118.161 172.394,117.975 172.555,117.700 172.500 C 117.425 172.445,117.200 172.580,117.200 172.800 C 117.200 173.020,117.470 173.200,117.800 173.200 C 118.130 173.200,118.400 173.012,118.400 172.782 C 118.400 172.553,118.696 172.418,119.059 172.482 C 119.421 172.547,119.781 172.420,119.858 172.200 C 119.936 171.980,119.556 171.774,119.014 171.743 C 118.467 171.712,118.067 171.890,118.114 172.143 M103.379 175.966 C 103.503 176.167,103.379 176.423,103.102 176.534 C 102.799 176.656,102.878 176.749,103.300 176.768 C 103.685 176.786,104.000 176.530,104.000 176.200 C 104.000 175.870,103.809 175.600,103.576 175.600 C 103.343 175.600,103.255 175.765,103.379 175.966 M73.600 186.479 C 73.600 186.656,74.455 186.802,75.500 186.805 C 76.545 186.808,77.850 186.925,78.400 187.065 C 78.950 187.204,79.273 187.179,79.117 187.009 C 78.721 186.578,73.600 186.086,73.600 186.479 M52.400 197.133 C 52.400 197.390,51.995 197.603,51.500 197.606 C 51.005 197.609,50.330 197.787,50.000 198.000 C 49.552 198.290,49.769 198.389,50.857 198.394 C 52.202 198.400,53.237 197.503,52.609 196.876 C 52.494 196.761,52.400 196.877,52.400 197.133 M39.067 199.067 C 38.920 199.213,38.803 199.528,38.806 199.767 C 38.810 200.048,38.916 200.036,39.110 199.733 C 39.273 199.475,40.035 199.189,40.803 199.097 L 42.200 198.928 40.767 198.864 C 39.978 198.829,39.213 198.920,39.067 199.067 M152.093 204.800 C 152.093 205.570,152.175 205.885,152.276 205.500 C 152.376 205.115,152.376 204.485,152.276 204.100 C 152.175 203.715,152.093 204.030,152.093 204.800 M151.701 207.800 C 151.705 208.680,151.787 208.993,151.883 208.495 C 151.979 207.998,151.975 207.278,151.875 206.895 C 151.775 206.513,151.696 206.920,151.701 207.800 M34.857 217.963 C 34.455 218.213,34.436 218.375,34.784 218.590 C 35.333 218.929,35.745 218.629,35.542 218.038 C 35.458 217.796,35.176 217.765,34.857 217.963 M160.267 224.673 C 160.525 224.857,160.817 225.635,160.918 226.403 C 161.094 227.741,161.100 227.734,161.051 226.231 C 161.018 225.207,160.792 224.606,160.400 224.500 C 159.991 224.390,159.949 224.445,160.267 224.673 M31.200 233.967 C 31.200 234.169,31.090 234.621,30.955 234.972 C 30.776 235.438,30.884 235.543,31.355 235.362 C 32.051 235.095,32.259 233.600,31.600 233.600 C 31.380 233.600,31.200 233.765,31.200 233.967 M57.100 356.614 C 56.319 357.659,56.195 358.400,56.800 358.400 C 57.020 358.400,57.200 358.076,57.200 357.680 C 57.200 357.284,57.413 356.747,57.673 356.487 C 57.934 356.226,58.069 355.938,57.973 355.846 C 57.878 355.754,57.485 356.100,57.100 356.614 M55.600 363.600 C 55.600 363.820,56.320 364.000,57.200 364.000 C 58.080 364.000,58.800 363.820,58.800 363.600 C 58.800 363.380,58.080 363.200,57.200 363.200 C 56.320 363.200,55.600 363.380,55.600 363.600 M59.200 363.600 C 59.200 363.820,60.175 364.000,61.367 364.000 C 62.559 364.000,63.864 364.124,64.267 364.275 C 64.912 364.517,64.934 364.469,64.451 363.875 C 63.837 363.119,59.200 362.877,59.200 363.600 M65.701 369.800 C 65.705 370.680,65.787 370.993,65.883 370.495 C 65.979 369.998,65.975 369.278,65.875 368.895 C 65.775 368.513,65.696 368.920,65.701 369.800 M76.806 388.700 C 76.802 389.370,77.030 389.598,77.700 389.594 C 78.363 389.589,78.456 389.496,78.053 389.241 C 77.752 389.050,77.350 388.648,77.159 388.347 C 76.904 387.944,76.811 388.037,76.806 388.700 M144.505 402.677 C 144.893 402.778,145.107 403.027,144.981 403.230 C 144.621 403.813,145.195 403.662,145.857 403.000 C 146.390 402.467,146.310 402.405,145.129 402.446 C 144.398 402.472,144.117 402.576,144.505 402.677 M95.200 404.555 C 95.200 404.708,95.560 405.220,96.000 405.692 C 96.440 406.164,96.800 406.365,96.800 406.137 C 96.800 405.910,96.440 405.398,96.000 405.000 C 95.560 404.602,95.200 404.401,95.200 404.555 M127.843 405.433 C 127.513 406.293,127.533 406.400,128.024 406.400 C 128.257 406.400,128.336 406.220,128.200 406.000 C 128.064 405.780,128.244 405.600,128.600 405.600 C 128.956 405.600,129.136 405.420,129.000 405.200 C 128.635 404.610,128.119 404.713,127.843 405.433 M124.400 406.400 C 124.650 406.866,125.197 407.177,125.714 407.146 L 126.600 407.091 125.700 406.918 C 125.205 406.822,124.800 406.487,124.800 406.172 C 124.800 405.857,124.614 405.600,124.386 405.600 C 124.105 405.600,124.110 405.858,124.400 406.400 " stroke="none" fill="#7c648c" fill-rule="evenodd"></path><path id="path7" d="" stroke="none" fill="#3c545c" fill-rule="evenodd"></path><path id="path8" d="M264.500 236.276 C 264.885 236.376,265.515 236.376,265.900 236.276 C 266.285 236.175,265.970 236.093,265.200 236.093 C 264.430 236.093,264.115 236.175,264.500 236.276 M270.505 236.687 C 271.114 236.779,272.014 236.777,272.505 236.682 C 272.997 236.587,272.500 236.511,271.400 236.514 C 270.300 236.517,269.897 236.595,270.505 236.687 M274.033 236.900 C 274.125 236.955,274.740 237.450,275.400 238.000 L 276.600 239.000 275.630 237.900 C 275.097 237.295,274.482 236.800,274.264 236.800 C 274.045 236.800,273.942 236.845,274.033 236.900 " stroke="none" fill="#3c5c4c" fill-rule="evenodd"></path></g></svg>