<?xml version="1.0" encoding="UTF-8"?>
<svg xmlns="http://www.w3.org/2000/svg" xmlns:xlink="http://www.w3.org/1999/xlink" width="550px" height="784px" viewBox="0 0 550 783" version="1.1">
<g id="surface1">
<path style=" stroke:none;fill-rule:evenodd;fill:rgb(89.019608%,54.901961%,79.607843%);fill-opacity:1;" d="M 183.148438 229.351562 C 181.261719 230.351562 176.429688 230.824219 174.320312 230.21875 C 172.777344 229.777344 172.382812 229.914062 170.929688 231.367188 C 170.023438 232.269531 168.628906 233.351562 167.828125 233.773438 C 167.03125 234.195312 165.910156 235.171875 165.34375 235.945312 C 164.777344 236.71875 164.066406 237.199219 163.769531 237.015625 C 163.472656 236.832031 163.070312 236.917969 162.875 237.203125 C 162.347656 237.988281 158.023438 239.570312 156.40625 239.570312 C 155.625 239.570312 152.96875 240.167969 150.503906 240.898438 C 148.039062 241.628906 143.132812 242.648438 139.601562 243.160156 L 133.179688 244.097656 L 131.351562 246.367188 C 130.347656 247.613281 129.523438 248.78125 129.523438 248.957031 C 129.523438 249.535156 126.058594 253.234375 125.78125 252.957031 C 125.632812 252.808594 125.539062 253.011719 125.574219 253.40625 C 125.65625 254.253906 123.667969 258.441406 123.058594 258.710938 C 122.832031 258.8125 122.785156 259.121094 122.953125 259.398438 C 123.125 259.675781 123.003906 259.902344 122.683594 259.902344 C 122.363281 259.902344 122.101562 260.273438 122.101562 260.726562 C 122.101562 261.777344 121.308594 261.777344 120.253906 260.726562 C 119.800781 260.273438 119.042969 260.054688 118.566406 260.234375 C 118 260.453125 117.699219 260.261719 117.699219 259.683594 C 117.699219 259.199219 117.390625 258.863281 117.011719 258.941406 C 116.632812 259.015625 116.382812 258.785156 116.449219 258.429688 C 116.535156 257.980469 115.804688 257.855469 114.074219 258.027344 C 112.632812 258.167969 110.535156 257.917969 109.117188 257.4375 C 107.765625 256.980469 105.433594 256.605469 103.929688 256.605469 C 102.117188 256.605469 101.195312 256.375 101.191406 255.917969 C 101.1875 255.492188 101.03125 255.4375 100.777344 255.78125 C 100.554688 256.082031 99.054688 256.375 97.445312 256.429688 C 93.519531 256.566406 91.660156 257.78125 92.125 259.90625 C 92.472656 261.480469 90.175781 262.757812 86.898438 262.8125 C 86.445312 262.820312 85.308594 263.253906 84.375 263.777344 C 83.371094 264.339844 82.066406 264.613281 81.179688 264.441406 C 79.992188 264.214844 79.621094 264.394531 79.382812 265.308594 C 79.195312 266.015625 78.042969 266.925781 76.390625 267.671875 C 74.554688 268.503906 73.699219 269.21875 73.699219 269.921875 C 73.699219 270.492188 73.46875 270.8125 73.191406 270.640625 C 72.910156 270.46875 72.523438 270.824219 72.328125 271.433594 C 72.054688 272.292969 71.5 272.539062 69.8125 272.539062 C 68.625 272.539062 67.648438 272.804688 67.648438 273.128906 C 67.648438 273.902344 66.21875 275.320312 65.828125 274.929688 C 65.511719 274.613281 63.828125 274.394531 57.664062 273.863281 C 54.4375 273.585938 53.964844 273.667969 53.683594 274.554688 C 53.21875 276.03125 52.207031 280.925781 52.171875 281.878906 C 52.152344 282.332031 51.890625 283.691406 51.585938 284.902344 C 51.28125 286.109375 50.925781 287.964844 50.796875 289.023438 C 50.667969 290.082031 50.066406 293.296875 49.464844 296.167969 C 48.859375 299.039062 48.023438 303.417969 47.605469 305.898438 C 47.183594 308.382812 46.703125 310.636719 46.53125 310.910156 C 46.363281 311.183594 46.0625 312.738281 45.867188 314.363281 C 45.671875 315.992188 45.257812 317.480469 44.953125 317.679688 C 44.640625 317.875 44.546875 318.4375 44.734375 318.933594 C 44.925781 319.433594 44.777344 319.953125 44.402344 320.097656 C 43.996094 320.253906 43.707031 321.5 43.679688 323.238281 C 43.652344 324.824219 43.367188 326.613281 43.046875 327.214844 C 42.726562 327.816406 42.28125 329.792969 42.058594 331.605469 C 41.835938 333.421875 41.421875 335.523438 41.136719 336.277344 C 40.851562 337.035156 40.488281 339.382812 40.328125 341.496094 C 40.167969 343.613281 39.785156 345.652344 39.476562 346.027344 C 39.171875 346.402344 39.046875 347.375 39.203125 348.1875 C 39.398438 349.195312 39.046875 350.324219 38.097656 351.757812 C 37.019531 353.386719 36.851562 354.023438 37.339844 354.613281 C 37.839844 355.214844 37.738281 355.4375 36.859375 355.667969 C 36.226562 355.832031 35.75 356.414062 35.75 357.023438 C 35.75 358.148438 33.957031 360.128906 33.417969 359.589844 C 33.242188 359.417969 32.921875 359.847656 32.707031 360.550781 C 32.492188 361.253906 31.539062 362.574219 30.59375 363.488281 C 27.84375 366.136719 26.527344 368.121094 26.136719 370.195312 C 25.710938 372.460938 23.492188 376.160156 21.542969 377.851562 C 19.824219 379.347656 20.777344 380.625 23.898438 381.011719 C 30.902344 381.878906 36.007812 384.507812 34.308594 386.375 C 33.664062 387.078125 32.449219 388.714844 31.605469 390.015625 C 30.644531 391.496094 29.925781 392.136719 29.679688 391.742188 C 29.421875 391.324219 29.167969 391.300781 28.941406 391.667969 C 28.75 391.976562 28.851562 392.316406 29.167969 392.421875 C 29.851562 392.648438 28.246094 396.171875 27.460938 396.171875 C 27.179688 396.171875 27.007812 396.355469 27.078125 396.582031 C 27.285156 397.234375 23.003906 403.863281 22.378906 403.863281 C 22.070312 403.863281 21.96875 404.011719 22.148438 404.195312 C 22.335938 404.378906 22.238281 404.8125 21.933594 405.160156 C 19.433594 408.019531 13.117188 421.871094 13.308594 424.078125 L 13.476562 426.019531 L 21.886719 428.289062 C 26.515625 429.535156 30.148438 430.707031 29.960938 430.894531 C 29.488281 431.367188 32.84375 432.046875 33.535156 431.621094 C 33.847656 431.429688 34.101562 431.503906 34.101562 431.792969 C 34.101562 432.078125 34.78125 432.433594 35.613281 432.582031 C 39.71875 433.3125 58.863281 438.863281 62.355469 440.332031 C 63.527344 440.824219 65.210938 441.226562 66.097656 441.226562 C 67.078125 441.226562 67.574219 441.453125 67.359375 441.796875 C 67.132812 442.167969 67.507812 442.246094 68.429688 442.015625 C 69.371094 441.777344 69.851562 441.882812 69.851562 442.324219 C 69.851562 442.722656 70.222656 442.851562 70.769531 442.640625 C 71.273438 442.445312 71.828125 442.5 72.007812 442.757812 C 72.183594 443.015625 74.800781 443.914062 77.824219 444.757812 C 80.851562 445.601562 83.714844 446.636719 84.191406 447.054688 C 84.671875 447.476562 85.824219 447.820312 86.761719 447.820312 C 88.460938 447.820312 88.460938 447.824219 87.890625 449.882812 C 87.285156 452.066406 87.015625 454.0625 86.527344 460.046875 C 86.363281 462.085938 86.007812 463.753906 85.738281 463.753906 C 85.46875 463.753906 85.25 464.820312 85.25 466.117188 C 85.25 467.417969 85 468.730469 84.699219 469.03125 C 84.394531 469.335938 84.0625 470.558594 83.960938 471.753906 C 83.855469 472.945312 83.503906 474.570312 83.175781 475.367188 C 82.847656 476.160156 82.648438 477.273438 82.730469 477.839844 C 82.875 478.816406 82.726562 479.265625 81.367188 481.929688 C 81.046875 482.558594 80.679688 483.734375 80.550781 484.539062 C 80.023438 487.855469 79.347656 489.847656 78.796875 489.738281 C 78.476562 489.671875 78.332031 490.078125 78.480469 490.636719 C 78.777344 491.773438 77.15625 493.976562 76.019531 493.976562 C 75.617188 493.976562 75.414062 494.1875 75.574219 494.445312 C 75.734375 494.703125 75.507812 495.382812 75.074219 495.957031 C 73.914062 497.484375 74.050781 499.292969 75.351562 499.632812 C 75.953125 499.789062 76.449219 499.695312 76.449219 499.421875 C 76.449219 498.652344 80.71875 498.828125 81.035156 499.609375 C 81.257812 500.160156 81.320312 500.160156 81.355469 499.609375 C 81.386719 499.144531 82.429688 498.921875 84.589844 498.921875 C 87.867188 498.921875 89.234375 499.582031 88.722656 500.914062 C 88.5625 501.328125 88.699219 501.667969 89.023438 501.667969 C 89.347656 501.667969 89.472656 502.039062 89.300781 502.492188 C 89.125 502.945312 89.214844 503.316406 89.5 503.316406 C 90.082031 503.316406 90.144531 503.597656 90.441406 507.4375 C 90.558594 508.949219 90.777344 510.558594 90.933594 511.011719 C 92.082031 514.355469 92.421875 516.023438 92.078125 516.578125 C 91.828125 516.984375 91.917969 517.078125 92.316406 516.832031 C 92.664062 516.617188 92.949219 516.710938 92.949219 517.039062 C 92.949219 517.777344 97.1875 523.210938 98.234375 523.8125 C 99.167969 524.351562 99.230469 525.945312 98.351562 526.824219 C 97.855469 527.316406 97.921875 527.707031 98.628906 528.488281 C 99.136719 529.046875 99.386719 529.671875 99.183594 529.875 C 98.980469 530.078125 99.175781 530.242188 99.617188 530.242188 C 100.785156 530.242188 104.519531 532.238281 104.113281 532.644531 C 103.792969 532.960938 104.765625 533.207031 105.738281 533.054688 C 105.964844 533.019531 106.148438 533.242188 106.148438 533.550781 C 106.148438 533.859375 106.769531 534.394531 107.523438 534.738281 C 108.28125 535.082031 108.898438 535.679688 108.898438 536.0625 C 108.898438 537.097656 112.46875 540.683594 113.503906 540.683594 C 113.996094 540.683594 114.398438 540.90625 114.398438 541.183594 C 114.398438 541.898438 117.265625 546.175781 117.746094 546.175781 C 119.304688 546.175781 124.851562 552.808594 124.851562 554.675781 C 124.851562 555.875 125.070312 556.546875 125.398438 556.34375 C 125.703125 556.15625 125.949219 556.246094 125.949219 556.542969 C 125.949219 557.867188 129.402344 557.871094 130.425781 556.542969 C 131.316406 555.382812 131.730469 555.480469 131.5 556.796875 C 131.457031 557.042969 131.679688 557.089844 131.992188 556.898438 C 132.300781 556.703125 132.726562 556.992188 132.9375 557.53125 C 134.105469 560.574219 136.945312 562.300781 139.730469 561.660156 C 141.828125 561.175781 142.929688 561.210938 144.960938 561.820312 C 149.074219 563.058594 157.523438 562.375 161.988281 560.445312 C 164.164062 559.507812 170.824219 557.207031 171.460938 557.171875 C 171.539062 557.167969 171.601562 557.539062 171.601562 557.992188 C 171.601562 559.480469 174.824219 559.03125 175.550781 557.441406 C 176.222656 555.960938 176.816406 555.714844 177.40625 556.664062 C 177.605469 556.992188 178.242188 557.140625 178.8125 556.992188 C 179.382812 556.84375 179.851562 556.890625 179.851562 557.101562 C 179.851562 558.136719 183.128906 557.65625 183.9375 556.5 C 184.414062 555.824219 184.800781 555.5 184.800781 555.773438 C 184.800781 556.050781 185.109375 555.875 185.488281 555.386719 C 185.933594 554.808594 187.335938 554.402344 189.476562 554.226562 C 191.289062 554.078125 193.640625 553.8125 194.699219 553.636719 C 195.757812 553.457031 198.480469 553.117188 200.75 552.878906 C 203.019531 552.640625 205.65625 552.03125 206.609375 551.523438 C 208.027344 550.765625 208.394531 550.734375 208.628906 551.347656 C 208.910156 552.078125 217.742188 549.066406 219.148438 547.761719 C 219.433594 547.496094 220.023438 547.277344 220.453125 547.277344 C 220.882812 547.277344 222.628906 546.683594 224.332031 545.957031 C 226.03125 545.234375 230.125 543.570312 233.425781 542.257812 C 246.996094 536.859375 254.125 530.738281 263.953125 516.046875 L 268.488281 509.265625 L 267.832031 506.429688 C 267.46875 504.867188 266.605469 501.367188 265.910156 498.648438 C 265.214844 495.925781 264.351562 491.351562 263.992188 488.480469 C 263.542969 484.859375 263.03125 482.925781 262.328125 482.160156 C 261.265625 481.007812 265.507812 469.792969 267.007812 469.804688 C 267.320312 469.804688 270.121094 470.792969 273.230469 472 C 279.882812 474.582031 280.957031 474.664062 283.207031 472.773438 C 285.464844 470.875 285.539062 471.015625 280.363281 467.042969 C 266.757812 456.601562 262.351562 453.082031 262.351562 452.660156 C 262.351562 452.402344 265.953125 447.347656 270.359375 441.429688 C 278.75 430.152344 278.824219 429.976562 276.199219 428.109375 L 274.558594 426.945312 L 270.515625 432.417969 C 268.292969 435.429688 266.164062 437.898438 265.785156 437.910156 C 265.253906 437.925781 255.945312 433.007812 254.6875 432.046875 C 254.554688 431.949219 255.28125 430.144531 256.300781 428.039062 C 258.476562 423.542969 258.742188 424.019531 252.945312 422.074219 C 247.226562 420.160156 246.570312 418.773438 250.304688 416.5 C 260.539062 410.277344 268.359375 389.769531 268.476562 368.839844 C 268.558594 354.128906 266.070312 334.324219 263.179688 326.660156 C 262.378906 324.546875 261.578125 322.339844 261.398438 321.753906 C 260.75 319.667969 259.230469 318.535156 252.726562 315.3125 L 246.125 312.042969 L 245.023438 313.535156 C 244.421875 314.355469 243.398438 315.65625 242.753906 316.429688 L 241.582031 317.828125 L 235.328125 316.332031 C 231.886719 315.503906 228.207031 314.691406 227.148438 314.519531 C 226.089844 314.351562 224.730469 314.003906 224.125 313.753906 C 223.519531 313.503906 222.59375 313.160156 222.0625 312.992188 C 221.378906 312.773438 221.101562 312.105469 221.101562 310.679688 C 221.101562 308.894531 220.96875 308.710938 219.910156 308.988281 C 218.496094 309.355469 216.699219 308.511719 216.699219 307.476562 C 216.699219 305.707031 213.179688 303.894531 211.601562 304.851562 C 210.335938 305.617188 209.632812 305.652344 206.367188 305.089844 C 204.292969 304.738281 201.75 304.570312 200.710938 304.722656 C 197.472656 305.195312 197.160156 304.5 198.777344 300.457031 C 199.558594 298.503906 200.199219 296.730469 200.199219 296.515625 C 200.199219 295.691406 204.179688 292.210938 205.992188 291.453125 C 207.039062 291.015625 207.90625 290.476562 207.910156 290.253906 C 207.941406 289.0625 209.570312 278.125 209.875 277.070312 C 210.128906 276.183594 209.996094 275.835938 209.40625 275.835938 C 208.335938 275.835938 207.121094 274.394531 207.824219 273.960938 C 208.40625 273.601562 210.886719 266.015625 211.703125 262.097656 C 212.59375 257.816406 212.648438 250.5625 211.785156 250.03125 C 210.984375 249.539062 211.128906 246.273438 212.296875 238.195312 C 213.238281 231.722656 213.273438 232.136719 211.75 232.289062 C 210.992188 232.367188 209.46875 232.824219 208.363281 233.3125 C 206.082031 234.316406 201.929688 233.4375 193.601562 230.183594 C 189.140625 228.441406 185.429688 228.148438 183.148438 229.351562 "/>
<path style=" stroke:none;fill-rule:evenodd;fill:rgb(83.137255%,76.470588%,14.117647%);fill-opacity:1;" d="M 274.140625 318.628906 C 271.621094 319.347656 263.613281 322.96875 262.484375 323.894531 C 262.410156 323.957031 262.855469 325.472656 263.476562 327.257812 C 267.746094 339.523438 269.902344 371.863281 267.304688 384.601562 C 264.554688 398.089844 256.867188 412.507812 250.304688 416.5 C 246.570312 418.773438 247.226562 420.160156 252.945312 422.074219 C 258.742188 424.019531 258.476562 423.542969 256.300781 428.039062 C 255.28125 430.144531 254.554688 431.949219 254.6875 432.046875 C 255.945312 433.007812 265.253906 437.925781 265.785156 437.910156 C 266.164062 437.898438 268.292969 435.429688 270.515625 432.417969 L 274.558594 426.945312 L 276.199219 428.109375 C 278.824219 429.976562 278.75 430.152344 270.359375 441.429688 C 265.953125 447.347656 262.351562 452.402344 262.351562 452.660156 C 262.351562 453.082031 266.757812 456.601562 280.363281 467.042969 C 285.539062 471.015625 285.464844 470.875 283.207031 472.773438 C 280.957031 474.664062 279.882812 474.582031 273.230469 472 C 270.121094 470.792969 267.320312 469.804688 267.007812 469.804688 C 265.507812 469.792969 261.265625 481.007812 262.328125 482.160156 C 263.03125 482.925781 263.542969 484.859375 263.992188 488.480469 C 264.351562 491.351562 265.214844 495.925781 265.910156 498.648438 C 266.605469 501.367188 267.46875 504.867188 267.832031 506.429688 L 268.488281 509.265625 L 263.953125 516.046875 C 254.125 530.738281 246.996094 536.859375 233.425781 542.257812 C 230.125 543.570312 226.03125 545.234375 224.332031 545.957031 C 222.628906 546.683594 220.882812 547.277344 220.453125 547.277344 C 220.023438 547.277344 219.433594 547.5 219.148438 547.777344 C 218.859375 548.054688 216.582031 549.058594 214.085938 550.015625 C 209.558594 551.746094 209.550781 551.753906 209.550781 553.742188 C 209.550781 555.65625 212.996094 559.914062 214.546875 559.914062 C 214.824219 559.914062 215.050781 560.613281 215.050781 561.46875 C 215.050781 562.328125 215.234375 563.214844 215.460938 563.441406 C 215.6875 563.667969 215.875 564.035156 215.875 564.257812 C 215.875 564.914062 219.113281 568.15625 219.765625 568.15625 C 220.089844 568.15625 220.917969 568.753906 221.605469 569.484375 C 222.292969 570.214844 223.449219 570.960938 224.175781 571.140625 C 225.648438 571.511719 225.890625 572.269531 224.75 572.9375 C 223.773438 573.507812 222.199219 576.597656 222.199219 577.941406 C 222.199219 578.898438 220.925781 580.824219 217.765625 584.640625 C 217.144531 585.394531 216.230469 586.816406 215.738281 587.800781 C 215.246094 588.78125 214.644531 589.585938 214.398438 589.585938 C 214.152344 589.585938 213.949219 589.898438 213.949219 590.277344 C 213.949219 590.65625 213.453125 591.277344 212.851562 591.65625 C 212.246094 592.03125 211.75 592.710938 211.75 593.160156 C 211.75 593.613281 211.503906 593.980469 211.199219 593.980469 C 210.898438 593.980469 210.648438 594.441406 210.648438 595.003906 C 210.648438 595.566406 209.90625 596.960938 209 598.101562 C 208.09375 599.242188 207.351562 600.472656 207.351562 600.835938 C 207.351562 601.195312 206.609375 602.152344 205.699219 602.960938 C 204.792969 603.769531 204.050781 604.824219 204.050781 605.304688 C 204.050781 605.785156 203.292969 606.882812 202.371094 607.746094 C 199.328125 610.582031 199.539062 612.683594 203.035156 614.402344 C 204.652344 615.199219 207.226562 616.5 208.753906 617.296875 C 212.390625 619.1875 215.601562 619.753906 215.601562 618.503906 C 215.601562 617.367188 215.367188 617.324219 219.636719 619.257812 C 224.40625 621.417969 226.277344 621.433594 226.933594 619.324219 L 227.425781 617.738281 L 230.449219 619.296875 C 232.113281 620.152344 234.339844 621.296875 235.398438 621.839844 C 236.457031 622.382812 237.449219 622.984375 237.601562 623.171875 C 239.695312 625.804688 245.300781 625.351562 245.300781 622.550781 C 245.300781 622.0625 245.800781 621.125 246.410156 620.46875 C 247.023438 619.816406 247.5 619.210938 247.472656 619.128906 C 247.445312 619.046875 247.6875 618.285156 248.011719 617.433594 C 248.335938 616.585938 248.601562 615.664062 248.601562 615.386719 C 248.601562 615.113281 249.21875 614.480469 249.976562 613.984375 C 250.730469 613.492188 251.351562 612.851562 251.351562 612.5625 C 251.351562 612.273438 252.039062 611.003906 252.878906 609.738281 C 254.457031 607.371094 254.914062 606.445312 256.609375 602.222656 C 258.292969 598.035156 261.835938 595.660156 263.175781 597.828125 C 264.242188 599.550781 269.066406 593.019531 270.277344 588.214844 C 270.464844 587.457031 270.878906 586.839844 271.191406 586.839844 C 271.507812 586.839844 271.621094 586.605469 271.449219 586.328125 C 270.6875 585.097656 272.496094 585.207031 274.46875 586.511719 C 276.75 588.019531 278.015625 588.289062 278.574219 587.386719 C 278.761719 587.085938 279.511719 586.839844 280.242188 586.839844 C 281.15625 586.839844 281.832031 586.332031 282.40625 585.226562 C 283.082031 583.917969 283.574219 583.628906 285.03125 583.683594 C 286.019531 583.71875 287.257812 583.550781 287.789062 583.3125 C 289.027344 582.746094 289.140625 584.730469 287.925781 585.738281 C 287 586.507812 286.800781 588.484375 287.648438 588.484375 C 288.503906 588.484375 288.296875 589.917969 287.328125 590.722656 C 286.542969 591.375 286.578125 591.496094 287.660156 591.894531 C 288.820312 592.324219 288.851562 592.527344 288.480469 597.207031 C 288.175781 601.0625 288.269531 602.410156 288.929688 603.691406 C 289.46875 604.734375 289.851562 607.4375 290.007812 611.320312 C 290.222656 616.675781 290.363281 617.355469 291.285156 617.53125 C 292.964844 617.847656 293.699219 618.734375 293.699219 620.441406 C 293.699219 621.457031 294.050781 622.171875 294.664062 622.402344 C 296.433594 623.074219 297 624.105469 297 626.679688 L 297 629.234375 L 300.710938 628.871094 C 302.753906 628.671875 305.910156 628.253906 307.726562 627.941406 C 309.539062 627.625 311.953125 627.25 313.085938 627.101562 C 315.203125 626.828125 315.929688 625.566406 314.324219 624.949219 C 313.4375 624.609375 313.128906 620.90625 313.984375 620.90625 C 314.886719 620.90625 315.15625 618.480469 314.308594 618.003906 C 313.863281 617.757812 313.5 617.070312 313.5 616.480469 C 313.5 615.894531 313.296875 615.410156 313.042969 615.410156 C 312.359375 615.410156 313 611.898438 313.765625 611.445312 C 314.671875 610.914062 314.695312 607.933594 313.796875 607.1875 C 313.289062 606.765625 313.199219 606.027344 313.496094 604.707031 C 313.730469 603.671875 313.792969 602.695312 313.632812 602.539062 C 313.472656 602.378906 313.585938 601.933594 313.882812 601.550781 C 314.175781 601.164062 314.722656 599.367188 315.089844 597.550781 C 316.496094 590.671875 317.410156 588.371094 318.390625 589.253906 C 319.550781 590.296875 323.824219 591.765625 325.738281 591.773438 C 327.839844 591.785156 327.886719 588.292969 325.828125 584.785156 C 324.613281 582.710938 324.460938 581.976562 324.78125 579.65625 C 325.046875 577.726562 324.964844 576.949219 324.503906 576.949219 C 324.039062 576.949219 323.945312 576.039062 324.171875 573.816406 C 324.644531 569.183594 325.113281 567.058594 325.660156 567.058594 C 325.929688 567.058594 326.148438 566.316406 326.148438 565.410156 C 326.148438 564.5 325.902344 563.761719 325.601562 563.761719 C 325.296875 563.761719 325.050781 563.390625 325.050781 562.9375 C 325.050781 562.484375 325.265625 562.113281 325.53125 562.113281 C 325.792969 562.113281 326.164062 561.140625 326.355469 559.953125 C 326.542969 558.765625 327.097656 557.394531 327.585938 556.910156 C 328.113281 556.382812 328.367188 555.480469 328.210938 554.671875 C 328.070312 553.929688 328.175781 553.320312 328.453125 553.320312 C 330.140625 553.320312 331.375 550.757812 331.4375 547.121094 C 331.519531 542.496094 331.226562 542.71875 336.550781 543.183594 L 341 543.570312 L 341 545.605469 C 341 547.199219 341.289062 547.796875 342.339844 548.355469 C 343.964844 549.222656 345.398438 548.15625 345.402344 546.078125 C 345.402344 545.378906 345.898438 543.992188 346.5 543.003906 C 347.105469 542.015625 347.601562 540.882812 347.601562 540.492188 C 347.601562 540.101562 348.652344 539.238281 349.9375 538.578125 C 354.425781 536.269531 355.285156 535.191406 356.207031 530.753906 C 356.667969 528.519531 357.273438 526.269531 357.550781 525.753906 C 357.824219 525.242188 358.078125 523.753906 358.113281 522.449219 C 358.179688 520.160156 358.9375 516.207031 359.097656 517.328125 C 359.144531 517.632812 359.808594 516.644531 360.582031 515.132812 C 362.480469 511.410156 362.304688 511.492188 366.023438 512.710938 C 373.636719 515.210938 375.648438 516.101562 375.695312 516.984375 C 375.71875 517.476562 375.847656 517.613281 375.980469 517.289062 C 376.230469 516.6875 379.546875 516.910156 380.050781 517.558594 C 380.363281 517.964844 384.695312 519.023438 388.164062 519.546875 C 389.453125 519.742188 390.367188 520.125 390.195312 520.398438 C 390.023438 520.675781 390.148438 520.902344 390.46875 520.902344 C 390.789062 520.902344 391.050781 520.652344 391.050781 520.351562 C 391.050781 520.050781 391.902344 519.800781 392.945312 519.800781 C 394.777344 519.800781 394.84375 519.730469 395.007812 517.46875 C 395.136719 515.667969 395.457031 515.007812 396.40625 514.589844 C 397.085938 514.296875 397.578125 513.765625 397.507812 513.414062 C 397.433594 513.0625 398.070312 512.132812 398.917969 511.34375 C 400.644531 509.734375 401.703125 506.664062 402.628906 500.570312 C 402.972656 498.304688 403.589844 495.707031 404 494.800781 C 404.8125 493.003906 405.863281 488.308594 406.1875 485.046875 C 406.296875 483.910156 406.765625 482.304688 407.226562 481.476562 C 408.476562 479.222656 409.75 475.835938 409.75 474.761719 C 409.75 474.242188 410.246094 473.242188 410.851562 472.546875 C 411.453125 471.851562 411.949219 470.839844 411.949219 470.296875 C 411.949219 469.757812 412.164062 469.183594 412.425781 469.019531 C 412.6875 468.859375 413.042969 467.851562 413.21875 466.785156 C 413.390625 465.71875 414 464.167969 414.566406 463.339844 C 415.136719 462.511719 416.039062 460.660156 416.570312 459.226562 C 417.644531 456.335938 418.34375 455.636719 419.257812 456.550781 C 422.019531 459.308594 425.570312 454.632812 423.242188 451.308594 C 422.515625 450.273438 422.542969 450.058594 423.519531 449.179688 C 424.726562 448.085938 424.984375 443.816406 424.078125 439.921875 C 423.75 438.507812 423.792969 437.34375 424.199219 436.449219 C 424.660156 435.4375 424.648438 434.835938 424.152344 434.046875 C 423.699219 433.320312 423.644531 432.324219 423.972656 430.867188 C 424.234375 429.699219 424.25 427.53125 424.007812 426.054688 C 423.382812 422.253906 423.402344 418.273438 424.050781 417.875 C 424.351562 417.6875 424.601562 417.054688 424.601562 416.46875 C 424.601562 415.882812 424.847656 415.402344 425.148438 415.402344 C 425.453125 415.402344 425.699219 415.023438 425.699219 414.558594 C 425.699219 414.097656 426.054688 413.582031 426.492188 413.414062 C 426.925781 413.25 427.4375 412.410156 427.625 411.554688 C 427.8125 410.699219 428.324219 409.863281 428.757812 409.695312 C 429.195312 409.527344 429.550781 408.988281 429.550781 408.496094 C 429.550781 407.488281 430.992188 404.777344 432.4375 403.074219 C 432.96875 402.449219 433.722656 401.554688 434.121094 401.082031 C 434.519531 400.609375 434.757812 399.964844 434.652344 399.652344 C 434.550781 399.339844 434.84375 398.769531 435.308594 398.382812 C 435.769531 398 436.148438 397.34375 436.148438 396.925781 C 436.148438 396.511719 436.59375 396.171875 437.140625 396.171875 C 437.683594 396.171875 438.363281 395.945312 438.652344 395.667969 C 438.941406 395.390625 439.671875 395.082031 440.273438 394.980469 C 440.878906 394.878906 441.746094 394.371094 442.199219 393.851562 C 443.300781 392.59375 449.53125 389.578125 451.027344 389.578125 C 452.015625 389.578125 452.304688 386.949219 451.367188 386.511719 C 451.316406 386.488281 450.378906 385.933594 449.285156 385.277344 C 448.191406 384.621094 446.867188 384.082031 446.34375 384.082031 C 445.820312 384.082031 444.613281 383.742188 443.65625 383.328125 C 441.980469 382.601562 437.234375 381.753906 429.273438 380.765625 C 424.496094 380.175781 422.472656 379.695312 422.082031 379.070312 C 421.921875 378.804688 420.082031 378.585938 418 378.585938 C 415.917969 378.585938 414.0625 378.339844 413.875 378.039062 C 413.6875 377.734375 412.125 377.488281 410.40625 377.484375 C 399.964844 377.472656 399.074219 376.964844 401.289062 372.320312 C 401.707031 371.445312 402.050781 370.386719 402.050781 369.96875 C 402.050781 368.261719 404.457031 362.242188 405.949219 360.214844 C 406.832031 359.019531 407.550781 357.710938 407.550781 357.304688 C 407.550781 356.902344 407.898438 356.023438 408.324219 355.351562 C 409.355469 353.726562 410.035156 349.464844 409.261719 349.464844 C 408.9375 349.464844 408.246094 350.144531 407.71875 350.976562 C 407.191406 351.808594 405.125 354.496094 403.121094 356.945312 C 401.117188 359.398438 397.523438 364.308594 395.128906 367.859375 L 390.773438 374.3125 L 390.402344 369.71875 C 390.195312 367.191406 389.730469 362.40625 389.371094 359.082031 C 388.671875 352.660156 389.269531 348.8125 392.734375 337.457031 C 393.320312 335.535156 393.800781 333.730469 393.800781 333.445312 C 393.800781 332.375 389.117188 330.808594 385.882812 330.796875 C 382.816406 330.78125 382.496094 330.652344 380.0625 328.375 C 377.160156 325.660156 376.769531 325.570312 365.476562 324.992188 C 358.527344 324.636719 329.972656 321.988281 303.601562 319.25 C 285.652344 317.386719 278.972656 317.246094 274.140625 318.628906 "/>
<path style=" stroke:none;fill-rule:evenodd;fill:rgb(7.843137%,26.666667%,26.666667%);fill-opacity:1;" d="M 229.238281 73.203125 C 226.554688 76.085938 225.269531 76.523438 222.144531 75.617188 C 220.488281 75.132812 219.335938 77.035156 219.511719 79.96875 C 219.613281 81.742188 217.785156 86.710938 216.195312 88.96875 C 215.644531 89.75 215.015625 90.957031 214.800781 91.65625 C 213.714844 95.140625 208.484375 99.453125 205.335938 99.453125 C 202.265625 99.453125 199.121094 100.453125 197.6875 101.886719 C 197.234375 102.339844 195.945312 102.863281 194.820312 103.046875 C 193.695312 103.234375 192.402344 103.527344 191.949219 103.703125 C 191.496094 103.878906 190.011719 104.109375 188.648438 104.21875 C 185.429688 104.476562 184.824219 105.378906 184.683594 110.136719 C 184.617188 112.269531 184.535156 115.054688 184.492188 116.324219 C 184.445312 117.917969 183.957031 119.242188 182.910156 120.613281 C 181.601562 122.328125 181.433594 122.949219 181.695312 125.175781 C 182.160156 129.140625 182.21875 131.519531 181.875 132.421875 C 181.164062 134.289062 180.457031 137.566406 180.6875 137.9375 C 180.820312 138.15625 180.355469 138.921875 179.648438 139.636719 C 178.941406 140.351562 178.070312 141.496094 177.710938 142.175781 C 177.292969 142.96875 176.554688 143.414062 175.648438 143.414062 C 174.507812 143.414062 174.3125 143.601562 174.644531 144.375 C 174.871094 144.902344 175.074219 145.75 175.097656 146.257812 C 175.117188 146.761719 175.332031 147.058594 175.566406 146.910156 C 176.664062 146.234375 175.835938 149.234375 174.433594 151.027344 C 171.714844 154.496094 168.851562 158.765625 168.851562 159.34375 C 168.851562 159.648438 168.632812 159.898438 168.367188 159.898438 C 167.398438 159.898438 165.734375 165.765625 164.472656 173.632812 C 164.207031 175.296875 163.597656 177.738281 163.117188 179.058594 C 161.738281 182.875 163.554688 186.1875 167.949219 187.871094 C 170.472656 188.839844 171.71875 195.417969 171.085938 204.433594 L 170.507812 212.605469 L 172.523438 216.789062 C 174.3125 220.5 174.472656 221.171875 173.9375 222.714844 C 172.828125 225.941406 172.5625 228.980469 173.347656 229.476562 C 174.503906 230.203125 181.054688 229.808594 183.28125 228.878906 C 185.769531 227.839844 190.886719 228.417969 194.699219 230.167969 C 196.0625 230.792969 197.632812 231.308594 198.191406 231.316406 C 198.746094 231.324219 200.917969 231.847656 203.011719 232.484375 C 206.480469 233.535156 206.933594 233.566406 208.105469 232.796875 C 208.8125 232.335938 210.328125 231.78125 211.476562 231.566406 L 213.566406 231.175781 L 213.191406 233.585938 C 211.0625 247.222656 210.960938 248.59375 212 249.632812 C 213.378906 251.007812 212.234375 263.308594 210.132812 269.679688 C 208.132812 275.75 208.191406 275.089844 209.621094 275.464844 C 210.542969 275.703125 210.71875 276.046875 210.445312 277.039062 C 210.117188 278.21875 209.339844 283.398438 208.671875 288.875 C 208.40625 291.03125 208.226562 291.242188 206.164062 291.859375 C 204.941406 292.226562 203.570312 293.089844 203.121094 293.777344 C 202.667969 294.464844 201.828125 295.175781 201.25 295.355469 C 200.640625 295.550781 200.199219 296.191406 200.199219 296.890625 C 200.199219 297.550781 199.703125 299.386719 199.101562 300.972656 C 198.496094 302.5625 198.066406 303.894531 198.140625 303.941406 C 198.214844 303.984375 199.890625 304.070312 201.863281 304.132812 C 203.835938 304.191406 206.398438 304.554688 207.558594 304.9375 C 209.460938 305.5625 209.8125 305.519531 211.234375 304.46875 C 212.097656 303.832031 212.929688 303.308594 213.082031 303.308594 C 213.769531 303.308594 217.25 306.800781 217.25 307.488281 C 217.25 308.304688 217.722656 308.429688 220.136719 308.269531 C 221.542969 308.179688 221.648438 308.320312 221.648438 310.292969 C 221.648438 312.632812 221.726562 312.671875 229.351562 314.34375 C 231.015625 314.707031 234.335938 315.589844 236.734375 316.300781 C 239.132812 317.011719 241.175781 317.597656 241.277344 317.597656 C 241.378906 317.597656 242.335938 316.234375 243.398438 314.574219 C 245.382812 311.476562 246.753906 310.816406 248.027344 312.347656 C 248.390625 312.785156 249.597656 313.4375 250.707031 313.792969 C 255.183594 315.234375 261.800781 319.832031 261.800781 321.503906 C 261.800781 323.105469 262.53125 323.101562 265.957031 321.472656 C 274.457031 317.433594 280.203125 316.617188 291.773438 317.816406 C 310.242188 319.734375 355.210938 323.734375 365.933594 324.417969 L 377.390625 325.144531 L 379.960938 327.625 C 382.40625 329.988281 382.707031 330.113281 386.472656 330.40625 C 393.355469 330.941406 394.726562 332.210938 393.207031 336.652344 C 390.210938 345.414062 389.289062 352.308594 389.921875 361.160156 C 390.25 365.757812 390.578125 370.386719 390.648438 371.445312 C 390.769531 373.3125 390.90625 373.171875 395.339844 366.613281 C 397.847656 362.898438 401.085938 358.550781 402.535156 356.957031 C 403.980469 355.359375 405.960938 352.898438 406.933594 351.484375 C 408.605469 349.058594 409.75 348.238281 409.75 349.464844 C 409.75 349.765625 409.9375 349.972656 410.164062 349.925781 C 411.023438 349.738281 413.921875 350.769531 415.105469 351.683594 C 415.785156 352.207031 417.511719 352.8125 418.949219 353.027344 C 420.386719 353.242188 422.25 353.773438 423.089844 354.207031 C 424 354.675781 426.003906 354.96875 428.046875 354.925781 C 430.039062 354.882812 432.28125 355.199219 433.398438 355.679688 C 434.65625 356.21875 436.230469 356.402344 437.9375 356.210938 C 440.226562 355.953125 440.554688 356.042969 440.574219 356.949219 C 440.589844 357.667969 440.914062 357.394531 441.636719 356.058594 C 442.207031 355 442.566406 353.640625 442.433594 353.035156 C 442.023438 351.183594 443.003906 350.222656 444.5 351.003906 C 447.613281 352.632812 454.546875 352.90625 455.527344 351.441406 C 455.808594 351.027344 455.9375 351.054688 455.941406 351.527344 C 455.960938 353.066406 462.484375 352.390625 462.882812 350.804688 C 463.390625 348.78125 462.058594 343.140625 460.734375 341.71875 C 459.292969 340.179688 457.050781 334.042969 457.050781 331.652344 C 457.050781 329.015625 456.445312 326.386719 455.839844 326.386719 C 455.1875 326.386719 454.222656 325.425781 452.996094 323.554688 C 451.96875 321.984375 451.980469 321.394531 453.300781 306.53125 C 453.839844 300.449219 453.804688 299.242188 453.007812 296.8125 C 451.8125 293.152344 451.859375 292.394531 453.335938 291.765625 C 454.019531 291.476562 455.484375 290.679688 456.59375 289.996094 C 457.707031 289.308594 460.429688 287.679688 462.644531 286.371094 C 465.929688 284.433594 467.078125 283.363281 468.859375 280.601562 C 470.0625 278.734375 471.546875 276.675781 472.160156 276.023438 C 474.027344 274.039062 474.527344 273.300781 474.738281 272.214844 C 474.847656 271.640625 475.617188 270.847656 476.445312 270.453125 C 477.304688 270.039062 477.949219 269.285156 477.949219 268.683594 C 477.949219 267.464844 481.941406 263.199219 483.085938 263.199219 C 484.097656 263.199219 488.863281 257.414062 489.308594 255.648438 C 489.566406 254.617188 489.3125 254.007812 488.261719 253.113281 C 486.269531 251.421875 486.109375 249.855469 487.605469 246.757812 C 488.320312 245.273438 489.410156 242.617188 490.023438 240.855469 C 490.667969 238.996094 491.832031 237.015625 492.792969 236.144531 C 493.777344 235.25 494.449219 234.09375 494.449219 233.292969 C 494.449219 231.417969 495.398438 231.019531 496.535156 232.421875 C 497.355469 233.433594 497.707031 233.515625 499.042969 233.007812 C 499.894531 232.683594 500.8125 232.554688 501.085938 232.722656 C 501.578125 233.027344 504.589844 232.125 508.199219 230.59375 C 509.71875 229.949219 510.464844 229.0625 511.726562 226.398438 C 512.632812 224.492188 514.25 222.230469 515.4375 221.214844 C 517.617188 219.351562 518.140625 217.785156 516.757812 217.253906 C 516.320312 217.085938 515.441406 215.953125 514.808594 214.734375 C 514.171875 213.515625 513.273438 212.144531 512.816406 211.683594 C 511.867188 210.734375 512.097656 210.421875 514.804688 208.992188 C 520.347656 206.066406 522.214844 203.570312 520.300781 201.65625 C 519.695312 201.050781 519.199219 200.355469 519.199219 200.113281 C 519.199219 199.867188 518.511719 198.941406 517.667969 198.050781 C 516.828125 197.164062 515.839844 195.820312 515.472656 195.0625 C 514.683594 193.433594 513.554688 191.601562 513.101562 191.21875 C 512.6875 190.863281 510.503906 187.019531 508.042969 182.316406 C 506.292969 178.96875 506.199219 178.578125 507.023438 177.917969 C 509.113281 176.246094 515.917969 173.503906 517.960938 173.511719 C 518.644531 173.515625 519.199219 173.296875 519.199219 173.027344 C 519.199219 172.757812 519.59375 172.535156 520.074219 172.535156 C 520.554688 172.535156 521.207031 171.839844 521.527344 170.988281 C 521.851562 170.140625 522.941406 168.902344 523.957031 168.238281 C 526.4375 166.613281 526.324219 166.121094 522.519531 161.972656 C 520.714844 160.003906 519.289062 158.300781 519.355469 158.183594 C 519.421875 158.070312 519.378906 158.027344 519.261719 158.097656 C 518.449219 158.558594 515.761719 155.992188 514.945312 153.972656 C 514.011719 151.667969 513.898438 151.585938 512.050781 151.875 C 510.335938 152.140625 510.019531 151.988281 509.144531 150.464844 L 508.167969 148.761719 L 510.109375 146.269531 C 511.175781 144.902344 512.050781 143.582031 512.050781 143.335938 C 512.050781 143.089844 512.792969 142.507812 513.699219 142.039062 C 515.480469 141.117188 515.984375 138.769531 514.675781 137.464844 C 514.144531 136.933594 514.144531 136.566406 514.675781 135.714844 C 515.046875 135.121094 515.351562 134.015625 515.351562 133.253906 C 515.351562 132.242188 515.640625 131.875 516.449219 131.875 C 517.054688 131.875 517.550781 131.671875 517.550781 131.429688 C 517.550781 131.183594 519.535156 130.144531 521.964844 129.121094 C 524.394531 128.09375 526.902344 126.773438 527.535156 126.179688 C 528.550781 125.238281 528.910156 125.1875 530.539062 125.777344 C 532.5 126.484375 533.5 126.234375 533.5 125.039062 C 533.5 124.636719 534.367188 123.652344 535.425781 122.84375 C 537.183594 121.503906 537.351562 121.132812 537.351562 118.558594 C 537.351562 113.890625 535.304688 110.167969 534.25 112.917969 C 533.148438 115.78125 523.101562 110.273438 520.535156 105.394531 C 519.65625 103.726562 518.464844 97.082031 518.410156 93.546875 C 518.390625 92.261719 518.210938 91.210938 518.011719 91.210938 C 517.808594 91.210938 517.480469 90.222656 517.273438 89.015625 C 517.070312 87.804688 516.699219 86.816406 516.445312 86.816406 C 516.195312 86.816406 516.03125 85.417969 516.082031 83.707031 L 516.175781 80.597656 L 513.601562 80.429688 C 511.730469 80.304688 510.6875 80.535156 509.777344 81.269531 C 508.832031 82.035156 508.292969 82.144531 507.605469 81.71875 C 506.496094 81.023438 501.644531 82.472656 499.152344 84.246094 C 498.25 84.886719 497.253906 85.472656 496.941406 85.542969 C 496.628906 85.617188 495.386719 85.925781 494.175781 86.234375 C 490.792969 87.089844 488.238281 86.925781 484.867188 85.640625 C 481.933594 84.515625 481.734375 84.507812 480.730469 85.417969 C 480.148438 85.941406 478.976562 86.457031 478.125 86.558594 C 477.273438 86.664062 475.890625 86.917969 475.054688 87.125 C 473.742188 87.445312 473.582031 87.359375 473.867188 86.46875 C 474.109375 85.726562 474.058594 85.644531 473.683594 86.171875 C 473.253906 86.769531 472.777344 86.738281 471.027344 86.007812 C 469.746094 85.472656 468.820312 85.335938 468.710938 85.664062 C 468.433594 86.496094 466.003906 85.210938 465.019531 83.710938 C 463.359375 81.179688 460.3125 84.1875 458.828125 89.824219 C 458.433594 91.328125 457.625 93.074219 457.03125 93.707031 C 456.433594 94.335938 455.941406 95.210938 455.933594 95.644531 C 455.910156 96.679688 454.5625 98.433594 454.125 98 C 452.28125 96.15625 451 97.410156 451 101.050781 C 451 105.457031 449.648438 110.40625 448.164062 111.445312 C 447.402344 111.980469 447.257812 112.386719 447.660156 112.871094 C 448.027344 113.3125 448.035156 113.734375 447.683594 114.085938 C 447.386719 114.382812 447.039062 116.339844 446.90625 118.441406 C 446.519531 124.5625 446.046875 125.449219 439.605469 132.082031 C 432.949219 138.941406 431.152344 141.949219 430.601562 147.164062 C 430.398438 149.078125 430.007812 150.867188 429.734375 151.140625 C 429.054688 151.820312 421.53125 150.453125 419.101562 149.210938 C 416.015625 147.632812 410.605469 144.34375 410.253906 143.835938 C 410.078125 143.578125 408.34375 143.421875 406.402344 143.492188 C 404.464844 143.558594 402.335938 143.320312 401.671875 142.964844 C 399.90625 142.007812 398.554688 142.167969 397.765625 143.433594 C 397.378906 144.046875 396.429688 144.792969 395.652344 145.089844 C 394.546875 145.507812 394.300781 145.898438 394.539062 146.855469 C 394.792969 147.882812 394.375 148.355469 392.007812 149.730469 C 384.644531 154.015625 380.855469 160.027344 382.917969 164.15625 C 383.441406 165.203125 383.332031 165.621094 382.207031 166.84375 C 381.292969 167.835938 381.089844 168.367188 381.5625 168.535156 C 382.726562 168.949219 382.351562 171.128906 381.011719 171.71875 C 379.984375 172.167969 379.804688 172.613281 379.957031 174.347656 C 380.058594 175.492188 379.855469 176.777344 379.507812 177.195312 C 379.023438 177.777344 379.054688 178.675781 379.628906 180.929688 C 380.144531 182.957031 380.210938 184.167969 379.835938 184.761719 C 379.152344 185.847656 380.277344 187.371094 381.765625 187.371094 C 383.109375 187.371094 383.164062 189.683594 381.851562 191.210938 C 380.59375 192.679688 380.261719 192.609375 379.601562 190.726562 C 379.300781 189.855469 378.285156 188.6875 377.351562 188.136719 C 376.125 187.414062 375.566406 186.601562 375.335938 185.191406 C 375.164062 184.125 374.769531 182.734375 374.464844 182.101562 C 374.160156 181.472656 373.964844 180.605469 374.03125 180.179688 C 374.507812 177.0625 371.492188 174 369.179688 175.25 C 367.945312 175.917969 365.125 176.59375 364.214844 176.441406 C 360.644531 175.84375 347.917969 179.828125 348.332031 181.414062 C 348.46875 181.941406 348.304688 182.464844 347.964844 182.578125 C 347.175781 182.839844 344.300781 181.769531 344.300781 181.210938 C 344.300781 180.980469 343.324219 180.632812 342.128906 180.441406 C 339.664062 180.046875 336.996094 177.519531 336.683594 175.28125 C 336.578125 174.527344 336.191406 173.167969 335.820312 172.261719 C 335.441406 171.328125 335.320312 170.015625 335.546875 169.238281 C 335.804688 168.328125 335.960938 168.195312 335.996094 168.84375 C 336.074219 170.261719 337.402344 170.558594 338.992188 169.515625 C 340.242188 168.699219 340.832031 166.492188 339.800781 166.492188 C 339.160156 166.492188 339.9375 164.707031 341.171875 163.335938 C 342.117188 162.285156 342.183594 161.894531 341.632812 160.683594 C 341.277344 159.902344 341.113281 159.058594 341.269531 158.804688 C 341.429688 158.550781 341.246094 158.210938 340.867188 158.050781 C 340.367188 157.84375 340.445312 157.59375 341.136719 157.152344 C 341.667969 156.820312 342.101562 156.234375 342.101562 155.851562 C 342.101562 154.835938 345.113281 152.78125 347.183594 152.386719 C 351.441406 151.582031 351.996094 149.3125 348.089844 148.6875 C 346.21875 148.386719 345.992188 148.207031 346.445312 147.359375 C 347.316406 145.734375 340.648438 141.222656 337.363281 141.21875 C 336.722656 141.214844 335.609375 140.753906 334.886719 140.191406 C 334.164062 139.628906 332.535156 138.640625 331.265625 137.996094 C 329.996094 137.351562 328.726562 136.414062 328.445312 135.910156 C 327.699219 134.574219 312.59375 129.558594 302.363281 127.25 C 301.015625 126.945312 300.851562 126.660156 300.851562 124.664062 L 300.851562 122.421875 L 298.3125 122.625 L 295.777344 122.824219 L 291.4375 118.246094 C 287.332031 113.914062 286.347656 112.074219 287.6875 111.246094 C 288.585938 110.691406 287.730469 106.46875 286.507812 105.410156 C 285.761719 104.765625 285.449219 103.785156 285.449219 102.070312 C 285.449219 100.113281 285.210938 99.511719 284.210938 98.976562 C 283.09375 98.378906 281.046875 95.546875 281.117188 94.699219 C 281.132812 94.511719 280.925781 94.207031 280.65625 94.023438 C 280.386719 93.835938 279.5 92.253906 278.683594 90.507812 C 277.152344 87.230469 275.9375 86.210938 274.851562 87.292969 C 274.511719 87.636719 274.03125 87.914062 273.789062 87.914062 C 273.03125 87.914062 273.308594 86.691406 274.21875 86.027344 C 275.089844 85.394531 273.886719 81.40625 272.664062 80.863281 C 272.4375 80.761719 272.25 80.332031 272.25 79.902344 C 272.25 78.835938 270.253906 76.925781 269.132812 76.925781 C 268.628906 76.925781 268.363281 77.070312 268.539062 77.246094 C 268.714844 77.421875 268.511719 77.980469 268.089844 78.484375 C 267.667969 78.988281 266.984375 79.867188 266.570312 80.441406 C 265.855469 81.433594 265.722656 81.390625 263.675781 79.441406 C 261.738281 77.601562 261.3125 77.429688 259.386719 77.730469 C 257.917969 77.957031 256.976562 77.816406 256.363281 77.277344 C 255.875 76.84375 254.992188 76.402344 254.398438 76.292969 C 253.808594 76.183594 253.1875 75.558594 253.023438 74.898438 C 252.183594 71.535156 248.199219 69.714844 246.152344 71.757812 C 244.617188 73.292969 235.101562 73.136719 233.996094 71.554688 C 232.789062 69.835938 232.175781 70.050781 229.238281 73.203125 "/>
<path style=" stroke:none;fill-rule:evenodd;fill:rgb(39.215686%,48.627451%,29.803922%);fill-opacity:1;" d="M 281.738281 317.441406 C 282.570312 317.566406 283.929688 317.566406 284.761719 317.441406 C 285.59375 317.3125 284.914062 317.210938 283.25 317.210938 C 281.585938 317.210938 280.90625 317.3125 281.738281 317.441406 M 266.0625 321.480469 C 264.929688 322.078125 264 322.6875 264 322.839844 C 264 322.992188 264.988281 322.609375 266.199219 321.992188 C 267.410156 321.375 268.398438 320.75 268.398438 320.605469 C 268.398438 320.246094 268.394531 320.25 266.0625 321.480469 M 322.445312 321.285156 C 323.28125 321.414062 324.519531 321.410156 325.195312 321.28125 C 325.871094 321.148438 325.1875 321.046875 323.675781 321.050781 C 322.164062 321.054688 321.609375 321.160156 322.445312 321.285156 M 328.496094 321.835938 C 329.332031 321.960938 330.570312 321.960938 331.246094 321.828125 C 331.921875 321.699219 331.238281 321.59375 329.726562 321.597656 C 328.210938 321.601562 327.660156 321.710938 328.496094 321.835938 M 333.988281 322.386719 C 334.820312 322.511719 336.179688 322.511719 337.011719 322.386719 C 337.84375 322.257812 337.164062 322.15625 335.5 322.15625 C 333.835938 322.15625 333.15625 322.257812 333.988281 322.386719 M 340.042969 322.933594 C 340.882812 323.0625 342.121094 323.058594 342.792969 322.929688 C 343.472656 322.796875 342.789062 322.695312 341.273438 322.699219 C 339.761719 322.703125 339.207031 322.808594 340.042969 322.933594 M 346.09375 323.484375 C 346.933594 323.609375 348.167969 323.609375 348.84375 323.476562 C 349.519531 323.347656 348.835938 323.242188 347.324219 323.246094 C 345.8125 323.25 345.257812 323.359375 346.09375 323.484375 M 351.863281 324.027344 C 352.542969 324.160156 353.65625 324.160156 354.335938 324.027344 C 355.019531 323.898438 354.460938 323.789062 353.101562 323.789062 C 351.738281 323.789062 351.183594 323.898438 351.863281 324.027344 M 357.921875 324.585938 C 358.910156 324.710938 360.394531 324.707031 361.222656 324.582031 C 362.046875 324.457031 361.238281 324.355469 359.425781 324.359375 C 357.609375 324.363281 356.933594 324.464844 357.921875 324.585938 M 366.445312 325.132812 C 367.28125 325.257812 368.519531 325.257812 369.195312 325.125 C 369.871094 324.996094 369.1875 324.890625 367.675781 324.894531 C 366.164062 324.898438 365.609375 325.007812 366.445312 325.132812 M 384.585938 330.613281 C 385.117188 330.75 385.984375 330.75 386.511719 330.613281 C 387.042969 330.472656 386.609375 330.363281 385.550781 330.363281 C 384.492188 330.363281 384.058594 330.472656 384.585938 330.613281 M 389.019531 354.136719 C 389.023438 355.949219 389.125 356.625 389.25 355.636719 C 389.371094 354.648438 389.367188 353.164062 389.242188 352.339844 C 389.117188 351.515625 389.019531 352.324219 389.019531 354.136719 M 389.527344 359.90625 C 389.527344 360.964844 389.640625 361.394531 389.78125 360.867188 C 389.917969 360.339844 389.917969 359.472656 389.78125 358.945312 C 389.640625 358.414062 389.527344 358.847656 389.527344 359.90625 M 398.199219 362.652344 C 397.554688 363.558594 397.148438 364.300781 397.300781 364.300781 C 397.453125 364.300781 398.105469 363.558594 398.75 362.652344 C 399.394531 361.746094 399.800781 361.003906 399.648438 361.003906 C 399.496094 361.003906 398.847656 361.746094 398.199219 362.652344 "/>
<path style=" stroke:none;fill-rule:evenodd;fill:rgb(48.627451%,39.215686%,54.901961%);fill-opacity:1;" d="M 179.4375 230.058594 C 179.96875 230.195312 180.832031 230.195312 181.363281 230.058594 C 181.890625 229.921875 181.457031 229.808594 180.398438 229.808594 C 179.339844 229.808594 178.90625 229.921875 179.4375 230.058594 M 166.300781 233.644531 C 165.933594 234.242188 167.300781 234.171875 168.292969 233.542969 C 168.929688 233.140625 168.832031 233.046875 167.839844 233.121094 C 167.140625 233.171875 166.445312 233.410156 166.300781 233.644531 M 162.40625 236.46875 C 162.472656 236.816406 162.214844 237.035156 161.835938 236.960938 C 161.460938 236.886719 161.148438 237.070312 161.148438 237.371094 C 161.148438 237.675781 161.519531 237.921875 161.976562 237.921875 C 162.429688 237.921875 162.800781 237.664062 162.800781 237.347656 C 162.800781 237.035156 163.207031 236.847656 163.707031 236.9375 C 164.203125 237.023438 164.699219 236.851562 164.804688 236.546875 C 164.910156 236.246094 164.390625 235.964844 163.644531 235.921875 C 162.890625 235.878906 162.34375 236.121094 162.40625 236.46875 M 142.144531 241.722656 C 142.316406 241.996094 142.144531 242.347656 141.765625 242.503906 C 141.347656 242.667969 141.457031 242.796875 142.039062 242.824219 C 142.566406 242.847656 143 242.496094 143 242.042969 C 143 241.589844 142.738281 241.21875 142.417969 241.21875 C 142.097656 241.21875 141.976562 241.445312 142.144531 241.722656 M 101.199219 256.164062 C 101.199219 256.40625 102.375 256.605469 103.8125 256.609375 C 105.25 256.613281 107.042969 256.777344 107.800781 256.96875 C 108.554688 257.160156 109 257.125 108.785156 256.890625 C 108.242188 256.300781 101.199219 255.625 101.199219 256.164062 M 72.050781 270.796875 C 72.050781 271.152344 71.492188 271.445312 70.8125 271.449219 C 70.132812 271.453125 69.203125 271.695312 68.75 271.988281 C 68.132812 272.386719 68.433594 272.523438 69.929688 272.53125 C 71.777344 272.539062 73.199219 271.308594 72.335938 270.445312 C 72.179688 270.289062 72.050781 270.445312 72.050781 270.796875 M 53.71875 273.457031 C 53.515625 273.65625 53.355469 274.089844 53.359375 274.417969 C 53.363281 274.804688 53.507812 274.785156 53.777344 274.371094 C 54 274.015625 55.046875 273.621094 56.105469 273.496094 L 58.023438 273.265625 L 56.054688 273.175781 C 54.96875 273.128906 53.917969 273.253906 53.71875 273.457031 M 209.128906 281.332031 C 209.128906 282.386719 209.242188 282.820312 209.378906 282.292969 C 209.515625 281.761719 209.515625 280.898438 209.378906 280.367188 C 209.242188 279.839844 209.128906 280.273438 209.128906 281.332031 M 208.589844 285.453125 C 208.59375 286.660156 208.707031 287.089844 208.839844 286.40625 C 208.972656 285.722656 208.964844 284.734375 208.828125 284.207031 C 208.691406 283.683594 208.582031 284.242188 208.589844 285.453125 M 47.929688 299.414062 C 47.375 299.753906 47.347656 299.976562 47.828125 300.273438 C 48.582031 300.738281 49.148438 300.328125 48.871094 299.515625 C 48.753906 299.183594 48.367188 299.140625 47.929688 299.414062 M 220.367188 308.628906 C 220.722656 308.882812 221.125 309.953125 221.261719 311.007812 C 221.503906 312.84375 221.511719 312.835938 221.445312 310.769531 C 221.398438 309.363281 221.089844 308.539062 220.550781 308.390625 C 219.988281 308.242188 219.929688 308.316406 220.367188 308.628906 M 42.898438 321.398438 C 42.898438 321.675781 42.75 322.296875 42.5625 322.777344 C 42.316406 323.417969 42.464844 323.5625 43.113281 323.3125 C 44.070312 322.945312 44.355469 320.894531 43.449219 320.894531 C 43.148438 320.894531 42.898438 321.121094 42.898438 321.398438 M 78.511719 489.875 C 77.4375 491.308594 77.269531 492.328125 78.101562 492.328125 C 78.402344 492.328125 78.648438 491.882812 78.648438 491.339844 C 78.648438 490.796875 78.941406 490.058594 79.300781 489.699219 C 79.660156 489.34375 79.84375 488.945312 79.710938 488.820312 C 79.582031 488.695312 79.042969 489.167969 78.511719 489.875 M 76.449219 499.472656 C 76.449219 499.773438 77.441406 500.019531 78.648438 500.019531 C 79.859375 500.019531 80.851562 499.773438 80.851562 499.472656 C 80.851562 499.167969 79.859375 498.921875 78.648438 498.921875 C 77.441406 498.921875 76.449219 499.167969 76.449219 499.472656 M 81.398438 499.472656 C 81.398438 499.773438 82.742188 500.019531 84.378906 500.019531 C 86.019531 500.019531 87.8125 500.191406 88.367188 500.398438 C 89.253906 500.730469 89.285156 500.664062 88.621094 499.847656 C 87.777344 498.8125 81.398438 498.476562 81.398438 499.472656 M 90.339844 507.988281 C 90.34375 509.195312 90.457031 509.628906 90.589844 508.941406 C 90.722656 508.261719 90.714844 507.269531 90.578125 506.746094 C 90.441406 506.21875 90.332031 506.78125 90.339844 507.988281 M 105.609375 533.949219 C 105.601562 534.871094 105.917969 535.183594 106.835938 535.179688 C 107.75 535.171875 107.878906 535.042969 107.324219 534.695312 C 106.910156 534.433594 106.355469 533.878906 106.09375 533.464844 C 105.742188 532.914062 105.613281 533.039062 105.609375 533.949219 M 198.695312 553.152344 C 199.226562 553.289062 199.523438 553.632812 199.347656 553.910156 C 198.855469 554.710938 199.644531 554.503906 200.554688 553.59375 C 201.285156 552.863281 201.175781 552.777344 199.550781 552.832031 C 198.546875 552.871094 198.160156 553.011719 198.695312 553.152344 M 130.898438 555.730469 C 130.898438 555.941406 131.394531 556.644531 132 557.292969 C 132.605469 557.941406 133.101562 558.21875 133.101562 557.902344 C 133.101562 557.59375 132.605469 556.890625 132 556.34375 C 131.394531 555.796875 130.898438 555.519531 130.898438 555.730469 M 175.785156 556.9375 C 175.332031 558.117188 175.359375 558.265625 176.03125 558.265625 C 176.351562 558.265625 176.460938 558.019531 176.273438 557.714844 C 176.089844 557.414062 176.335938 557.167969 176.824219 557.167969 C 177.316406 557.167969 177.5625 556.917969 177.375 556.617188 C 176.875 555.804688 176.164062 555.949219 175.785156 556.9375 M 171.050781 558.265625 C 171.394531 558.90625 172.144531 559.332031 172.855469 559.289062 L 174.074219 559.214844 L 172.835938 558.976562 C 172.15625 558.84375 171.601562 558.386719 171.601562 557.953125 C 171.601562 557.519531 171.34375 557.167969 171.03125 557.167969 C 170.644531 557.167969 170.652344 557.519531 171.050781 558.265625 "/>
<path style=" stroke:none;fill-rule:evenodd;fill:rgb(23.529412%,36.078431%,29.803922%);fill-opacity:1;" d="M 363.6875 324.570312 C 364.21875 324.707031 365.082031 324.707031 365.613281 324.570312 C 366.140625 324.429688 365.707031 324.316406 364.648438 324.316406 C 363.589844 324.316406 363.15625 324.429688 363.6875 324.570312 M 371.945312 325.132812 C 372.78125 325.257812 374.019531 325.257812 374.695312 325.125 C 375.371094 324.996094 374.6875 324.890625 373.175781 324.894531 C 371.664062 324.898438 371.109375 325.007812 371.945312 325.132812 M 376.796875 325.425781 C 376.921875 325.5 377.765625 326.179688 378.675781 326.9375 L 380.324219 328.308594 L 378.992188 326.800781 C 378.257812 325.96875 377.414062 325.289062 377.113281 325.289062 C 376.8125 325.289062 376.671875 325.351562 376.796875 325.425781 "/>
</g>
</svg>
